# Blender 5.1.1
# www.blender.org
mtllib player.mtl
o 立方体
v 0.421990 1.074364 0.421990
v 0.421990 1.129991 0.421990
v -0.421990 1.074364 0.421990
v -0.421990 1.129991 0.421990
v 0.421990 1.074364 -0.421990
v 0.421990 1.129991 -0.421990
v -0.421990 1.074364 -0.421990
v -0.421990 1.129991 -0.421990
v -0.263910 1.074364 0.109315
v -0.237513 1.074364 0.158701
v -0.280166 1.074364 0.055728
v -0.237513 1.074364 -0.158701
v -0.263910 1.074364 -0.109315
v -0.280166 1.074364 -0.055729
v -0.285655 1.074364 0.000000
v 0.158702 1.074364 -0.237513
v 0.109316 1.074364 -0.263911
v -0.000000 1.074364 -0.285655
v 0.055729 1.074364 -0.280166
v -0.055728 1.074364 -0.280166
v -0.109315 1.074364 -0.263911
v -0.158701 1.074364 -0.237513
v -0.201988 1.074364 -0.201989
v -0.000000 1.074364 0.285655
v 0.055729 1.074364 0.280166
v -0.055728 1.074364 0.280166
v 0.109316 1.074364 0.263911
v 0.158702 1.074364 0.237513
v 0.201989 1.074364 0.201988
v -0.109315 1.074364 0.263911
v -0.158701 1.074364 0.237513
v -0.201988 1.074364 0.201988
v 0.201989 1.074364 -0.201989
v 0.263911 1.074364 -0.109315
v 0.280166 1.074364 -0.055729
v 0.237514 1.074364 -0.158701
v 0.285655 1.074364 -0.000000
v 0.280166 1.074364 0.055728
v 0.263911 1.074364 0.109315
v 0.237514 1.074364 0.158701
v -0.000000 1.129991 0.301354
v 0.058792 1.129991 0.295564
v -0.058791 1.129991 0.295564
v 0.167424 1.129991 0.250567
v 0.115323 1.129991 0.278415
v -0.115323 1.129991 0.278415
v -0.167423 1.129991 0.250567
v -0.295563 1.129991 0.058791
v -0.278415 1.129991 0.115323
v -0.250567 1.129991 0.167423
v -0.250567 1.129991 -0.167423
v -0.295563 1.129991 -0.058791
v -0.278415 1.129991 -0.115323
v -0.301354 1.129991 0.000000
v -0.213089 1.129991 0.213089
v 0.278415 1.129991 0.115323
v 0.250567 1.129991 0.167423
v 0.213090 1.129991 0.213089
v 0.295564 1.129991 0.058791
v 0.301354 1.129991 -0.000000
v 0.295564 1.129991 -0.058791
v 0.278415 1.129991 -0.115323
v 0.167424 1.129991 -0.250567
v 0.115323 1.129991 -0.278415
v 0.213090 1.129991 -0.213090
v -0.115323 1.129991 -0.278415
v 0.058792 1.129991 -0.295564
v -0.058791 1.129991 -0.295564
v -0.000000 1.129991 -0.301354
v -0.167423 1.129991 -0.250567
v -0.213089 1.129991 -0.213090
v 0.250567 1.129991 -0.167423
v 0.302748 1.132087 -0.000000
v 0.296931 1.132087 -0.059063
v 0.279703 1.132087 -0.115857
v 0.251726 1.132087 -0.168198
v 0.214076 1.132087 -0.214075
v 0.168198 1.132087 -0.251726
v 0.115857 1.132087 -0.279703
v 0.059063 1.132087 -0.296931
v -0.000000 1.132087 -0.302748
v -0.059063 1.132087 -0.296931
v -0.115857 1.132087 -0.279703
v -0.168198 1.132087 -0.251726
v -0.214075 1.132087 -0.214075
v -0.251726 1.132087 -0.168198
v -0.279703 1.132087 -0.115857
v -0.296931 1.132087 -0.059063
v -0.302748 1.132087 0.000000
v -0.296931 1.132087 0.059063
v -0.279703 1.132087 0.115857
v -0.251726 1.132087 0.168198
v -0.214075 1.132087 0.214075
v -0.168198 1.132087 0.251726
v -0.115857 1.132087 0.279703
v -0.059063 1.132087 0.296931
v -0.000000 1.132087 0.302748
v 0.059063 1.132087 0.296931
v 0.115857 1.132087 0.279703
v 0.168198 1.132087 0.251726
v 0.214076 1.132087 0.214075
v 0.251726 1.132087 0.168198
v 0.279703 1.132087 0.115857
v 0.296931 1.132087 0.059063
v -0.000000 0.211800 0.000000
v -0.283282 0.611330 0.000000
v 0.282144 0.611330 -0.000000
v -0.283282 0.610405 -0.009389
v 0.282144 0.610405 -0.009389
v -0.283282 0.607667 -0.018417
v 0.282144 0.607667 -0.018417
v -0.283282 0.603219 -0.026737
v 0.282144 0.603219 -0.026737
v -0.283282 0.597234 -0.034030
v 0.282144 0.597234 -0.034030
v -0.283282 0.589942 -0.040015
v 0.282144 0.589942 -0.040015
v -0.283282 0.581621 -0.044462
v 0.282144 0.581621 -0.044462
v -0.283282 0.572593 -0.047201
v 0.282144 0.572593 -0.047201
v -0.283282 0.563205 -0.048125
v 0.282144 0.563205 -0.048125
v -0.283282 0.553816 -0.047201
v 0.282144 0.553816 -0.047201
v -0.283282 0.544788 -0.044462
v 0.282144 0.544788 -0.044462
v -0.283282 0.536467 -0.040015
v 0.282144 0.536467 -0.040015
v -0.283282 0.529175 -0.034030
v 0.282144 0.529175 -0.034030
v -0.283282 0.523190 -0.026737
v 0.282144 0.523190 -0.026737
v -0.283282 0.518742 -0.018417
v 0.282144 0.518742 -0.018417
v -0.283282 0.516004 -0.009389
v 0.282144 0.516004 -0.009389
v -0.283282 0.515079 0.000000
v 0.282144 0.515079 -0.000000
v -0.283282 0.516004 0.009389
v 0.282144 0.516004 0.009389
v -0.283282 0.518742 0.018417
v 0.282144 0.518742 0.018417
v -0.283282 0.523190 0.026737
v 0.282144 0.523190 0.026737
v -0.283282 0.529175 0.034030
v 0.282144 0.529175 0.034030
v -0.283282 0.536467 0.040015
v 0.282144 0.536467 0.040015
v -0.283282 0.544788 0.044462
v 0.282144 0.544788 0.044462
v -0.283282 0.553816 0.047201
v 0.282144 0.553816 0.047201
v -0.283282 0.563205 0.048125
v 0.282144 0.563205 0.048125
v -0.283282 0.572593 0.047201
v 0.282144 0.572593 0.047201
v -0.283282 0.581621 0.044462
v 0.282144 0.581621 0.044462
v -0.283282 0.589942 0.040015
v 0.282144 0.589942 0.040015
v -0.283282 0.597234 0.034030
v 0.282144 0.597234 0.034030
v -0.283282 0.603219 0.026737
v 0.282144 0.603219 0.026737
v -0.283282 0.607667 0.018417
v 0.282144 0.607667 0.018417
v -0.283282 0.610405 0.009389
v 0.282144 0.610405 0.009389
v -0.278125 -0.168081 0.000000
v -0.278125 0.601547 0.000000
v -0.277201 -0.168081 -0.009389
v -0.277201 0.601547 -0.009389
v -0.274462 -0.168081 -0.018417
v -0.274462 0.601547 -0.018417
v -0.270015 -0.168081 -0.026737
v -0.270015 0.601547 -0.026737
v -0.264030 -0.168081 -0.034030
v -0.264030 0.601547 -0.034030
v -0.256737 -0.168081 -0.040015
v -0.256737 0.601547 -0.040015
v -0.248417 -0.168081 -0.044462
v -0.248417 0.601547 -0.044462
v -0.239389 -0.168081 -0.047201
v -0.239389 0.601547 -0.047201
v -0.230000 -0.168081 -0.048125
v -0.230000 0.601547 -0.048125
v -0.220611 -0.168081 -0.047201
v -0.220611 0.601547 -0.047201
v -0.211583 -0.168081 -0.044462
v -0.211583 0.601547 -0.044462
v -0.203263 -0.168081 -0.040015
v -0.203263 0.601547 -0.040015
v -0.195970 -0.168081 -0.034030
v -0.195970 0.601547 -0.034030
v -0.189985 -0.168081 -0.026737
v -0.189985 0.601547 -0.026737
v -0.185538 -0.168081 -0.018417
v -0.185538 0.601547 -0.018417
v -0.182799 -0.168081 -0.009389
v -0.182799 0.601547 -0.009389
v -0.181875 -0.168081 0.000000
v -0.181875 0.601547 0.000000
v -0.182799 -0.168081 0.009389
v -0.182799 0.601547 0.009389
v -0.185538 -0.168081 0.018417
v -0.185538 0.601547 0.018417
v -0.189985 -0.168081 0.026737
v -0.189985 0.601547 0.026737
v -0.195970 -0.168081 0.034030
v -0.195970 0.601547 0.034030
v -0.203263 -0.168081 0.040015
v -0.203263 0.601547 0.040015
v -0.211583 -0.168081 0.044462
v -0.211583 0.601547 0.044462
v -0.220611 -0.168081 0.047201
v -0.220611 0.601547 0.047201
v -0.230000 -0.168081 0.048125
v -0.230000 0.601547 0.048125
v -0.239389 -0.168081 0.047201
v -0.239389 0.601547 0.047201
v -0.248417 -0.168081 0.044462
v -0.248417 0.601547 0.044462
v -0.256737 -0.168081 0.040015
v -0.256737 0.601547 0.040015
v -0.264030 -0.168081 0.034030
v -0.264030 0.601547 0.034030
v -0.270015 -0.168081 0.026737
v -0.270015 0.601547 0.026737
v -0.274462 -0.168081 0.018417
v -0.274462 0.601547 0.018417
v -0.277201 -0.168081 0.009389
v -0.277201 0.601547 0.009389
v 0.181875 -0.168081 -0.000000
v 0.181875 0.601547 -0.000000
v 0.182799 -0.168081 -0.009389
v 0.182799 0.601547 -0.009389
v 0.185538 -0.168081 -0.018417
v 0.185538 0.601547 -0.018417
v 0.189985 -0.168081 -0.026737
v 0.189985 0.601547 -0.026737
v 0.195970 -0.168081 -0.034030
v 0.195970 0.601547 -0.034030
v 0.203263 -0.168081 -0.040015
v 0.203263 0.601547 -0.040015
v 0.211583 -0.168081 -0.044462
v 0.211583 0.601547 -0.044462
v 0.220611 -0.168081 -0.047201
v 0.220611 0.601547 -0.047201
v 0.230000 -0.168081 -0.048125
v 0.230000 0.601547 -0.048125
v 0.239389 -0.168081 -0.047201
v 0.239389 0.601547 -0.047201
v 0.248417 -0.168081 -0.044462
v 0.248417 0.601547 -0.044462
v 0.256737 -0.168081 -0.040015
v 0.256737 0.601547 -0.040015
v 0.264030 -0.168081 -0.034030
v 0.264030 0.601547 -0.034030
v 0.270015 -0.168081 -0.026737
v 0.270015 0.601547 -0.026737
v 0.274462 -0.168081 -0.018417
v 0.274462 0.601547 -0.018417
v 0.277201 -0.168081 -0.009389
v 0.277201 0.601547 -0.009389
v 0.278125 -0.168081 -0.000000
v 0.278125 0.601547 -0.000000
v 0.277201 -0.168081 0.009389
v 0.277201 0.601547 0.009389
v 0.274462 -0.168081 0.018417
v 0.274462 0.601547 0.018417
v 0.270015 -0.168081 0.026737
v 0.270015 0.601547 0.026737
v 0.264030 -0.168081 0.034030
v 0.264030 0.601547 0.034030
v 0.256737 -0.168081 0.040015
v 0.256737 0.601547 0.040015
v 0.248417 -0.168081 0.044462
v 0.248417 0.601547 0.044462
v 0.239389 -0.168081 0.047201
v 0.239389 0.601547 0.047201
v 0.230000 -0.168081 0.048125
v 0.230000 0.601547 0.048125
v 0.220611 -0.168081 0.047201
v 0.220611 0.601547 0.047201
v 0.211583 -0.168081 0.044462
v 0.211583 0.601547 0.044462
v 0.203263 -0.168081 0.040015
v 0.203263 0.601547 0.040015
v 0.195970 -0.168081 0.034030
v 0.195970 0.601547 0.034030
v 0.189985 -0.168081 0.026737
v 0.189985 0.601547 0.026737
v 0.185538 -0.168081 0.018417
v 0.185538 0.601547 0.018417
v 0.182799 -0.168081 0.009389
v 0.182799 0.601547 0.009389
vn -0.0000 -0.0000 1.0000
vn -1.0000 -0.0000 -0.0000
vn -0.0000 -0.0000 -1.0000
vn 1.0000 -0.0000 -0.0000
vn -0.0000 -1.0000 -0.0000
vn -0.0000 1.0000 -0.0000
vn -0.9581 0.2704 0.0944
vn -0.9213 0.2704 0.2795
vn -0.8491 0.2704 0.4538
vn -0.7442 0.2704 0.6108
vn -0.6108 0.2704 0.7442
vn -0.4538 0.2704 0.8491
vn -0.2795 0.2704 0.9213
vn -0.0944 0.2704 0.9581
vn 0.0944 0.2704 0.9581
vn 0.2795 0.2704 0.9213
vn 0.4538 0.2704 0.8491
vn 0.6108 0.2704 0.7442
vn 0.7442 0.2704 0.6108
vn 0.8491 0.2704 0.4538
vn 0.9213 0.2704 0.2795
vn 0.9581 0.2704 0.0944
vn 0.9581 0.2704 -0.0944
vn 0.9213 0.2704 -0.2795
vn 0.8491 0.2704 -0.4538
vn 0.7442 0.2704 -0.6108
vn 0.6108 0.2704 -0.7442
vn 0.4538 0.2704 -0.8491
vn 0.2795 0.2704 -0.9213
vn 0.0944 0.2704 -0.9581
vn -0.0944 0.2704 -0.9581
vn -0.2795 0.2704 -0.9213
vn -0.4538 0.2704 -0.8491
vn -0.6108 0.2704 -0.7442
vn -0.7442 0.2704 -0.6108
vn -0.8491 0.2704 -0.4538
vn -0.9213 0.2704 -0.2795
vn -0.9581 0.2704 -0.0944
vn 0.9458 -0.3111 -0.0931
vn 0.9094 -0.3111 -0.2759
vn 0.8381 -0.3111 -0.4480
vn 0.7346 -0.3111 -0.6029
vn 0.6029 -0.3111 -0.7346
vn 0.4480 -0.3111 -0.8381
vn 0.2759 -0.3111 -0.9094
vn 0.0931 -0.3111 -0.9458
vn -0.0931 -0.3111 -0.9458
vn -0.2759 -0.3111 -0.9094
vn -0.4480 -0.3111 -0.8381
vn -0.6029 -0.3111 -0.7346
vn -0.7346 -0.3111 -0.6029
vn -0.8381 -0.3111 -0.4480
vn -0.9094 -0.3111 -0.2759
vn -0.9458 -0.3111 -0.0931
vn -0.9458 -0.3111 0.0931
vn -0.9094 -0.3111 0.2759
vn -0.8381 -0.3111 0.4480
vn -0.7346 -0.3111 0.6029
vn -0.6029 -0.3111 0.7346
vn -0.4480 -0.3111 0.8381
vn -0.2759 -0.3111 0.9094
vn -0.0931 -0.3111 0.9458
vn 0.0931 -0.3111 0.9458
vn 0.2759 -0.3111 0.9094
vn 0.4480 -0.3111 0.8381
vn 0.6029 -0.3111 0.7346
vn 0.7346 -0.3111 0.6029
vn 0.8381 -0.3111 0.4480
vn 0.9094 -0.3111 0.2759
vn 0.9458 -0.3111 0.0931
vn -0.0000 0.9952 -0.0980
vn -0.0000 0.9570 -0.2902
vn -0.0000 0.8819 -0.4715
vn -0.0000 0.7730 -0.6344
vn -0.0000 0.6344 -0.7730
vn -0.0000 0.4713 -0.8820
vn -0.0000 0.2903 -0.9569
vn -0.0000 0.0979 -0.9952
vn -0.0000 0.0980 -0.9952
vn -0.0000 -0.0979 -0.9952
vn -0.0000 -0.2903 -0.9569
vn -0.0000 -0.4713 -0.8820
vn -0.0000 -0.6344 -0.7730
vn -0.0000 -0.7730 -0.6344
vn -0.0000 -0.8819 -0.4715
vn -0.0000 -0.9570 -0.2902
vn -0.0000 -0.9952 -0.0980
vn -0.0000 -0.9952 0.0980
vn -0.0000 -0.9570 0.2902
vn -0.0000 -0.8819 0.4715
vn -0.0000 -0.7730 0.6344
vn -0.0000 -0.6344 0.7730
vn -0.0000 -0.4713 0.8820
vn -0.0000 -0.2903 0.9569
vn -0.0000 -0.0979 0.9952
vn -0.0000 0.0980 0.9952
vn -0.0000 0.2903 0.9569
vn -0.0000 0.4713 0.8820
vn -0.0000 0.6344 0.7730
vn -0.0000 0.7730 0.6344
vn -0.0000 0.8819 0.4715
vn -0.0000 0.9570 0.2902
vn -0.0000 0.9952 0.0980
vn -0.9952 -0.0000 -0.0979
vn -0.9569 -0.0000 -0.2903
vn -0.8819 -0.0000 -0.4714
vn -0.7730 -0.0000 -0.6344
vn -0.6344 -0.0000 -0.7730
vn -0.4714 -0.0000 -0.8819
vn -0.2903 -0.0000 -0.9569
vn -0.0979 -0.0000 -0.9952
vn 0.0979 -0.0000 -0.9952
vn 0.2903 -0.0000 -0.9569
vn 0.4714 -0.0000 -0.8819
vn 0.6344 -0.0000 -0.7730
vn 0.7730 -0.0000 -0.6344
vn 0.8819 -0.0000 -0.4714
vn 0.9569 -0.0000 -0.2903
vn 0.9952 -0.0000 -0.0979
vn 0.9952 -0.0000 0.0979
vn 0.9569 -0.0000 0.2903
vn 0.8819 -0.0000 0.4714
vn 0.7730 -0.0000 0.6344
vn 0.6344 -0.0000 0.7730
vn 0.4714 -0.0000 0.8819
vn 0.2903 -0.0000 0.9569
vn 0.0979 -0.0000 0.9952
vn -0.0979 -0.0000 0.9952
vn -0.2903 -0.0000 0.9569
vn -0.4714 -0.0000 0.8819
vn -0.6344 -0.0000 0.7730
vn -0.7730 -0.0000 0.6344
vn -0.8819 -0.0000 0.4714
vn -0.9569 -0.0000 0.2903
vn -0.9952 -0.0000 0.0979
vn -0.0001 1.0000 -0.0000
vn 0.0001 1.0000 -0.0000
vt 0.991673 0.020970
vt 0.824208 0.167724
vt 0.981318 0.010615
vt 0.834563 0.178079
vt 0.667099 0.324834
vt 0.677454 0.335189
vt 0.509989 0.481944
vt 0.499634 0.157369
vt 0.667099 0.010615
vt 0.509989 0.167724
vt 0.720274 0.220900
vt 0.613923 0.114549
vt 0.604571 0.125944
vt 0.991673 0.335189
vt 0.834563 0.492299
vt 0.890661 0.391287
vt 0.778465 0.279091
vt 0.580185 0.625682
vt 0.599121 0.635792
vt 0.584441 0.639796
vt 0.602812 0.650900
vt 0.587940 0.654117
vt 0.590672 0.668603
vt 0.605694 0.666183
vt 0.592628 0.683215
vt 0.607759 0.681598
vt 0.593805 0.697910
vt 0.608999 0.697100
vt 0.594197 0.712647
vt 0.609414 0.712647
vt 0.593805 0.727384
vt 0.608999 0.728194
vt 0.607759 0.743696
vt 0.592628 0.742079
vt 0.590672 0.756691
vt 0.605694 0.759111
vt 0.587940 0.771177
vt 0.602812 0.774394
vt 0.599121 0.789502
vt 0.584441 0.785498
vt 0.594631 0.804392
vt 0.580185 0.799612
vt 0.575183 0.813480
vt 0.589354 0.819022
vt 0.569450 0.827062
vt 0.583307 0.833350
vt 0.563003 0.840320
vt 0.576505 0.847336
vt 0.555859 0.853215
vt 0.568968 0.860940
vt 0.548039 0.865712
vt 0.560719 0.874124
vt 0.539565 0.877775
vt 0.551779 0.886850
vt 0.542174 0.899082
vt 0.530460 0.889370
vt 0.531932 0.910786
vt 0.520752 0.900464
vt 0.510467 0.911025
vt 0.521081 0.921928
vt 0.499634 0.921024
vt 0.509653 0.932476
vt 0.521081 0.503366
vt 0.499634 0.504270
vt 0.509653 0.492818
vt 0.531932 0.514508
vt 0.510467 0.514269
vt 0.530461 0.535924
vt 0.542174 0.526212
vt 0.551779 0.538444
vt 0.560719 0.551170
vt 0.539565 0.547519
vt 0.548039 0.559582
vt 0.568968 0.564354
vt 0.555859 0.572079
vt 0.576505 0.577958
vt 0.563003 0.584974
vt 0.583307 0.591944
vt 0.569450 0.598232
vt 0.589354 0.606272
vt 0.575183 0.611814
vt 0.594631 0.620902
vt 0.486897 0.388951
vt 0.000260 0.499238
vt 0.479231 0.359361
vt 0.469767 0.330295
vt 0.458542 0.301863
vt 0.445596 0.274173
vt 0.430980 0.247326
vt 0.414747 0.221426
vt 0.396958 0.196567
vt 0.377681 0.172845
vt 0.356987 0.150347
vt 0.334955 0.129159
vt 0.311667 0.109360
vt 0.287210 0.091023
vt 0.261676 0.074219
vt 0.235161 0.059010
vt 0.207764 0.045452
vt 0.179589 0.033598
vt 0.150741 0.023491
vt 0.121328 0.015170
vt 0.091461 0.008665
vt 0.061251 0.004001
vt 0.030813 0.001196
vt 0.000260 0.000260
vt 0.461801 0.688865
vt 0.472546 0.660249
vt 0.481519 0.631028
vt 0.488686 0.601312
vt 0.494019 0.571214
vt 0.497500 0.540845
vt 0.499115 0.510321
vt 0.498857 0.479754
vt 0.496729 0.449261
vt 0.140154 0.999741
vt 0.000260 0.829279
vt 0.170721 0.689384
vt 0.492737 0.418955
vt 0.466624 0.980604
vt 0.461765 0.689384
vt 0.466624 0.689384
vt 0.461765 0.980604
vt 0.456906 0.689384
vt 0.456906 0.980604
vt 0.452047 0.689384
vt 0.452047 0.980604
vt 0.447188 0.689384
vt 0.447188 0.980604
vt 0.442329 0.689384
vt 0.442329 0.980604
vt 0.437470 0.689384
vt 0.437470 0.980604
vt 0.432611 0.689384
vt 0.432611 0.980604
vt 0.427752 0.689384
vt 0.427752 0.980604
vt 0.422893 0.689384
vt 0.422893 0.980604
vt 0.418034 0.689384
vt 0.418034 0.980604
vt 0.413175 0.689384
vt 0.413175 0.980604
vt 0.408316 0.689384
vt 0.408316 0.980604
vt 0.403457 0.689384
vt 0.403457 0.980604
vt 0.398597 0.689384
vt 0.398598 0.980604
vt 0.393738 0.689384
vt 0.393738 0.980604
vt 0.388879 0.689384
vt 0.388879 0.980604
vt 0.384020 0.689384
vt 0.384020 0.980604
vt 0.379161 0.689384
vt 0.379161 0.980604
vt 0.374302 0.689384
vt 0.374302 0.980604
vt 0.369443 0.689384
vt 0.369443 0.980604
vt 0.364584 0.689384
vt 0.364584 0.980604
vt 0.359725 0.689384
vt 0.359725 0.980604
vt 0.354866 0.689384
vt 0.354866 0.980604
vt 0.350007 0.689384
vt 0.350007 0.980604
vt 0.345148 0.689384
vt 0.345148 0.980604
vt 0.340289 0.689384
vt 0.340289 0.980604
vt 0.335430 0.689384
vt 0.335430 0.980604
vt 0.330571 0.689384
vt 0.330571 0.980604
vt 0.325712 0.689384
vt 0.320853 0.980604
vt 0.320853 0.689384
vt 0.760442 0.878579
vt 0.791357 0.862055
vt 0.807881 0.892970
vt 0.315994 0.689384
vt 0.315994 0.980604
vt 0.311135 0.689384
vt 0.750032 0.904935
vt 0.731878 0.910442
vt 0.709640 0.883345
vt 0.726550 0.860588
vt 0.721691 0.492818
vt 0.726550 0.492818
vt 0.721691 0.860588
vt 0.716832 0.492818
vt 0.716832 0.860588
vt 0.711973 0.492818
vt 0.711973 0.860588
vt 0.707114 0.492818
vt 0.707114 0.860588
vt 0.702255 0.492818
vt 0.702254 0.860588
vt 0.697396 0.492818
vt 0.697395 0.860588
vt 0.692536 0.492818
vt 0.692536 0.860588
vt 0.687677 0.492818
vt 0.687677 0.860588
vt 0.682818 0.492818
vt 0.682818 0.860588
vt 0.677959 0.492818
vt 0.677959 0.860588
vt 0.673100 0.492818
vt 0.673100 0.860588
vt 0.668241 0.492818
vt 0.668241 0.860588
vt 0.663382 0.492818
vt 0.663382 0.860588
vt 0.658523 0.492818
vt 0.658523 0.860588
vt 0.653664 0.492818
vt 0.653664 0.860588
vt 0.648805 0.492818
vt 0.648805 0.860588
vt 0.643946 0.492818
vt 0.643946 0.860588
vt 0.639087 0.492818
vt 0.639087 0.860588
vt 0.634228 0.492818
vt 0.634228 0.860588
vt 0.629369 0.492818
vt 0.629369 0.860588
vt 0.624510 0.492818
vt 0.624510 0.860588
vt 0.619651 0.492818
vt 0.619651 0.860588
vt 0.614792 0.492818
vt 0.614792 0.860588
vt 0.609933 0.492818
vt 0.765422 0.860588
vt 0.760563 0.492818
vt 0.765422 0.492818
vt 0.760563 0.860588
vt 0.755704 0.492818
vt 0.755704 0.860588
vt 0.750845 0.492818
vt 0.750845 0.860588
vt 0.745986 0.492818
vt 0.745986 0.860588
vt 0.741127 0.492818
vt 0.741127 0.860588
vt 0.736268 0.492818
vt 0.845699 0.907635
vt 0.812155 0.897459
vt 0.822331 0.863915
vt 0.736268 0.860588
vt 0.731409 0.492818
vt 0.731409 0.860588
vt 0.632170 0.910442
vt 0.615440 0.901499
vt 0.609933 0.883345
vt 0.882558 0.860588
vt 0.877699 0.492818
vt 0.882558 0.492818
vt 0.877699 0.860588
vt 0.872840 0.492818
vt 0.872840 0.860588
vt 0.867981 0.492818
vt 0.867981 0.860588
vt 0.863122 0.492818
vt 0.863122 0.860588
vt 0.858263 0.492818
vt 0.858263 0.860588
vt 0.853404 0.492818
vt 0.853404 0.860588
vt 0.848545 0.492818
vt 0.848545 0.860588
vt 0.843686 0.492818
vt 0.843686 0.860588
vt 0.838827 0.492818
vt 0.838827 0.860588
vt 0.833968 0.492818
vt 0.833968 0.860588
vt 0.829109 0.492818
vt 0.829109 0.860588
vt 0.824250 0.492818
vt 0.824250 0.860588
vt 0.819391 0.492818
vt 0.819391 0.860588
vt 0.814532 0.492818
vt 0.814532 0.860588
vt 0.809673 0.492818
vt 0.809673 0.860588
vt 0.804814 0.492818
vt 0.804814 0.860588
vt 0.799955 0.492818
vt 0.799955 0.860588
vt 0.795096 0.492818
vt 0.795096 0.860588
vt 0.790236 0.492818
vt 0.790236 0.860588
vt 0.785377 0.492818
vt 0.785377 0.860588
vt 0.780518 0.492818
vt 0.780518 0.860588
vt 0.775659 0.492818
vt 0.775659 0.860588
vt 0.770800 0.492818
vt 0.770800 0.860588
vt 0.765941 0.492818
vt 0.921431 0.860588
vt 0.916572 0.492818
vt 0.921431 0.492818
vt 0.916572 0.860588
vt 0.911713 0.492818
vt 0.911713 0.860588
vt 0.906854 0.492818
vt 0.906854 0.860588
vt 0.901995 0.492818
vt 0.901995 0.860588
vt 0.897135 0.492818
vt 0.897135 0.860588
vt 0.892276 0.492818
vt 0.895553 0.907635
vt 0.862009 0.897459
vt 0.872184 0.863915
vt 0.892276 0.860588
vt 0.887417 0.492818
vt 0.887417 0.860588
vt 0.682024 0.910442
vt 0.665293 0.901499
vt 0.659786 0.883345
vt 0.520344 0.492299
vt 0.656744 0.000260
vt 0.681770 0.093968
vt 0.667099 0.092523
vt 0.591897 0.167724
vt 0.593342 0.182395
vt 0.597621 0.196503
vt 0.695877 0.098247
vt 0.708878 0.105196
vt 0.604571 0.209504
vt 0.613923 0.220900
vt 0.720274 0.114549
vt 0.625319 0.230252
vt 0.729626 0.125945
vt 0.736576 0.138946
vt 0.638320 0.237201
vt 0.652427 0.241481
vt 0.740855 0.153053
vt 0.742300 0.167724
vt 0.667099 0.242926
vt 0.681770 0.241481
vt 0.740855 0.182395
vt 0.736576 0.196503
vt 0.695877 0.237201
vt 0.708878 0.230252
vt 0.729626 0.209504
vt 0.652427 0.093968
vt 0.638320 0.098247
vt 0.593342 0.153053
vt 0.597621 0.138946
vt 0.625319 0.105196
vt 0.912374 0.350667
vt 0.913898 0.335189
vt 0.834563 0.414524
vt 0.850041 0.412999
vt 0.864923 0.408485
vt 0.907859 0.365549
vt 0.900528 0.379265
vt 0.878639 0.401153
vt 0.819086 0.412999
vt 0.912374 0.319712
vt 0.907859 0.304829
vt 0.804203 0.408485
vt 0.790488 0.401153
vt 0.900528 0.291113
vt 0.890661 0.279091
vt 0.778465 0.391287
vt 0.878639 0.269225
vt 0.768599 0.379265
vt 0.761268 0.365549
vt 0.864923 0.261894
vt 0.850041 0.257379
vt 0.756753 0.350666
vt 0.755229 0.335189
vt 0.834563 0.255855
vt 0.819086 0.257379
vt 0.756753 0.319712
vt 0.761268 0.304829
vt 0.804203 0.261893
vt 0.790488 0.269225
vt 0.768599 0.291113
vt 0.520752 0.524830
vt 0.200701 0.695348
vt 0.275972 0.745642
vt 0.228942 0.707045
vt 0.254358 0.724028
vt 0.292955 0.771058
vt 0.304652 0.799299
vt 0.310616 0.829279
vt 0.310616 0.859846
vt 0.304652 0.889826
vt 0.254358 0.965097
vt 0.292955 0.918067
vt 0.275972 0.943483
vt 0.228942 0.982079
vt 0.200701 0.993777
vt 0.170721 0.999741
vt 0.110174 0.993777
vt 0.034903 0.943483
vt 0.081933 0.982079
vt 0.056517 0.965097
vt 0.017921 0.918067
vt 0.006223 0.889826
vt 0.000259 0.859846
vt 0.006223 0.799299
vt 0.056517 0.724028
vt 0.017921 0.771058
vt 0.034903 0.745642
vt 0.081933 0.707045
vt 0.110174 0.695348
vt 0.140154 0.689384
vt 0.325712 0.980604
vt 0.776966 0.909494
vt 0.772477 0.907635
vt 0.768437 0.904935
vt 0.765001 0.901499
vt 0.762301 0.897459
vt 0.760442 0.892970
vt 0.759494 0.888204
vt 0.759494 0.883345
vt 0.762301 0.874090
vt 0.765001 0.870050
vt 0.768437 0.866614
vt 0.772477 0.863915
vt 0.776966 0.862055
vt 0.781732 0.861107
vt 0.786591 0.861107
vt 0.795846 0.863915
vt 0.799886 0.866614
vt 0.803322 0.870050
vt 0.806021 0.874090
vt 0.807881 0.878579
vt 0.808829 0.883345
vt 0.808829 0.888204
vt 0.806021 0.897459
vt 0.803322 0.901499
vt 0.799886 0.904935
vt 0.795846 0.907635
vt 0.791357 0.909494
vt 0.786591 0.910442
vt 0.781732 0.910442
vt 0.311135 0.980604
vt 0.710588 0.878579
vt 0.712448 0.874090
vt 0.715147 0.870050
vt 0.718583 0.866614
vt 0.722623 0.863915
vt 0.727112 0.862055
vt 0.731878 0.861107
vt 0.736737 0.861107
vt 0.741503 0.862055
vt 0.753468 0.870050
vt 0.745992 0.863915
vt 0.750032 0.866614
vt 0.756168 0.874090
vt 0.758027 0.878579
vt 0.758975 0.883345
vt 0.758975 0.888204
vt 0.758027 0.892970
vt 0.756168 0.897459
vt 0.753468 0.901499
vt 0.745992 0.907635
vt 0.741503 0.909494
vt 0.736737 0.910442
vt 0.727112 0.909494
vt 0.715147 0.901499
vt 0.722623 0.907635
vt 0.718583 0.904935
vt 0.712448 0.897459
vt 0.710588 0.892970
vt 0.709640 0.888204
vt 0.609933 0.860588
vt 0.855875 0.874090
vt 0.857735 0.878579
vt 0.858682 0.883345
vt 0.858682 0.888204
vt 0.857734 0.892970
vt 0.855875 0.897459
vt 0.853175 0.901499
vt 0.849740 0.904935
vt 0.841210 0.909494
vt 0.836445 0.910442
vt 0.831585 0.910442
vt 0.826820 0.909494
vt 0.822331 0.907635
vt 0.818291 0.904935
vt 0.814855 0.901499
vt 0.810296 0.892970
vt 0.809348 0.888204
vt 0.809348 0.883345
vt 0.810296 0.878579
vt 0.812155 0.874090
vt 0.814855 0.870050
vt 0.818291 0.866614
vt 0.826820 0.862055
vt 0.831586 0.861107
vt 0.836445 0.861107
vt 0.841210 0.862055
vt 0.845699 0.863915
vt 0.849740 0.866614
vt 0.853175 0.870050
vt 0.610881 0.878579
vt 0.618875 0.866614
vt 0.612740 0.874090
vt 0.615440 0.870050
vt 0.622916 0.863915
vt 0.627405 0.862055
vt 0.632170 0.861107
vt 0.637029 0.861107
vt 0.641795 0.862055
vt 0.653760 0.870050
vt 0.646284 0.863915
vt 0.650324 0.866614
vt 0.656460 0.874090
vt 0.658319 0.878579
vt 0.659267 0.883345
vt 0.659267 0.888204
vt 0.658319 0.892970
vt 0.650324 0.904935
vt 0.656460 0.897459
vt 0.653760 0.901499
vt 0.646284 0.907635
vt 0.641795 0.909494
vt 0.637029 0.910442
vt 0.627405 0.909494
vt 0.622916 0.907635
vt 0.618875 0.904935
vt 0.612740 0.897459
vt 0.610881 0.892970
vt 0.609933 0.888204
vt 0.765941 0.860588
vt 0.905729 0.874090
vt 0.907588 0.878579
vt 0.908536 0.883345
vt 0.908536 0.888204
vt 0.907588 0.892970
vt 0.905729 0.897459
vt 0.903029 0.901499
vt 0.899593 0.904935
vt 0.891064 0.909494
vt 0.886298 0.910442
vt 0.881439 0.910442
vt 0.876673 0.909494
vt 0.872184 0.907634
vt 0.868144 0.904935
vt 0.864708 0.901499
vt 0.860149 0.892970
vt 0.859201 0.888204
vt 0.859201 0.883345
vt 0.860149 0.878579
vt 0.862009 0.874090
vt 0.864708 0.870050
vt 0.868144 0.866614
vt 0.876674 0.862055
vt 0.881439 0.861107
vt 0.886298 0.861107
vt 0.891064 0.862055
vt 0.895553 0.863915
vt 0.899593 0.866614
vt 0.903029 0.870050
vt 0.660734 0.878579
vt 0.668729 0.866614
vt 0.662594 0.874090
vt 0.665293 0.870050
vt 0.672769 0.863915
vt 0.677258 0.862055
vt 0.682024 0.861107
vt 0.686883 0.861107
vt 0.691649 0.862055
vt 0.703614 0.870050
vt 0.696138 0.863915
vt 0.700178 0.866614
vt 0.706314 0.874090
vt 0.708173 0.878579
vt 0.709121 0.883345
vt 0.709121 0.888204
vt 0.708173 0.892970
vt 0.700178 0.904935
vt 0.706314 0.897459
vt 0.703614 0.901499
vt 0.696138 0.907635
vt 0.691649 0.909494
vt 0.686883 0.910442
vt 0.677259 0.909494
vt 0.672769 0.907635
vt 0.668729 0.904935
vt 0.662594 0.897459
vt 0.660734 0.892970
vt 0.659786 0.888204
s 1
usemtl マテリアル.004
f 2/1/1 3/2/1 1/3/1
f 4/4/2 7/5/2 3/2/2
f 8/6/3 5/7/3 7/5/3
f 6/8/4 1/9/4 5/10/4
f 3/2/5 7/5/5 15/11/5
f 37/12/5 35/13/5 5/10/5
f 2/14/6 6/15/6 60/16/6
f 8/6/6 4/4/6 54/17/6
f 37/18/7 61/19/7 35/20/7
f 35/20/8 62/21/8 34/22/8
f 36/23/9 62/21/9 72/24/9
f 33/25/10 72/24/10 65/26/10
f 16/27/11 65/26/11 63/28/11
f 17/29/12 63/28/12 64/30/12
f 19/31/13 64/30/13 67/32/13
f 19/31/14 69/33/14 18/34/14
f 20/35/15 69/33/15 68/36/15
f 21/37/16 68/36/16 66/38/16
f 21/37/17 70/39/17 22/40/17
f 22/40/18 71/41/18 23/42/18
f 12/43/19 71/41/19 51/44/19
f 13/45/20 51/44/20 53/46/20
f 14/47/21 53/46/21 52/48/21
f 15/49/22 52/48/22 54/50/22
f 11/51/23 54/50/23 48/52/23
f 9/53/24 48/52/24 49/54/24
f 50/55/25 9/53/25 49/54/25
f 10/56/26 55/57/26 32/58/26
f 31/59/27 55/57/27 47/60/27
f 30/61/28 47/60/28 46/62/28
f 43/63/29 30/64/29 46/65/29
f 41/66/30 26/67/30 43/63/30
f 25/68/31 41/66/31 42/69/31
f 45/70/32 25/68/32 42/69/32
f 44/71/33 27/72/33 45/70/33
f 28/73/34 58/74/34 29/75/34
f 29/75/35 57/76/35 40/77/35
f 40/77/36 56/78/36 39/79/36
f 39/79/37 59/80/37 38/81/37
f 38/81/38 60/82/38 37/18/38
f 73/83/39 105/84/39 74/85/39
f 74/85/40 105/84/40 75/86/40
f 75/86/41 105/84/41 76/87/41
f 76/87/42 105/84/42 77/88/42
f 77/88/43 105/84/43 78/89/43
f 78/89/44 105/84/44 79/90/44
f 79/90/45 105/84/45 80/91/45
f 80/91/46 105/84/46 81/92/46
f 81/92/47 105/84/47 82/93/47
f 82/93/48 105/84/48 83/94/48
f 83/94/49 105/84/49 84/95/49
f 84/95/50 105/84/50 85/96/50
f 85/96/51 105/84/51 86/97/51
f 86/97/52 105/84/52 87/98/52
f 87/98/53 105/84/53 88/99/53
f 88/99/54 105/84/54 89/100/54
f 89/100/55 105/84/55 90/101/55
f 90/101/56 105/84/56 91/102/56
f 91/102/57 105/84/57 92/103/57
f 92/103/58 105/84/58 93/104/58
f 93/104/59 105/84/59 94/105/59
f 94/105/60 105/84/60 95/106/60
f 95/107/61 105/84/61 96/108/61
f 96/108/62 105/84/62 97/109/62
f 97/109/63 105/84/63 98/110/63
f 98/110/64 105/84/64 99/111/64
f 99/111/65 105/84/65 100/112/65
f 100/112/66 105/84/66 101/113/66
f 101/113/67 105/84/67 102/114/67
f 102/114/68 105/84/68 103/115/68
f 88/116/6 96/117/6 104/118/6
f 103/115/69 105/84/69 104/119/69
f 104/119/70 105/84/70 73/83/70
f 107/120/71 108/121/71 106/122/71
f 109/123/72 110/124/72 108/121/72
f 111/125/73 112/126/73 110/124/73
f 113/127/74 114/128/74 112/126/74
f 115/129/75 116/130/75 114/128/75
f 117/131/76 118/132/76 116/130/76
f 119/133/77 120/134/77 118/132/77
f 121/135/78 122/136/79 120/134/79
f 123/137/80 124/138/80 122/136/80
f 125/139/81 126/140/81 124/138/81
f 127/141/82 128/142/82 126/140/82
f 129/143/83 130/144/83 128/142/83
f 131/145/84 132/146/84 130/144/84
f 133/147/85 134/148/85 132/146/85
f 135/149/86 136/150/86 134/148/86
f 137/151/87 138/152/87 136/150/87
f 139/153/88 140/154/88 138/152/88
f 141/155/89 142/156/89 140/154/89
f 143/157/90 144/158/90 142/156/90
f 145/159/91 146/160/91 144/158/91
f 147/161/92 148/162/92 146/160/92
f 149/163/93 150/164/93 148/162/93
f 151/165/94 152/166/94 150/164/94
f 153/167/95 154/168/95 152/166/95
f 155/169/96 156/170/96 154/168/96
f 157/171/97 158/172/97 156/170/97
f 159/173/98 160/174/98 158/172/98
f 161/175/99 162/176/99 160/174/99
f 163/177/100 164/178/100 162/176/100
f 164/178/101 167/179/101 166/180/101
f 159/181/4 143/182/4 127/183/4
f 167/179/102 168/184/102 166/180/102
f 169/185/103 106/186/103 168/184/103
f 144/187/2 152/188/2 168/189/2
f 171/190/104 172/191/104 170/192/104
f 173/193/105 174/194/105 172/191/105
f 175/195/106 176/196/106 174/194/106
f 177/197/107 178/198/107 176/196/107
f 179/199/108 180/200/108 178/198/108
f 181/201/109 182/202/109 180/200/109
f 183/203/110 184/204/110 182/202/110
f 185/205/111 186/206/111 184/204/111
f 187/207/112 188/208/112 186/206/112
f 189/209/113 190/210/113 188/208/113
f 191/211/114 192/212/114 190/210/114
f 193/213/115 194/214/115 192/212/115
f 195/215/116 196/216/116 194/214/116
f 197/217/117 198/218/117 196/216/117
f 199/219/118 200/220/118 198/218/118
f 201/221/119 202/222/119 200/220/119
f 203/223/120 204/224/120 202/222/120
f 205/225/121 206/226/121 204/224/121
f 207/227/122 208/228/122 206/226/122
f 209/229/123 210/230/123 208/228/123
f 211/231/124 212/232/124 210/230/124
f 213/233/125 214/234/125 212/232/125
f 215/235/126 216/236/126 214/234/126
f 217/237/127 218/238/127 216/236/127
f 219/239/128 220/240/128 218/241/128
f 221/242/129 222/243/129 220/240/129
f 223/244/130 224/245/130 222/243/130
f 225/246/131 226/247/131 224/245/131
f 227/248/132 228/249/132 226/247/132
f 229/250/133 230/251/133 228/249/133
f 223/252/6 207/253/6 191/254/6
f 231/255/134 232/256/134 230/251/134
f 233/257/135 170/192/135 232/256/135
f 216/258/5 224/259/5 232/260/5
f 235/261/104 236/262/104 234/263/104
f 237/264/105 238/265/105 236/262/105
f 239/266/106 240/267/106 238/265/106
f 241/268/107 242/269/107 240/267/107
f 243/270/108 244/271/108 242/269/108
f 245/272/109 246/273/109 244/271/109
f 247/274/110 248/275/110 246/273/110
f 249/276/111 250/277/111 248/275/111
f 251/278/112 252/279/112 250/277/112
f 253/280/113 254/281/113 252/279/113
f 255/282/114 256/283/114 254/281/114
f 257/284/115 258/285/115 256/283/115
f 259/286/116 260/287/116 258/285/116
f 261/288/117 262/289/117 260/287/117
f 263/290/118 264/291/118 262/289/118
f 265/292/119 266/293/119 264/291/119
f 267/294/120 268/295/120 266/293/120
f 269/296/121 270/297/121 268/295/121
f 271/298/122 272/299/122 270/297/122
f 273/300/123 274/301/123 272/299/123
f 275/302/124 276/303/124 274/301/124
f 277/304/125 278/305/125 276/303/125
f 279/306/126 280/307/126 278/305/126
f 281/308/127 282/309/127 280/307/127
f 283/310/128 284/311/128 282/312/128
f 285/313/129 286/314/129 284/311/129
f 287/315/130 288/316/130 286/314/130
f 289/317/131 290/318/131 288/316/131
f 291/319/132 292/320/132 290/318/132
f 293/321/133 294/322/133 292/320/133
f 287/323/6 271/324/6 255/325/6
f 295/326/134 296/327/134 294/322/134
f 297/328/135 234/263/135 296/327/135
f 280/329/5 288/330/5 296/331/5
f 2/1/1 4/4/1 3/2/1
f 4/4/2 8/6/2 7/5/2
f 8/6/3 6/332/3 5/7/3
f 6/8/4 2/333/4 1/9/4
f 28/334/5 29/335/5 1/9/5
f 5/10/5 33/336/5 16/337/5
f 5/10/5 16/337/5 17/338/5
f 27/339/5 28/334/5 1/9/5
f 25/340/5 27/339/5 1/9/5
f 5/10/5 17/338/5 19/341/5
f 5/10/5 19/341/5 18/342/5
f 25/340/5 1/9/5 24/343/5
f 1/9/5 3/2/5 24/343/5
f 7/5/5 5/10/5 18/342/5
f 7/5/5 18/342/5 20/344/5
f 26/345/5 24/343/5 3/2/5
f 30/346/5 26/345/5 3/2/5
f 7/5/5 20/344/5 21/347/5
f 7/5/5 21/347/5 22/348/5
f 31/349/5 30/346/5 3/2/5
f 32/350/5 31/349/5 3/2/5
f 7/5/5 22/348/5 23/351/5
f 7/5/5 23/351/5 12/352/5
f 10/353/5 32/350/5 3/2/5
f 9/354/5 10/353/5 3/2/5
f 7/5/5 12/352/5 13/355/5
f 7/5/5 13/355/5 14/356/5
f 11/357/5 9/354/5 3/2/5
f 7/5/5 14/356/5 15/11/5
f 15/11/5 11/357/5 3/2/5
f 1/9/5 29/335/5 40/358/5
f 1/9/5 40/358/5 39/359/5
f 36/360/5 33/336/5 5/10/5
f 34/361/5 36/360/5 5/10/5
f 1/9/5 39/359/5 38/362/5
f 1/9/5 38/362/5 37/12/5
f 35/13/5 34/361/5 5/10/5
f 1/9/5 37/12/5 5/10/5
f 57/363/6 58/364/6 2/14/6
f 6/15/6 65/365/6 72/366/6
f 6/15/6 72/366/6 62/367/6
f 56/368/6 57/363/6 2/14/6
f 59/369/6 56/368/6 2/14/6
f 6/15/6 62/367/6 61/370/6
f 60/16/6 59/369/6 2/14/6
f 6/15/6 61/370/6 60/16/6
f 63/371/6 65/365/6 6/15/6
f 2/14/6 58/364/6 44/372/6
f 2/14/6 44/372/6 45/373/6
f 64/374/6 63/371/6 6/15/6
f 67/375/6 64/374/6 6/15/6
f 2/14/6 45/373/6 42/376/6
f 2/14/6 42/376/6 41/377/6
f 67/375/6 6/15/6 69/378/6
f 6/15/6 8/6/6 69/378/6
f 4/4/6 2/14/6 41/377/6
f 4/4/6 41/377/6 43/379/6
f 68/380/6 69/378/6 8/6/6
f 66/381/6 68/380/6 8/6/6
f 4/4/6 43/379/6 46/382/6
f 4/4/6 46/382/6 47/383/6
f 70/384/6 66/381/6 8/6/6
f 71/385/6 70/384/6 8/6/6
f 4/4/6 47/383/6 55/386/6
f 4/4/6 55/386/6 50/387/6
f 51/388/6 71/385/6 8/6/6
f 53/389/6 51/388/6 8/6/6
f 4/4/6 50/387/6 49/390/6
f 4/4/6 49/390/6 48/391/6
f 52/392/6 53/389/6 8/6/6
f 4/4/6 48/391/6 54/17/6
f 54/17/6 52/392/6 8/6/6
f 37/18/7 60/82/7 61/19/7
f 35/20/8 61/19/8 62/21/8
f 36/23/9 34/22/9 62/21/9
f 33/25/10 36/23/10 72/24/10
f 16/27/11 33/25/11 65/26/11
f 17/29/12 16/27/12 63/28/12
f 19/31/13 17/29/13 64/30/13
f 19/31/14 67/32/14 69/33/14
f 20/35/15 18/34/15 69/33/15
f 21/37/16 20/35/16 68/36/16
f 21/37/17 66/38/17 70/39/17
f 22/40/18 70/39/18 71/41/18
f 12/43/19 23/42/19 71/41/19
f 13/45/20 12/43/20 51/44/20
f 14/47/21 13/45/21 53/46/21
f 15/49/22 14/47/22 52/48/22
f 11/51/23 15/49/23 54/50/23
f 9/53/24 11/51/24 48/52/24
f 50/55/25 10/56/25 9/53/25
f 10/56/26 50/55/26 55/57/26
f 31/59/27 32/58/27 55/57/27
f 30/61/28 31/59/28 47/60/28
f 43/63/29 26/67/29 30/64/29
f 41/66/30 24/393/30 26/67/30
f 25/68/31 24/393/31 41/66/31
f 45/70/32 27/72/32 25/68/32
f 44/71/33 28/73/33 27/72/33
f 28/73/34 44/71/34 58/74/34
f 29/75/35 58/74/35 57/76/35
f 40/77/36 57/76/36 56/78/36
f 39/79/37 56/78/37 59/80/37
f 38/81/38 59/80/38 60/82/38
f 104/118/6 73/394/6 76/395/6
f 73/394/6 74/396/6 76/395/6
f 74/396/6 75/397/6 76/395/6
f 76/395/6 77/398/6 78/399/6
f 78/399/6 79/400/6 80/401/6
f 80/401/6 81/402/6 84/403/6
f 81/402/6 82/404/6 84/403/6
f 82/404/6 83/405/6 84/403/6
f 84/403/6 85/406/6 88/116/6
f 85/406/6 86/407/6 88/116/6
f 86/407/6 87/408/6 88/116/6
f 88/116/6 89/409/6 92/410/6
f 89/409/6 90/411/6 92/410/6
f 90/411/6 91/412/6 92/410/6
f 92/410/6 93/413/6 96/117/6
f 93/413/6 94/414/6 96/117/6
f 94/414/6 95/415/6 96/117/6
f 96/117/6 97/416/6 100/417/6
f 97/416/6 98/418/6 100/417/6
f 98/418/6 99/419/6 100/417/6
f 100/417/6 101/420/6 102/421/6
f 102/421/6 103/422/6 104/118/6
f 76/395/6 78/399/6 80/401/6
f 100/417/6 102/421/6 104/118/6
f 104/118/6 76/395/6 80/401/6
f 80/401/6 84/403/6 88/116/6
f 88/116/6 92/410/6 96/117/6
f 96/117/6 100/417/6 104/118/6
f 104/118/6 80/401/6 88/116/6
f 107/120/71 109/123/71 108/121/71
f 109/123/72 111/125/72 110/124/72
f 111/125/73 113/127/73 112/126/73
f 113/127/74 115/129/74 114/128/74
f 115/129/75 117/131/75 116/130/75
f 117/131/76 119/133/76 118/132/76
f 119/133/77 121/135/77 120/134/77
f 121/135/78 123/137/78 122/136/79
f 123/137/80 125/139/80 124/138/80
f 125/139/81 127/141/81 126/140/81
f 127/141/82 129/143/82 128/142/82
f 129/143/83 131/145/83 130/144/83
f 131/145/84 133/147/84 132/146/84
f 133/147/85 135/149/85 134/148/85
f 135/149/86 137/151/86 136/150/86
f 137/151/87 139/153/87 138/152/87
f 139/153/88 141/155/88 140/154/88
f 141/155/89 143/157/89 142/156/89
f 143/157/90 145/159/90 144/158/90
f 145/159/91 147/161/91 146/160/91
f 147/161/92 149/163/92 148/162/92
f 149/163/93 151/165/93 150/164/93
f 151/165/94 153/167/94 152/166/94
f 153/167/95 155/169/95 154/168/95
f 155/169/96 157/171/96 156/170/96
f 157/171/97 159/173/97 158/172/97
f 159/173/98 161/175/98 160/174/98
f 161/175/99 163/177/99 162/176/99
f 163/177/100 165/423/100 164/178/100
f 164/178/101 165/423/101 167/179/101
f 111/424/4 109/425/4 107/426/4
f 107/426/4 169/427/4 167/428/4
f 167/428/4 165/429/4 159/181/4
f 165/429/4 163/430/4 159/181/4
f 163/430/4 161/431/4 159/181/4
f 159/181/4 157/432/4 155/433/4
f 155/433/4 153/434/4 151/435/4
f 151/435/4 149/436/4 147/437/4
f 147/437/4 145/438/4 151/435/4
f 145/438/4 143/182/4 151/435/4
f 143/182/4 141/439/4 139/440/4
f 139/440/4 137/441/4 135/442/4
f 135/442/4 133/443/4 127/183/4
f 133/443/4 131/444/4 127/183/4
f 131/444/4 129/445/4 127/183/4
f 127/183/4 125/446/4 123/447/4
f 123/447/4 121/448/4 119/449/4
f 119/449/4 117/450/4 115/451/4
f 115/451/4 113/452/4 119/449/4
f 113/452/4 111/424/4 119/449/4
f 111/424/4 107/426/4 159/181/4
f 107/426/4 167/428/4 159/181/4
f 159/181/4 155/433/4 143/182/4
f 155/433/4 151/435/4 143/182/4
f 143/182/4 139/440/4 127/183/4
f 139/440/4 135/442/4 127/183/4
f 127/183/4 123/447/4 111/424/4
f 123/447/4 119/449/4 111/424/4
f 111/424/4 159/181/4 127/183/4
f 167/179/102 169/185/102 168/184/102
f 169/185/103 107/453/103 106/186/103
f 168/189/2 106/454/2 108/455/2
f 108/455/2 110/456/2 112/457/2
f 112/457/2 114/458/2 116/459/2
f 116/459/2 118/460/2 112/457/2
f 118/460/2 120/461/2 112/457/2
f 120/461/2 122/462/2 128/463/2
f 122/462/2 124/464/2 128/463/2
f 124/464/2 126/465/2 128/463/2
f 128/463/2 130/466/2 132/467/2
f 132/467/2 134/468/2 136/469/2
f 136/469/2 138/470/2 140/471/2
f 140/471/2 142/472/2 144/187/2
f 144/187/2 146/473/2 148/474/2
f 148/474/2 150/475/2 144/187/2
f 150/475/2 152/188/2 144/187/2
f 152/188/2 154/476/2 160/477/2
f 154/476/2 156/478/2 160/477/2
f 156/478/2 158/479/2 160/477/2
f 160/477/2 162/480/2 164/481/2
f 164/481/2 166/482/2 168/189/2
f 168/189/2 108/455/2 112/457/2
f 128/463/2 132/467/2 120/461/2
f 132/467/2 136/469/2 120/461/2
f 136/469/2 140/471/2 144/187/2
f 160/477/2 164/481/2 152/188/2
f 164/481/2 168/189/2 152/188/2
f 168/189/2 112/457/2 136/469/2
f 112/457/2 120/461/2 136/469/2
f 136/469/2 144/187/2 168/189/2
f 171/190/104 173/193/104 172/191/104
f 173/193/105 175/195/105 174/194/105
f 175/195/106 177/197/106 176/196/106
f 177/197/107 179/199/107 178/198/107
f 179/199/108 181/201/108 180/200/108
f 181/201/109 183/203/109 182/202/109
f 183/203/110 185/205/110 184/204/110
f 185/205/111 187/207/111 186/206/111
f 187/207/112 189/209/112 188/208/112
f 189/209/113 191/211/113 190/210/113
f 191/211/114 193/213/114 192/212/114
f 193/213/115 195/215/115 194/214/115
f 195/215/116 197/217/116 196/216/116
f 197/217/117 199/219/117 198/218/117
f 199/219/118 201/221/118 200/220/118
f 201/221/119 203/223/119 202/222/119
f 203/223/120 205/225/120 204/224/120
f 205/225/121 207/227/121 206/226/121
f 207/227/122 209/229/122 208/228/122
f 209/229/123 211/231/123 210/230/123
f 211/231/124 213/233/124 212/232/124
f 213/233/125 215/235/125 214/234/125
f 215/235/126 217/237/126 216/236/126
f 217/237/127 219/483/127 218/238/127
f 219/239/128 221/242/128 220/240/128
f 221/242/129 223/244/129 222/243/129
f 223/244/130 225/246/130 224/245/130
f 225/246/131 227/248/131 226/247/131
f 227/248/132 229/250/132 228/249/132
f 229/250/133 231/255/133 230/251/133
f 175/484/6 173/485/136 171/486/6
f 171/486/6 233/487/137 231/488/6
f 231/488/6 229/489/6 227/490/6
f 227/490/6 225/491/6 231/488/6
f 225/491/6 223/252/6 231/488/6
f 223/252/6 221/492/6 219/493/6
f 219/493/6 217/494/6 215/495/6
f 215/495/6 213/496/6 211/497/6
f 211/497/6 209/498/6 215/495/6
f 209/498/6 207/253/6 215/495/6
f 207/253/6 205/499/137 203/500/6
f 203/500/6 201/501/6 199/502/6
f 199/502/6 197/503/6 191/254/6
f 197/503/6 195/504/6 191/254/6
f 195/504/6 193/505/6 191/254/6
f 191/254/6 189/506/6 187/507/6
f 187/507/6 185/508/6 183/509/6
f 183/509/6 181/510/6 179/511/6
f 179/511/6 177/512/6 183/509/6
f 177/512/6 175/484/6 183/509/6
f 175/484/6 171/486/6 223/252/6
f 171/486/6 231/488/6 223/252/6
f 223/252/6 219/493/6 207/253/6
f 219/493/6 215/495/6 207/253/6
f 207/253/6 203/500/6 191/254/6
f 203/500/6 199/502/6 191/254/6
f 191/254/6 187/507/6 175/484/6
f 187/507/6 183/509/6 175/484/6
f 175/484/6 223/252/6 191/254/6
f 231/255/134 233/257/134 232/256/134
f 233/257/135 171/190/135 170/192/135
f 232/260/5 170/513/5 176/514/5
f 170/513/5 172/515/5 176/514/5
f 172/515/5 174/516/5 176/514/5
f 176/514/5 178/517/5 180/518/5
f 180/518/5 182/519/5 176/514/5
f 182/519/5 184/520/5 176/514/5
f 184/520/5 186/521/5 192/522/5
f 186/521/5 188/523/5 192/522/5
f 188/523/5 190/524/5 192/522/5
f 192/522/5 194/525/5 196/526/5
f 196/526/5 198/527/5 192/522/5
f 198/527/5 200/528/5 192/522/5
f 200/528/5 202/529/5 208/530/5
f 202/529/5 204/531/5 208/530/5
f 204/531/5 206/532/5 208/530/5
f 208/530/5 210/533/5 212/534/5
f 212/534/5 214/535/5 208/530/5
f 214/535/5 216/258/5 208/530/5
f 216/258/5 218/536/5 224/259/5
f 218/536/5 220/537/5 224/259/5
f 220/537/5 222/538/5 224/259/5
f 224/259/5 226/539/5 228/540/5
f 228/540/5 230/541/5 224/259/5
f 230/541/5 232/260/5 224/259/5
f 232/260/5 176/514/5 184/520/5
f 184/520/5 192/522/5 232/260/5
f 192/522/5 200/528/5 232/260/5
f 200/528/5 208/530/5 232/260/5
f 208/530/5 216/258/5 232/260/5
f 235/261/104 237/264/104 236/262/104
f 237/264/105 239/266/105 238/265/105
f 239/266/106 241/268/106 240/267/106
f 241/268/107 243/270/107 242/269/107
f 243/270/108 245/272/108 244/271/108
f 245/272/109 247/274/109 246/273/109
f 247/274/110 249/276/110 248/275/110
f 249/276/111 251/278/111 250/277/111
f 251/278/112 253/280/112 252/279/112
f 253/280/113 255/282/113 254/281/113
f 255/282/114 257/284/114 256/283/114
f 257/284/115 259/286/115 258/285/115
f 259/286/116 261/288/116 260/287/116
f 261/288/117 263/290/117 262/289/117
f 263/290/118 265/292/118 264/291/118
f 265/292/119 267/294/119 266/293/119
f 267/294/120 269/296/120 268/295/120
f 269/296/121 271/298/121 270/297/121
f 271/298/122 273/300/122 272/299/122
f 273/300/123 275/302/123 274/301/123
f 275/302/124 277/304/124 276/303/124
f 277/304/125 279/306/125 278/305/125
f 279/306/126 281/308/126 280/307/126
f 281/308/127 283/542/127 282/309/127
f 283/310/128 285/313/128 284/311/128
f 285/313/129 287/315/129 286/314/129
f 287/315/130 289/317/130 288/316/130
f 289/317/131 291/319/131 290/318/131
f 291/319/132 293/321/132 292/320/132
f 293/321/133 295/326/133 294/322/133
f 239/543/6 237/544/136 235/545/6
f 235/545/6 297/546/6 295/547/6
f 295/547/6 293/548/6 287/323/6
f 293/548/6 291/549/6 287/323/6
f 291/549/6 289/550/6 287/323/6
f 287/323/6 285/551/6 283/552/6
f 283/552/6 281/553/6 279/554/6
f 279/554/6 277/555/6 275/556/6
f 275/556/6 273/557/6 279/554/6
f 273/557/6 271/324/6 279/554/6
f 271/324/6 269/558/137 267/559/6
f 267/559/6 265/560/136 263/561/6
f 263/561/6 261/562/6 259/563/6
f 259/563/6 257/564/6 263/561/6
f 257/564/6 255/325/6 263/561/6
f 255/325/6 253/565/6 251/566/6
f 251/566/6 249/567/6 247/568/6
f 247/568/6 245/569/6 243/570/6
f 243/570/6 241/571/6 247/568/6
f 241/571/6 239/543/6 247/568/6
f 239/543/6 235/545/6 287/323/6
f 235/545/6 295/547/6 287/323/6
f 287/323/6 283/552/6 271/324/6
f 283/552/6 279/554/6 271/324/6
f 271/324/6 267/559/6 255/325/6
f 267/559/6 263/561/6 255/325/6
f 255/325/6 251/566/6 239/543/6
f 251/566/6 247/568/6 239/543/6
f 239/543/6 287/323/6 255/325/6
f 295/326/134 297/328/134 296/327/134
f 297/328/135 235/261/135 234/263/135
f 296/331/5 234/572/5 240/573/5
f 234/572/5 236/574/5 240/573/5
f 236/574/5 238/575/5 240/573/5
f 240/573/5 242/576/5 244/577/5
f 244/577/5 246/578/5 240/573/5
f 246/578/5 248/579/5 240/573/5
f 248/579/5 250/580/5 256/581/5
f 250/580/5 252/582/5 256/581/5
f 252/582/5 254/583/5 256/581/5
f 256/581/5 258/584/5 260/585/5
f 260/585/5 262/586/5 256/581/5
f 262/586/5 264/587/5 256/581/5
f 264/587/5 266/588/5 272/589/5
f 266/588/5 268/590/5 272/589/5
f 268/590/5 270/591/5 272/589/5
f 272/589/5 274/592/5 276/593/5
f 276/593/5 278/594/5 272/589/5
f 278/594/5 280/329/5 272/589/5
f 280/329/5 282/595/5 288/330/5
f 282/595/5 284/596/5 288/330/5
f 284/596/5 286/597/5 288/330/5
f 288/330/5 290/598/5 292/599/5
f 292/599/5 294/600/5 288/330/5
f 294/600/5 296/331/5 288/330/5
f 296/331/5 240/573/5 264/587/5
f 240/573/5 248/579/5 264/587/5
f 248/579/5 256/581/5 264/587/5
f 264/587/5 272/589/5 296/331/5
f 272/589/5 280/329/5 296/331/5
