# Blender 5.1.1
# www.blender.org
mtllib enemyHit_effect.mtl
o 円錐
v -0.800022 0.471429 0.435050
v -0.692679 0.618448 0.435050
v -0.558716 0.741699 0.435050
v -0.403282 0.836448 0.435050
v -0.232350 0.899052 0.435050
v -0.052489 0.927106 0.435050
v 0.129389 0.919533 0.435050
v 0.306294 0.876621 0.435050
v 0.471429 0.800022 0.435050
v 0.618448 0.692679 0.435050
v 0.741699 0.558716 0.435050
v 0.836448 0.403282 0.435050
v 0.899052 0.232350 0.435050
v 0.927106 0.052490 0.435050
v 0.919533 -0.129389 0.435050
v 0.876621 -0.306294 0.435050
v 0.800022 -0.471429 0.435050
v 0.692679 -0.618448 0.435050
v 0.558716 -0.741699 0.435050
v 0.403282 -0.836448 0.435050
v 0.232350 -0.899052 0.435050
v 0.052489 -0.927106 0.435050
v -0.129389 -0.919533 0.435050
v -0.306294 -0.876621 0.435051
v -0.471429 -0.800022 0.435051
v -0.618448 -0.692679 0.435051
v -0.741699 -0.558716 0.435051
v -0.836448 -0.403282 0.435051
v -0.899052 -0.232350 0.435051
v -0.927106 -0.052489 0.435051
v -0.919533 0.129389 0.435051
v -0.876621 0.306294 0.435050
v 0.095772 0.481477 1.310413
v 0.000000 0.490910 1.310413
v 0.187863 0.453542 1.310413
v 0.272735 0.408177 1.310413
v 0.347126 0.347126 1.310413
v 0.408177 0.272735 1.310413
v 0.453542 0.187863 1.310413
v 0.481477 0.095772 1.310413
v 0.490910 0.000000 1.310413
v 0.481477 -0.095772 1.310413
v 0.453542 -0.187863 1.310413
v 0.408177 -0.272735 1.310413
v 0.347126 -0.347126 1.310413
v 0.272735 -0.408177 1.310413
v 0.187863 -0.453542 1.310413
v 0.095772 -0.481477 1.310413
v 0.000000 -0.490910 1.310413
v -0.095772 -0.481477 1.310413
v -0.187863 -0.453542 1.310413
v -0.272735 -0.408177 1.310413
v -0.347126 -0.347126 1.310413
v -0.408177 -0.272735 1.310413
v -0.453542 -0.187863 1.310413
v -0.481477 -0.095772 1.310413
v -0.490910 0.000000 1.310413
v -0.481477 0.095772 1.310413
v -0.453542 0.187863 1.310413
v -0.408177 0.272735 1.310413
v -0.347126 0.347126 1.310413
v -0.272735 0.408177 1.310413
v -0.187863 0.453542 1.310413
v -0.095772 0.481477 1.310413
vn 0.0978 0.9929 0.0673
vn 0.4703 0.8799 0.0673
vn 0.7713 0.6330 0.0673
vn 0.9548 0.2896 0.0673
vn 0.9929 -0.0978 0.0673
vn 0.8799 -0.4703 0.0673
vn 0.6330 -0.7713 0.0673
vn 0.2896 -0.9548 0.0673
vn -0.0978 -0.9929 0.0673
vn -0.4703 -0.8799 0.0673
vn -0.7713 -0.6330 0.0673
vn -0.9548 -0.2896 0.0673
vn -0.9929 0.0978 0.0673
vn -0.8799 0.4703 0.0673
vn -0.6330 0.7713 0.0673
vn -0.2896 0.9548 0.0673
vn -0.6539 0.4774 0.5870
vn -0.4214 0.6913 0.5870
vn -0.1248 0.7999 0.5870
vn 0.1909 0.7868 0.5870
vn 0.4774 0.6539 0.5870
vn 0.6913 0.4214 0.5870
vn 0.7999 0.1248 0.5870
vn 0.7868 -0.1909 0.5870
vn 0.6539 -0.4774 0.5870
vn 0.4214 -0.6913 0.5870
vn 0.1248 -0.7999 0.5870
vn -0.1909 -0.7868 0.5870
vn -0.4774 -0.6539 0.5870
vn -0.6913 -0.4214 0.5870
vn -0.7999 -0.1248 0.5870
vn -0.7868 0.1909 0.5870
vt 0.096563 0.132780
vt 0.538203 0.066825
vt 0.566245 0.092836
vt 0.199896 0.530028
vt 0.265850 0.971668
vt 0.239840 0.999709
vt 0.000290 0.030028
vt 0.066245 0.471668
vt 0.040234 0.499710
vt 0.096563 0.265850
vt 0.538203 0.199896
vt 0.566245 0.225906
vt 0.466036 0.530028
vt 0.531991 0.971668
vt 0.505980 0.999709
vt 0.399501 0.530028
vt 0.465456 0.971668
vt 0.439445 0.999710
vt 0.096563 0.398920
vt 0.538203 0.332966
vt 0.566245 0.358977
vt 0.066826 0.530028
vt 0.132780 0.971668
vt 0.106769 0.999710
vt 0.133361 0.530028
vt 0.199315 0.971668
vt 0.173304 0.999710
vt 0.332966 0.530028
vt 0.398920 0.971668
vt 0.372910 0.999710
vt 0.096563 0.199315
vt 0.538203 0.133361
vt 0.566245 0.159371
vt 0.096563 0.332385
vt 0.538203 0.266431
vt 0.566245 0.292441
vt 0.000290 0.530028
vt 0.066245 0.971668
vt 0.040234 0.999710
vt 0.266431 0.530028
vt 0.332385 0.971668
vt 0.306375 0.999710
vt 0.096563 0.066245
vt 0.538203 0.000290
vt 0.566245 0.026301
vt 0.096563 0.465456
vt 0.538203 0.399501
vt 0.566245 0.425512
vt 0.066825 0.066826
vt 0.265850 0.500290
vt 0.066245 0.000290
vt 0.066825 0.199896
vt 0.531991 0.500290
vt 0.465456 0.500291
vt 0.066825 0.332966
vt 0.132780 0.500290
vt 0.199315 0.500290
vt 0.398920 0.500290
vt 0.066826 0.133361
vt 0.066825 0.266431
vt 0.066245 0.500290
vt 0.332385 0.500290
vt 0.066826 0.000290
vt 0.066825 0.399501
s 1
usemtl マテリアル.001
f 2/1/1 34/2/1 33/3/1
f 4/4/2 35/5/2 36/6/2
f 6/7/3 37/8/3 38/9/3
f 8/10/4 39/11/4 40/12/4
f 10/13/5 41/14/5 42/15/5
f 12/16/6 43/17/6 44/18/6
f 14/19/7 45/20/7 46/21/7
f 16/22/8 47/23/8 48/24/8
f 18/25/9 49/26/9 50/27/9
f 20/28/10 51/29/10 52/30/10
f 22/31/11 53/32/11 54/33/11
f 24/34/12 55/35/12 56/36/12
f 26/37/13 57/38/13 58/39/13
f 28/40/14 59/41/14 60/42/14
f 30/43/15 61/44/15 62/45/15
f 32/46/16 63/47/16 64/48/16
f 2/1/17 1/49/17 34/2/17
f 4/4/18 3/50/18 35/5/18
f 6/7/19 5/51/19 37/8/19
f 8/10/20 7/52/20 39/11/20
f 10/13/21 9/53/21 41/14/21
f 12/16/22 11/54/22 43/17/22
f 14/19/23 13/55/23 45/20/23
f 16/22/24 15/56/24 47/23/24
f 18/25/25 17/57/25 49/26/25
f 20/28/26 19/58/26 51/29/26
f 22/31/27 21/59/27 53/32/27
f 24/34/28 23/60/28 55/35/28
f 26/37/29 25/61/29 57/38/29
f 28/40/30 27/62/30 59/41/30
f 30/43/31 29/63/31 61/44/31
f 32/46/32 31/64/32 63/47/32
