# Blender 5.1.1
# www.blender.org
mtllib playerTire.mtl
o 球
v -0.001092 0.307471 0.000000
v -0.001092 0.255678 -0.051763
v -0.001092 0.170887 -0.077468
v -0.001092 0.060104 -0.091380
v -0.001092 0.000148 -0.093170
v -0.001092 -0.059808 -0.091380
v -0.001092 -0.170592 -0.077468
v -0.001092 -0.307175 0.000000
v 0.010605 0.301566 -0.017827
v 0.021852 0.284077 -0.034970
v 0.032218 0.255678 -0.050768
v 0.041303 0.217458 -0.064616
v 0.048760 0.170887 -0.075980
v 0.054300 0.117755 -0.084424
v 0.057712 0.060104 -0.089624
v 0.058864 0.000148 -0.091380
v 0.057712 -0.059808 -0.089624
v 0.054300 -0.117460 -0.084424
v 0.048760 -0.170592 -0.075980
v 0.041303 -0.217163 -0.064616
v 0.032218 -0.255382 -0.050768
v 0.021852 -0.283782 -0.034970
v 0.010605 -0.301270 -0.017827
v 0.021852 0.301566 -0.016793
v 0.043915 0.284077 -0.032941
v 0.064247 0.255678 -0.047823
v 0.082069 0.217458 -0.060867
v 0.096695 0.170887 -0.071571
v 0.107563 0.117755 -0.079526
v 0.114256 0.060104 -0.084424
v 0.116516 0.000148 -0.086078
v 0.114256 -0.059808 -0.084424
v 0.107563 -0.117460 -0.079526
v 0.096695 -0.170592 -0.071571
v 0.082069 -0.217163 -0.060867
v 0.064247 -0.255382 -0.047823
v 0.043915 -0.283782 -0.032941
v 0.021852 -0.301270 -0.016793
v 0.032218 0.301566 -0.015113
v 0.064247 0.284077 -0.029646
v 0.093766 0.255678 -0.043039
v 0.119639 0.217458 -0.054778
v 0.140873 0.170887 -0.064413
v 0.156651 0.117755 -0.071571
v 0.166367 0.060104 -0.075980
v 0.169648 0.000148 -0.077468
v 0.166367 -0.059808 -0.075980
v 0.156651 -0.117460 -0.071571
v 0.140873 -0.170592 -0.064413
v 0.119639 -0.217163 -0.054778
v 0.093766 -0.255382 -0.043039
v 0.064247 -0.283782 -0.029646
v 0.032218 -0.301270 -0.015113
v 0.041303 0.301566 -0.012853
v 0.082069 0.284077 -0.025212
v 0.119639 0.255678 -0.036602
v 0.152570 0.217458 -0.046585
v 0.179595 0.170887 -0.054778
v 0.199677 0.117755 -0.060867
v 0.212043 0.060104 -0.064616
v 0.216218 0.000148 -0.065881
v 0.212043 -0.059808 -0.064616
v 0.199677 -0.117460 -0.060867
v 0.179595 -0.170592 -0.054778
v 0.152570 -0.217163 -0.046585
v 0.119639 -0.255382 -0.036602
v 0.082069 -0.283782 -0.025212
v 0.041303 -0.301270 -0.012853
v 0.048760 0.301566 -0.010098
v 0.096695 0.284077 -0.019809
v 0.140873 0.255678 -0.028758
v 0.179595 0.217458 -0.036602
v 0.211373 0.170887 -0.043039
v 0.234987 0.117755 -0.047823
v 0.249528 0.060104 -0.050768
v 0.254438 0.000148 -0.051763
v 0.249528 -0.059808 -0.050768
v 0.234987 -0.117460 -0.047823
v 0.211373 -0.170592 -0.043039
v 0.179595 -0.217163 -0.036602
v 0.140873 -0.255382 -0.028758
v 0.096695 -0.283782 -0.019809
v 0.048760 -0.301270 -0.010098
v 0.054300 0.301566 -0.006956
v 0.107563 0.284077 -0.013644
v 0.156651 0.255678 -0.019809
v 0.199677 0.217458 -0.025212
v 0.234987 0.170887 -0.029646
v 0.261225 0.117755 -0.032941
v 0.277382 0.060104 -0.034970
v 0.282838 0.000148 -0.035655
v 0.277382 -0.059808 -0.034970
v 0.261225 -0.117460 -0.032941
v 0.234987 -0.170592 -0.029646
v 0.199677 -0.217163 -0.025212
v 0.156651 -0.255382 -0.019809
v 0.107563 -0.283782 -0.013644
v 0.054300 -0.301270 -0.006956
v 0.057712 0.301566 -0.003546
v 0.114256 0.284077 -0.006956
v 0.166367 0.255678 -0.010098
v 0.212043 0.217458 -0.012853
v 0.249528 0.170887 -0.015113
v 0.277382 0.117755 -0.016793
v 0.294535 0.060104 -0.017827
v 0.300326 0.000148 -0.018177
v 0.294535 -0.059808 -0.017827
v 0.277382 -0.117460 -0.016793
v 0.249528 -0.170592 -0.015113
v 0.212043 -0.217163 -0.012853
v 0.166367 -0.255382 -0.010098
v 0.114256 -0.283782 -0.006956
v 0.057712 -0.301270 -0.003546
v 0.058864 0.301566 0.000000
v 0.116516 0.284077 0.000000
v 0.169648 0.255678 0.000000
v 0.216218 0.217458 -0.000000
v 0.254438 0.170887 0.000000
v 0.282838 0.117755 -0.000000
v 0.300326 0.060104 0.000000
v 0.306231 0.000148 0.000000
v 0.300326 -0.059808 0.000000
v 0.282838 -0.117460 -0.000000
v 0.254438 -0.170592 0.000000
v 0.216218 -0.217163 -0.000000
v 0.169648 -0.255382 0.000000
v 0.116516 -0.283782 0.000000
v 0.058864 -0.301270 0.000000
v 0.057712 0.301566 0.003546
v 0.114256 0.284077 0.006956
v 0.166367 0.255678 0.010098
v 0.212043 0.217458 0.012853
v 0.249528 0.170887 0.015113
v 0.277382 0.117755 0.016793
v 0.294535 0.060104 0.017827
v 0.300326 0.000148 0.018177
v 0.294535 -0.059808 0.017827
v 0.277382 -0.117460 0.016793
v 0.249528 -0.170592 0.015113
v 0.212043 -0.217163 0.012853
v 0.166367 -0.255382 0.010098
v 0.114256 -0.283782 0.006956
v 0.057712 -0.301270 0.003546
v 0.054300 0.301566 0.006956
v 0.107563 0.284077 0.013645
v 0.156651 0.255678 0.019809
v 0.199677 0.217458 0.025212
v 0.234987 0.170887 0.029646
v 0.261225 0.117755 0.032941
v 0.277382 0.060104 0.034970
v 0.282838 0.000148 0.035655
v 0.277382 -0.059808 0.034970
v 0.261225 -0.117460 0.032941
v 0.234987 -0.170592 0.029646
v 0.199677 -0.217163 0.025212
v 0.156651 -0.255382 0.019809
v 0.107563 -0.283782 0.013645
v 0.054300 -0.301270 0.006956
v 0.048760 0.301566 0.010098
v 0.096695 0.284077 0.019809
v 0.140873 0.255678 0.028758
v 0.179595 0.217458 0.036602
v 0.211373 0.170887 0.043039
v 0.234987 0.117755 0.047823
v 0.249528 0.060104 0.050768
v 0.254438 0.000148 0.051763
v 0.249528 -0.059808 0.050768
v 0.234987 -0.117460 0.047823
v 0.211373 -0.170592 0.043039
v 0.179595 -0.217163 0.036602
v 0.140873 -0.255382 0.028758
v 0.096695 -0.283782 0.019809
v 0.048760 -0.301270 0.010098
v 0.041303 0.301566 0.012853
v 0.082069 0.284077 0.025212
v 0.119639 0.255678 0.036602
v 0.152570 0.217458 0.046585
v 0.179595 0.170887 0.054778
v 0.199677 0.117755 0.060867
v 0.212043 0.060104 0.064616
v 0.216218 0.000148 0.065881
v 0.212043 -0.059808 0.064616
v 0.199677 -0.117460 0.060867
v 0.179595 -0.170592 0.054778
v 0.152570 -0.217163 0.046585
v 0.119639 -0.255382 0.036602
v 0.082069 -0.283782 0.025212
v 0.041303 -0.301270 0.012853
v 0.032218 0.301566 0.015113
v 0.064247 0.284077 0.029646
v 0.093766 0.255678 0.043039
v 0.119639 0.217458 0.054778
v 0.140873 0.170887 0.064413
v 0.156651 0.117755 0.071571
v 0.166367 0.060104 0.075980
v 0.169648 0.000148 0.077468
v 0.166367 -0.059808 0.075980
v 0.156651 -0.117460 0.071571
v 0.140873 -0.170592 0.064413
v 0.119639 -0.217163 0.054778
v 0.093766 -0.255382 0.043039
v 0.064247 -0.283782 0.029646
v 0.032218 -0.301270 0.015113
v 0.021852 0.301566 0.016793
v 0.043915 0.284077 0.032941
v 0.064247 0.255678 0.047823
v 0.082069 0.217458 0.060867
v 0.096695 0.170887 0.071571
v 0.107563 0.117755 0.079526
v 0.114256 0.060104 0.084424
v 0.116515 0.000148 0.086078
v 0.114256 -0.059808 0.084424
v 0.107563 -0.117460 0.079526
v 0.096695 -0.170592 0.071571
v 0.082069 -0.217163 0.060867
v 0.064247 -0.255382 0.047823
v 0.043915 -0.283782 0.032941
v 0.021852 -0.301270 0.016793
v 0.010605 0.301566 0.017827
v 0.021852 0.284077 0.034970
v 0.032218 0.255678 0.050768
v 0.041303 0.217458 0.064616
v 0.048759 0.170887 0.075980
v 0.054300 0.117755 0.084424
v 0.057712 0.060104 0.089624
v 0.058864 0.000148 0.091380
v 0.057712 -0.059808 0.089624
v 0.054300 -0.117460 0.084424
v 0.048759 -0.170592 0.075980
v 0.041303 -0.217163 0.064616
v 0.032218 -0.255382 0.050768
v 0.021852 -0.283782 0.034970
v 0.010605 -0.301270 0.017827
v -0.001092 0.301566 0.018177
v -0.001092 0.284077 0.035655
v -0.001092 0.255678 0.051763
v -0.001092 0.217458 0.065881
v -0.001092 0.170887 0.077468
v -0.001092 0.117755 0.086078
v -0.001092 0.060104 0.091380
v -0.001092 0.000148 0.093170
v -0.001092 -0.059808 0.091380
v -0.001092 -0.117460 0.086078
v -0.001092 -0.170592 0.077468
v -0.001092 -0.217163 0.065881
v -0.001092 -0.255382 0.051763
v -0.001092 -0.283782 0.035655
v -0.001092 -0.301270 0.018177
v -0.012789 0.301566 0.017827
v -0.024036 0.284077 0.034970
v -0.034402 0.255678 0.050768
v -0.043487 0.217458 0.064616
v -0.050943 0.170887 0.075980
v -0.056484 0.117755 0.084424
v -0.059896 0.060104 0.089624
v -0.061048 0.000148 0.091380
v -0.059896 -0.059808 0.089624
v -0.056484 -0.117460 0.084424
v -0.050943 -0.170592 0.075980
v -0.043487 -0.217163 0.064616
v -0.034402 -0.255382 0.050768
v -0.024036 -0.283782 0.034970
v -0.012789 -0.301270 0.017827
v -0.024036 0.301566 0.016793
v -0.046098 0.284077 0.032941
v -0.066431 0.255678 0.047823
v -0.084253 0.217458 0.060867
v -0.098879 0.170887 0.071571
v -0.109747 0.117755 0.079526
v -0.116440 0.060104 0.084424
v -0.118699 0.000148 0.086078
v -0.116440 -0.059808 0.084424
v -0.109747 -0.117460 0.079526
v -0.098879 -0.170592 0.071571
v -0.084253 -0.217163 0.060867
v -0.066431 -0.255382 0.047823
v -0.046098 -0.283782 0.032941
v -0.024036 -0.301270 0.016793
v -0.034402 0.301566 0.015113
v -0.066431 0.284077 0.029646
v -0.095950 0.255678 0.043039
v -0.121823 0.217458 0.054778
v -0.143057 0.170887 0.064413
v -0.158835 0.117755 0.071571
v -0.168551 0.060104 0.075980
v -0.171831 0.000148 0.077468
v -0.168551 -0.059808 0.075980
v -0.158835 -0.117460 0.071571
v -0.143057 -0.170592 0.064413
v -0.121823 -0.217163 0.054778
v -0.095950 -0.255382 0.043039
v -0.066431 -0.283782 0.029646
v -0.034402 -0.301270 0.015113
v -0.043487 0.301566 0.012853
v -0.084253 0.284077 0.025212
v -0.121823 0.255678 0.036602
v -0.154753 0.217458 0.046585
v -0.181779 0.170887 0.054778
v -0.201860 0.117755 0.060867
v -0.214227 0.060104 0.064616
v -0.218402 0.000148 0.065881
v -0.214227 -0.059808 0.064616
v -0.201860 -0.117460 0.060867
v -0.181779 -0.170592 0.054778
v -0.154753 -0.217163 0.046585
v -0.121823 -0.255382 0.036602
v -0.084253 -0.283782 0.025212
v -0.043487 -0.301270 0.012853
v -0.050943 0.301566 0.010098
v -0.098879 0.284077 0.019809
v -0.143057 0.255678 0.028758
v -0.181779 0.217458 0.036602
v -0.213557 0.170887 0.043039
v -0.237171 0.117755 0.047823
v -0.251712 0.060104 0.050768
v -0.256622 0.000148 0.051763
v -0.251712 -0.059808 0.050768
v -0.237171 -0.117460 0.047823
v -0.213557 -0.170592 0.043039
v -0.181779 -0.217163 0.036602
v -0.143057 -0.255382 0.028758
v -0.098879 -0.283782 0.019809
v -0.050943 -0.301270 0.010098
v -0.056484 0.301566 0.006956
v -0.109747 0.284077 0.013644
v -0.158835 0.255678 0.019809
v -0.201860 0.217458 0.025212
v -0.237171 0.170887 0.029646
v -0.263409 0.117755 0.032941
v -0.279566 0.060104 0.034970
v -0.285021 0.000148 0.035655
v -0.279566 -0.059808 0.034970
v -0.263409 -0.117460 0.032941
v -0.237171 -0.170592 0.029646
v -0.201860 -0.217163 0.025212
v -0.158835 -0.255382 0.019809
v -0.109747 -0.283782 0.013644
v -0.056484 -0.301270 0.006956
v -0.059896 0.301566 0.003546
v -0.116440 0.284077 0.006956
v -0.168551 0.255678 0.010098
v -0.214227 0.217458 0.012853
v -0.251712 0.170887 0.015113
v -0.279566 0.117755 0.016793
v -0.296718 0.060104 0.017827
v -0.302510 0.000148 0.018177
v -0.296718 -0.059808 0.017827
v -0.279566 -0.117460 0.016793
v -0.251712 -0.170592 0.015113
v -0.214227 -0.217163 0.012853
v -0.168551 -0.255382 0.010098
v -0.116440 -0.283782 0.006956
v -0.059896 -0.301270 0.003546
v -0.061048 0.301566 -0.000000
v -0.118699 0.284077 -0.000000
v -0.171831 0.255678 -0.000000
v -0.218402 0.217458 -0.000000
v -0.256622 0.170887 -0.000000
v -0.285021 0.117755 -0.000000
v -0.302510 0.060104 -0.000000
v -0.308415 0.000148 -0.000000
v -0.302510 -0.059808 -0.000000
v -0.285021 -0.117460 -0.000000
v -0.256622 -0.170592 -0.000000
v -0.218402 -0.217163 -0.000000
v -0.171831 -0.255382 -0.000000
v -0.118699 -0.283782 -0.000000
v -0.061048 -0.301270 -0.000000
v -0.059896 0.301566 -0.003546
v -0.116440 0.284077 -0.006956
v -0.168551 0.255678 -0.010098
v -0.214227 0.217458 -0.012853
v -0.251712 0.170887 -0.015113
v -0.279566 0.117755 -0.016793
v -0.296718 0.060104 -0.017827
v -0.302510 0.000148 -0.018177
v -0.296718 -0.059808 -0.017827
v -0.279566 -0.117460 -0.016793
v -0.251712 -0.170592 -0.015113
v -0.214227 -0.217163 -0.012853
v -0.168551 -0.255382 -0.010098
v -0.116440 -0.283782 -0.006956
v -0.059896 -0.301270 -0.003546
v -0.056484 0.301566 -0.006956
v -0.109747 0.284077 -0.013644
v -0.158835 0.255678 -0.019809
v -0.201860 0.217458 -0.025212
v -0.237171 0.170887 -0.029646
v -0.263409 0.117755 -0.032941
v -0.279566 0.060104 -0.034970
v -0.285021 0.000148 -0.035655
v -0.279566 -0.059808 -0.034970
v -0.263409 -0.117460 -0.032941
v -0.237171 -0.170592 -0.029646
v -0.201860 -0.217163 -0.025212
v -0.158835 -0.255382 -0.019809
v -0.109747 -0.283782 -0.013644
v -0.056484 -0.301270 -0.006956
v -0.050943 0.301566 -0.010098
v -0.098879 0.284077 -0.019809
v -0.143057 0.255678 -0.028758
v -0.181779 0.217458 -0.036602
v -0.213557 0.170887 -0.043039
v -0.237171 0.117755 -0.047823
v -0.251712 0.060104 -0.050768
v -0.256621 0.000148 -0.051763
v -0.251712 -0.059808 -0.050768
v -0.237171 -0.117460 -0.047823
v -0.213557 -0.170592 -0.043039
v -0.181779 -0.217163 -0.036602
v -0.143057 -0.255382 -0.028758
v -0.098879 -0.283782 -0.019809
v -0.050943 -0.301270 -0.010098
v -0.043487 0.301566 -0.012853
v -0.084253 0.284077 -0.025212
v -0.121823 0.255678 -0.036602
v -0.154753 0.217458 -0.046585
v -0.181779 0.170887 -0.054778
v -0.201860 0.117755 -0.060867
v -0.214226 0.060104 -0.064616
v -0.218402 0.000148 -0.065881
v -0.214226 -0.059808 -0.064616
v -0.201860 -0.117460 -0.060867
v -0.181779 -0.170592 -0.054778
v -0.154753 -0.217163 -0.046585
v -0.121823 -0.255382 -0.036602
v -0.084253 -0.283782 -0.025212
v -0.043487 -0.301270 -0.012853
v -0.034401 0.301566 -0.015113
v -0.066431 0.284077 -0.029646
v -0.095950 0.255678 -0.043039
v -0.121823 0.217458 -0.054778
v -0.143057 0.170887 -0.064413
v -0.158835 0.117755 -0.071571
v -0.168551 0.060104 -0.075980
v -0.171831 0.000148 -0.077468
v -0.168551 -0.059808 -0.075980
v -0.158835 -0.117460 -0.071571
v -0.143057 -0.170592 -0.064413
v -0.121823 -0.217163 -0.054778
v -0.095950 -0.255382 -0.043039
v -0.066431 -0.283782 -0.029646
v -0.034401 -0.301270 -0.015113
v -0.024036 0.301566 -0.016793
v -0.046098 0.284077 -0.032941
v -0.066431 0.255678 -0.047822
v -0.084253 0.217458 -0.060867
v -0.098879 0.170887 -0.071571
v -0.109747 0.117755 -0.079526
v -0.116439 0.060104 -0.084424
v -0.118699 0.000148 -0.086078
v -0.116439 -0.059808 -0.084424
v -0.109747 -0.117460 -0.079526
v -0.098879 -0.170592 -0.071571
v -0.084253 -0.217163 -0.060867
v -0.066431 -0.255382 -0.047822
v -0.046098 -0.283782 -0.032941
v -0.024036 -0.301270 -0.016793
v -0.012789 0.301566 -0.017827
v -0.024036 0.284077 -0.034970
v -0.034401 0.255678 -0.050768
v -0.043487 0.217458 -0.064616
v -0.050943 0.170887 -0.075980
v -0.056484 0.117755 -0.084424
v -0.059896 0.060104 -0.089624
v -0.061047 0.000148 -0.091380
v -0.059896 -0.059808 -0.089624
v -0.056484 -0.117460 -0.084424
v -0.050943 -0.170592 -0.075980
v -0.043487 -0.217163 -0.064616
v -0.034401 -0.255382 -0.050768
v -0.024036 -0.283782 -0.034970
v -0.012789 -0.301270 -0.017827
v -0.001092 0.301566 -0.018177
v -0.001092 0.284077 -0.035655
v -0.001092 0.217458 -0.065881
v -0.001092 0.117755 -0.086078
v -0.001092 -0.117460 -0.086078
v -0.001092 -0.217163 -0.065881
v -0.001092 -0.255382 -0.051763
v -0.001092 -0.283782 -0.035655
v -0.001092 -0.301270 -0.018177
v 0.038656 0.000148 -0.217597
v 0.038656 0.000148 0.229920
v 0.037892 -0.007607 -0.217597
v 0.037892 -0.007607 0.229920
v 0.035630 -0.015063 -0.217597
v 0.035630 -0.015063 0.229920
v 0.031957 -0.021935 -0.217597
v 0.031957 -0.021935 0.229920
v 0.027014 -0.027958 -0.217597
v 0.027014 -0.027958 0.229920
v 0.020991 -0.032901 -0.217597
v 0.020991 -0.032901 0.229920
v 0.014119 -0.036574 -0.217597
v 0.014119 -0.036574 0.229920
v 0.006663 -0.038836 -0.217597
v 0.006663 -0.038836 0.229920
v -0.001092 -0.039600 -0.217597
v -0.001092 -0.039600 0.229920
v -0.008846 -0.038836 -0.217597
v -0.008846 -0.038836 0.229920
v -0.016303 -0.036574 -0.217597
v -0.016303 -0.036574 0.229920
v -0.023175 -0.032901 -0.217597
v -0.023175 -0.032901 0.229920
v -0.029198 -0.027958 -0.217597
v -0.029198 -0.027958 0.229920
v -0.034141 -0.021935 -0.217597
v -0.034141 -0.021935 0.229920
v -0.037814 -0.015063 -0.217597
v -0.037814 -0.015063 0.229920
v -0.040076 -0.007607 -0.217597
v -0.040076 -0.007607 0.229920
v -0.040840 0.000148 -0.217597
v -0.040840 0.000148 0.229920
v -0.040076 0.007902 -0.217597
v -0.040076 0.007902 0.229920
v -0.037814 0.015359 -0.217597
v -0.037814 0.015359 0.229920
v -0.034141 0.022230 -0.217597
v -0.034141 0.022230 0.229920
v -0.029198 0.028254 -0.217597
v -0.029198 0.028254 0.229920
v -0.023175 0.033197 -0.217597
v -0.023175 0.033197 0.229920
v -0.016303 0.036870 -0.217597
v -0.016303 0.036870 0.229920
v -0.008846 0.039132 -0.217597
v -0.008846 0.039132 0.229920
v -0.001092 0.039896 -0.217597
v -0.001092 0.039896 0.229920
v 0.006663 0.039132 -0.217597
v 0.006663 0.039132 0.229920
v 0.014119 0.036870 -0.217597
v 0.014119 0.036870 0.229920
v 0.020991 0.033197 -0.217597
v 0.020991 0.033197 0.229920
v 0.027014 0.028254 -0.217597
v 0.027014 0.028254 0.229920
v 0.031957 0.022230 -0.217597
v 0.031957 0.022230 0.229920
v 0.035630 0.015359 -0.217597
v 0.035630 0.015359 0.229920
v 0.037892 0.007902 -0.217597
v 0.037892 0.007902 0.229920
vn 0.0211 0.7067 -0.7072
vn 0.0297 -0.0915 -0.9954
vn 0.0260 0.4932 -0.8695
vn 0.0295 -0.1599 -0.9867
vn 0.0280 0.3464 -0.9377
vn 0.0290 -0.2413 -0.9700
vn 0.0290 0.2413 -0.9700
vn 0.0280 -0.3464 -0.9377
vn 0.0295 0.1599 -0.9867
vn 0.0260 -0.4932 -0.8695
vn 0.0297 0.0915 -0.9954
vn 0.0211 -0.7067 -0.7072
vn 0.0298 0.0298 -0.9991
vn 0.0092 0.9510 -0.3090
vn 0.0092 -0.9510 -0.3090
vn 0.0298 -0.0298 -0.9991
vn 0.0915 0.0309 -0.9953
vn 0.0274 0.9542 -0.2981
vn 0.0274 -0.9542 -0.2981
vn 0.0915 -0.0309 -0.9953
vn 0.0636 0.7192 -0.6919
vn 0.0912 -0.0948 -0.9913
vn 0.0790 0.5065 -0.8586
vn 0.0903 -0.1655 -0.9821
vn 0.0855 0.3573 -0.9301
vn 0.0887 -0.2495 -0.9643
vn 0.0887 0.2495 -0.9643
vn 0.0855 -0.3573 -0.9301
vn 0.0903 0.1655 -0.9821
vn 0.0790 -0.5065 -0.8586
vn 0.0912 0.0948 -0.9913
vn 0.0636 -0.7192 -0.6919
vn 0.1541 -0.2671 -0.9513
vn 0.1541 0.2671 -0.9513
vn 0.1479 -0.3805 -0.9129
vn 0.1574 0.1776 -0.9714
vn 0.1352 -0.5341 -0.8345
vn 0.1591 0.1019 -0.9820
vn 0.1069 -0.7439 -0.6597
vn 0.1599 0.0332 -0.9866
vn 0.0448 0.9600 -0.2764
vn 0.0448 -0.9600 -0.2764
vn 0.1599 -0.0332 -0.9866
vn 0.1069 0.7439 -0.6597
vn 0.1591 -0.1019 -0.9820
vn 0.1352 0.5341 -0.8345
vn 0.1574 -0.1776 -0.9714
vn 0.1479 0.3805 -0.9129
vn 0.0608 -0.9678 -0.2442
vn 0.2413 -0.0373 -0.9697
vn 0.1509 0.7805 -0.6066
vn 0.2399 -0.1141 -0.9641
vn 0.1970 0.5782 -0.7918
vn 0.2366 -0.1984 -0.9511
vn 0.2192 0.4190 -0.8811
vn 0.2306 -0.2968 -0.9267
vn 0.2306 0.2968 -0.9267
vn 0.2192 -0.4190 -0.8811
vn 0.2366 0.1984 -0.9511
vn 0.1970 -0.5782 -0.7918
vn 0.2399 0.1141 -0.9641
vn 0.1509 -0.7805 -0.6066
vn 0.2413 0.0373 -0.9697
vn 0.0608 0.9678 -0.2442
vn 0.3044 -0.4776 -0.8241
vn 0.3371 0.2320 -0.9125
vn 0.2660 -0.6408 -0.7202
vn 0.3434 0.1341 -0.9296
vn 0.1948 -0.8269 -0.5275
vn 0.3462 0.0439 -0.9371
vn 0.0747 0.9765 -0.2022
vn 0.0747 -0.9765 -0.2022
vn 0.3462 -0.0439 -0.9371
vn 0.1948 0.8269 -0.5275
vn 0.3434 -0.1341 -0.9296
vn 0.2660 0.6408 -0.7202
vn 0.3371 -0.2320 -0.9125
vn 0.3044 0.4776 -0.8241
vn 0.3254 -0.3438 -0.8809
vn 0.3254 0.3438 -0.8809
vn 0.2361 0.8781 -0.4162
vn 0.4865 -0.1665 -0.8577
vn 0.3417 0.7213 -0.6024
vn 0.4729 -0.2852 -0.8337
vn 0.4083 0.5614 -0.7198
vn 0.4487 -0.4156 -0.7912
vn 0.4487 0.4156 -0.7912
vn 0.4083 -0.5614 -0.7198
vn 0.4729 0.2852 -0.8337
vn 0.3417 -0.7213 -0.6024
vn 0.4865 0.1665 -0.8577
vn 0.2361 -0.8781 -0.4162
vn 0.4926 0.0547 -0.8685
vn 0.0859 0.9847 -0.1515
vn 0.0859 -0.9847 -0.1515
vn 0.4926 -0.0547 -0.8685
vn 0.6579 0.3657 -0.6583
vn 0.4157 -0.8088 -0.4160
vn 0.6900 0.2177 -0.6904
vn 0.2696 -0.9244 -0.2698
vn 0.7051 0.0722 -0.7055
vn 0.0939 0.9911 -0.0939
vn 0.0939 -0.9911 -0.0939
vn 0.7051 -0.0722 -0.7055
vn 0.2696 0.9244 -0.2698
vn 0.6900 -0.2177 -0.6904
vn 0.4157 0.8088 -0.4160
vn 0.6579 -0.3657 -0.6583
vn 0.5265 0.6672 -0.5268
vn 0.6053 -0.5166 -0.6056
vn 0.6053 0.5166 -0.6056
vn 0.5265 -0.6672 -0.5268
vn 0.9138 -0.2772 -0.2969
vn 0.4660 0.8718 -0.1514
vn 0.8478 -0.4532 -0.2754
vn 0.6213 0.7571 -0.2019
vn 0.7497 -0.6153 -0.2436
vn 0.7497 0.6153 -0.2436
vn 0.6213 -0.7571 -0.2019
vn 0.8478 0.4532 -0.2754
vn 0.4660 -0.8718 -0.1514
vn 0.9138 0.2772 -0.2969
vn 0.2890 -0.9527 -0.0939
vn 0.9469 0.0933 -0.3076
vn 0.0980 0.9947 -0.0318
vn 0.0980 -0.9947 -0.0318
vn 0.9469 -0.0933 -0.3076
vn 0.2890 0.9527 -0.0939
vn 0.4660 -0.8718 0.1514
vn 0.9138 0.2772 0.2969
vn 0.2890 -0.9527 0.0939
vn 0.9469 0.0933 0.3076
vn 0.0980 0.9947 0.0318
vn 0.0980 -0.9947 0.0318
vn 0.9469 -0.0933 0.3076
vn 0.2890 0.9527 0.0939
vn 0.9138 -0.2772 0.2969
vn 0.4660 0.8718 0.1514
vn 0.8478 -0.4532 0.2754
vn 0.6213 0.7571 0.2019
vn 0.7497 -0.6153 0.2436
vn 0.7497 0.6153 0.2436
vn 0.6213 -0.7571 0.2019
vn 0.8478 0.4532 0.2754
vn 0.4157 0.8088 0.4160
vn 0.6579 -0.3657 0.6583
vn 0.5265 0.6672 0.5268
vn 0.6053 -0.5166 0.6056
vn 0.6053 0.5166 0.6056
vn 0.5265 -0.6672 0.5268
vn 0.6579 0.3657 0.6583
vn 0.4157 -0.8088 0.4160
vn 0.6899 0.2177 0.6904
vn 0.2696 -0.9244 0.2698
vn 0.7051 0.0722 0.7055
vn 0.0939 0.9911 0.0939
vn 0.0939 -0.9911 0.0939
vn 0.7051 -0.0722 0.7055
vn 0.2696 0.9244 0.2698
vn 0.6900 -0.2177 0.6904
vn 0.4865 0.1665 0.8577
vn 0.2361 -0.8781 0.4162
vn 0.4926 0.0547 0.8685
vn 0.0859 0.9847 0.1515
vn 0.0859 -0.9847 0.1515
vn 0.4926 -0.0547 0.8685
vn 0.2361 0.8781 0.4162
vn 0.4865 -0.1665 0.8577
vn 0.3417 0.7213 0.6024
vn 0.4729 -0.2852 0.8337
vn 0.4083 0.5614 0.7198
vn 0.4487 -0.4156 0.7912
vn 0.4487 0.4156 0.7912
vn 0.4083 -0.5614 0.7198
vn 0.4729 0.2852 0.8337
vn 0.3417 -0.7213 0.6024
vn 0.3371 -0.2320 0.9125
vn 0.3044 0.4776 0.8241
vn 0.3254 -0.3438 0.8809
vn 0.3254 0.3438 0.8809
vn 0.3044 -0.4776 0.8241
vn 0.3371 0.2320 0.9125
vn 0.2660 -0.6408 0.7202
vn 0.3434 0.1341 0.9296
vn 0.1948 -0.8269 0.5275
vn 0.3462 0.0439 0.9371
vn 0.0747 0.9765 0.2022
vn 0.0747 -0.9765 0.2022
vn 0.3462 -0.0439 0.9371
vn 0.1948 0.8269 0.5275
vn 0.3434 -0.1341 0.9296
vn 0.2660 0.6408 0.7202
vn 0.1509 -0.7805 0.6066
vn 0.2413 0.0373 0.9697
vn 0.0608 0.9678 0.2442
vn 0.0608 -0.9678 0.2442
vn 0.2413 -0.0373 0.9697
vn 0.1509 0.7805 0.6066
vn 0.2399 -0.1141 0.9641
vn 0.1970 0.5782 0.7918
vn 0.2366 -0.1984 0.9511
vn 0.2192 0.4190 0.8811
vn 0.2306 -0.2968 0.9267
vn 0.2306 0.2968 0.9267
vn 0.2192 -0.4190 0.8811
vn 0.2366 0.1984 0.9511
vn 0.1970 -0.5782 0.7918
vn 0.2399 0.1141 0.9641
vn 0.1541 -0.2671 0.9513
vn 0.1541 0.2671 0.9513
vn 0.1479 -0.3805 0.9129
vn 0.1574 0.1776 0.9714
vn 0.1352 -0.5341 0.8345
vn 0.1591 0.1019 0.9820
vn 0.1069 -0.7439 0.6597
vn 0.1599 0.0332 0.9866
vn 0.0448 0.9600 0.2764
vn 0.0448 -0.9600 0.2764
vn 0.1599 -0.0332 0.9866
vn 0.1069 0.7439 0.6597
vn 0.1591 -0.1019 0.9820
vn 0.1352 0.5341 0.8345
vn 0.1574 -0.1776 0.9714
vn 0.1479 0.3805 0.9129
vn 0.0274 0.9542 0.2981
vn 0.0274 -0.9542 0.2981
vn 0.0915 -0.0309 0.9953
vn 0.0636 0.7192 0.6919
vn 0.0912 -0.0948 0.9913
vn 0.0790 0.5065 0.8586
vn 0.0903 -0.1655 0.9821
vn 0.0855 0.3573 0.9301
vn 0.0887 -0.2495 0.9643
vn 0.0887 0.2495 0.9643
vn 0.0855 -0.3573 0.9301
vn 0.0903 0.1655 0.9821
vn 0.0790 -0.5065 0.8586
vn 0.0912 0.0948 0.9913
vn 0.0636 -0.7192 0.6919
vn 0.0915 0.0309 0.9953
vn 0.0290 0.2413 0.9700
vn 0.0280 -0.3464 0.9377
vn 0.0295 0.1599 0.9867
vn 0.0260 -0.4932 0.8695
vn 0.0297 0.0915 0.9954
vn 0.0211 -0.7067 0.7072
vn 0.0298 0.0298 0.9991
vn 0.0092 0.9510 0.3090
vn 0.0092 -0.9510 0.3090
vn 0.0298 -0.0298 0.9991
vn 0.0211 0.7067 0.7072
vn 0.0297 -0.0915 0.9954
vn 0.0260 0.4932 0.8695
vn 0.0295 -0.1599 0.9867
vn 0.0280 0.3464 0.9377
vn 0.0290 -0.2413 0.9700
vn -0.0298 -0.0298 0.9991
vn -0.0211 0.7067 0.7072
vn -0.0297 -0.0915 0.9954
vn -0.0260 0.4932 0.8695
vn -0.0295 -0.1599 0.9867
vn -0.0280 0.3464 0.9377
vn -0.0290 -0.2413 0.9700
vn -0.0290 0.2413 0.9700
vn -0.0280 -0.3464 0.9377
vn -0.0295 0.1599 0.9867
vn -0.0260 -0.4932 0.8695
vn -0.0297 0.0915 0.9954
vn -0.0211 -0.7067 0.7072
vn -0.0298 0.0298 0.9991
vn -0.0092 0.9510 0.3090
vn -0.0092 -0.9510 0.3090
vn -0.0855 -0.3573 0.9301
vn -0.0903 0.1655 0.9821
vn -0.0790 -0.5065 0.8586
vn -0.0912 0.0948 0.9913
vn -0.0636 -0.7192 0.6919
vn -0.0915 0.0309 0.9953
vn -0.0274 0.9542 0.2981
vn -0.0274 -0.9542 0.2981
vn -0.0915 -0.0309 0.9953
vn -0.0636 0.7192 0.6919
vn -0.0912 -0.0948 0.9913
vn -0.0790 0.5065 0.8586
vn -0.0903 -0.1655 0.9821
vn -0.0855 0.3573 0.9301
vn -0.0887 -0.2495 0.9643
vn -0.0887 0.2495 0.9643
vn -0.1069 0.7439 0.6597
vn -0.1591 -0.1019 0.9820
vn -0.1352 0.5341 0.8345
vn -0.1574 -0.1776 0.9714
vn -0.1479 0.3805 0.9129
vn -0.1541 -0.2671 0.9513
vn -0.1541 0.2671 0.9513
vn -0.1479 -0.3805 0.9129
vn -0.1574 0.1776 0.9714
vn -0.1352 -0.5341 0.8345
vn -0.1591 0.1019 0.9820
vn -0.1069 -0.7439 0.6597
vn -0.1599 0.0332 0.9866
vn -0.0448 0.9600 0.2764
vn -0.0448 -0.9600 0.2764
vn -0.1599 -0.0332 0.9866
vn -0.2366 0.1984 0.9511
vn -0.1970 -0.5782 0.7918
vn -0.2399 0.1141 0.9641
vn -0.1509 -0.7805 0.6066
vn -0.2413 0.0373 0.9697
vn -0.0608 0.9678 0.2442
vn -0.0608 -0.9678 0.2442
vn -0.2413 -0.0373 0.9697
vn -0.1509 0.7805 0.6066
vn -0.2399 -0.1141 0.9641
vn -0.1970 0.5782 0.7918
vn -0.2366 -0.1984 0.9511
vn -0.2192 0.4190 0.8811
vn -0.2306 -0.2968 0.9267
vn -0.2306 0.2968 0.9267
vn -0.2192 -0.4190 0.8811
vn -0.3434 -0.1341 0.9296
vn -0.2660 0.6408 0.7202
vn -0.3371 -0.2320 0.9125
vn -0.3044 0.4776 0.8241
vn -0.3254 -0.3438 0.8809
vn -0.3254 0.3438 0.8809
vn -0.3044 -0.4776 0.8241
vn -0.3371 0.2320 0.9125
vn -0.2660 -0.6408 0.7202
vn -0.3434 0.1341 0.9296
vn -0.1948 -0.8269 0.5275
vn -0.3462 0.0439 0.9371
vn -0.0747 0.9765 0.2022
vn -0.0747 -0.9765 0.2022
vn -0.3462 -0.0439 0.9371
vn -0.1948 0.8269 0.5275
vn -0.3417 -0.7213 0.6024
vn -0.4865 0.1665 0.8577
vn -0.2361 -0.8781 0.4162
vn -0.4926 0.0547 0.8685
vn -0.0859 0.9847 0.1515
vn -0.0859 -0.9847 0.1515
vn -0.4926 -0.0547 0.8685
vn -0.2361 0.8781 0.4162
vn -0.4865 -0.1665 0.8577
vn -0.3417 0.7213 0.6024
vn -0.4729 -0.2852 0.8337
vn -0.4083 0.5614 0.7198
vn -0.4487 -0.4156 0.7912
vn -0.4487 0.4156 0.7912
vn -0.4083 -0.5614 0.7198
vn -0.4729 0.2852 0.8337
vn -0.6579 -0.3657 0.6583
vn -0.5265 0.6672 0.5268
vn -0.6053 -0.5166 0.6056
vn -0.6053 0.5166 0.6056
vn -0.5265 -0.6672 0.5268
vn -0.6579 0.3657 0.6583
vn -0.4157 -0.8088 0.4159
vn -0.6900 0.2177 0.6904
vn -0.2696 -0.9244 0.2698
vn -0.7051 0.0722 0.7055
vn -0.0939 0.9911 0.0939
vn -0.0939 -0.9911 0.0939
vn -0.7051 -0.0722 0.7055
vn -0.2696 0.9244 0.2698
vn -0.6900 -0.2177 0.6904
vn -0.4157 0.8088 0.4160
vn -0.2890 -0.9527 0.0939
vn -0.9469 0.0933 0.3076
vn -0.0980 0.9947 0.0318
vn -0.0980 -0.9947 0.0318
vn -0.9469 -0.0933 0.3076
vn -0.2890 0.9527 0.0939
vn -0.9138 -0.2772 0.2969
vn -0.4660 0.8718 0.1514
vn -0.8478 -0.4532 0.2754
vn -0.6213 0.7571 0.2019
vn -0.7497 -0.6153 0.2436
vn -0.7497 0.6153 0.2436
vn -0.6213 -0.7571 0.2019
vn -0.8478 0.4532 0.2754
vn -0.4660 -0.8718 0.1514
vn -0.9138 0.2772 0.2969
vn -0.6213 0.7571 -0.2019
vn -0.7497 -0.6153 -0.2436
vn -0.7497 0.6153 -0.2436
vn -0.6213 -0.7571 -0.2019
vn -0.8478 0.4532 -0.2754
vn -0.4660 -0.8718 -0.1514
vn -0.9138 0.2772 -0.2969
vn -0.2890 -0.9527 -0.0939
vn -0.9469 0.0933 -0.3076
vn -0.0980 0.9947 -0.0318
vn -0.0980 -0.9947 -0.0318
vn -0.9469 -0.0933 -0.3076
vn -0.2890 0.9527 -0.0939
vn -0.9138 -0.2772 -0.2969
vn -0.4660 0.8718 -0.1514
vn -0.8478 -0.4532 -0.2754
vn -0.7051 0.0722 -0.7055
vn -0.0939 0.9911 -0.0939
vn -0.0939 -0.9911 -0.0939
vn -0.7051 -0.0722 -0.7055
vn -0.2696 0.9244 -0.2698
vn -0.6900 -0.2177 -0.6904
vn -0.4157 0.8088 -0.4160
vn -0.6579 -0.3657 -0.6583
vn -0.5265 0.6672 -0.5268
vn -0.6053 -0.5166 -0.6056
vn -0.6053 0.5166 -0.6056
vn -0.5265 -0.6672 -0.5268
vn -0.6579 0.3657 -0.6583
vn -0.4157 -0.8088 -0.4159
vn -0.6899 0.2177 -0.6904
vn -0.2696 -0.9244 -0.2698
vn -0.4487 -0.4156 -0.7912
vn -0.4487 0.4156 -0.7912
vn -0.4083 -0.5614 -0.7198
vn -0.4729 0.2852 -0.8337
vn -0.3417 -0.7213 -0.6024
vn -0.4865 0.1665 -0.8577
vn -0.2361 -0.8781 -0.4162
vn -0.4926 0.0547 -0.8685
vn -0.0859 0.9847 -0.1515
vn -0.0859 -0.9847 -0.1515
vn -0.4926 -0.0547 -0.8685
vn -0.2361 0.8781 -0.4162
vn -0.4865 -0.1665 -0.8577
vn -0.3417 0.7213 -0.6024
vn -0.4729 -0.2852 -0.8337
vn -0.4083 0.5614 -0.7198
vn -0.0747 0.9765 -0.2022
vn -0.0747 -0.9765 -0.2022
vn -0.3462 -0.0439 -0.9371
vn -0.1948 0.8269 -0.5275
vn -0.3434 -0.1341 -0.9296
vn -0.2660 0.6408 -0.7202
vn -0.3371 -0.2320 -0.9125
vn -0.3044 0.4776 -0.8241
vn -0.3254 -0.3438 -0.8809
vn -0.3254 0.3438 -0.8809
vn -0.3044 -0.4776 -0.8241
vn -0.3371 0.2320 -0.9125
vn -0.2660 -0.6408 -0.7202
vn -0.3434 0.1341 -0.9296
vn -0.1948 -0.8269 -0.5275
vn -0.3462 0.0439 -0.9371
vn -0.2306 0.2968 -0.9267
vn -0.2192 -0.4190 -0.8811
vn -0.2366 0.1984 -0.9511
vn -0.1970 -0.5782 -0.7918
vn -0.2399 0.1141 -0.9641
vn -0.1509 -0.7805 -0.6066
vn -0.2413 0.0373 -0.9697
vn -0.0608 0.9678 -0.2442
vn -0.0608 -0.9678 -0.2442
vn -0.2413 -0.0373 -0.9697
vn -0.1509 0.7805 -0.6066
vn -0.2399 -0.1141 -0.9641
vn -0.1970 0.5782 -0.7918
vn -0.2366 -0.1984 -0.9511
vn -0.2192 0.4190 -0.8811
vn -0.2306 -0.2968 -0.9267
vn -0.1599 -0.0332 -0.9866
vn -0.1069 0.7439 -0.6597
vn -0.1591 -0.1019 -0.9820
vn -0.1352 0.5341 -0.8345
vn -0.1574 -0.1776 -0.9714
vn -0.1479 0.3805 -0.9129
vn -0.1541 -0.2671 -0.9513
vn -0.1541 0.2671 -0.9513
vn -0.1479 -0.3805 -0.9129
vn -0.1574 0.1776 -0.9714
vn -0.1352 -0.5341 -0.8345
vn -0.1591 0.1019 -0.9820
vn -0.1069 -0.7439 -0.6597
vn -0.1599 0.0332 -0.9866
vn -0.0448 0.9600 -0.2764
vn -0.0448 -0.9600 -0.2764
vn -0.0855 -0.3573 -0.9301
vn -0.0903 0.1655 -0.9821
vn -0.0790 -0.5065 -0.8586
vn -0.0912 0.0948 -0.9913
vn -0.0636 -0.7192 -0.6919
vn -0.0915 0.0309 -0.9953
vn -0.0274 0.9542 -0.2981
vn -0.0274 -0.9542 -0.2981
vn -0.0915 -0.0309 -0.9953
vn -0.0636 0.7192 -0.6919
vn -0.0912 -0.0948 -0.9913
vn -0.0790 0.5065 -0.8586
vn -0.0903 -0.1655 -0.9821
vn -0.0855 0.3573 -0.9301
vn -0.0887 -0.2495 -0.9643
vn -0.0887 0.2495 -0.9643
vn -0.0297 -0.0915 -0.9954
vn -0.0260 0.4932 -0.8695
vn -0.0295 -0.1599 -0.9867
vn -0.0280 0.3464 -0.9377
vn -0.0290 -0.2413 -0.9700
vn -0.0290 0.2413 -0.9700
vn -0.0280 -0.3464 -0.9377
vn -0.0295 0.1599 -0.9867
vn -0.0260 -0.4932 -0.8695
vn -0.0297 0.0915 -0.9954
vn -0.0211 -0.7067 -0.7072
vn -0.0298 0.0298 -0.9991
vn -0.0092 0.9510 -0.3090
vn -0.0092 -0.9510 -0.3090
vn -0.0298 -0.0298 -0.9991
vn -0.0211 0.7067 -0.7072
vn 0.9952 -0.0980 -0.0000
vn 0.9569 -0.2903 -0.0000
vn 0.8819 -0.4714 -0.0000
vn 0.7730 -0.6344 -0.0000
vn 0.6344 -0.7730 -0.0000
vn 0.4714 -0.8819 -0.0000
vn 0.2903 -0.9569 -0.0000
vn 0.0980 -0.9952 -0.0000
vn -0.0980 -0.9952 -0.0000
vn -0.2903 -0.9569 -0.0000
vn -0.4714 -0.8819 -0.0000
vn -0.6344 -0.7730 -0.0000
vn -0.7730 -0.6344 -0.0000
vn -0.8819 -0.4714 -0.0000
vn -0.9569 -0.2903 -0.0000
vn -0.9952 -0.0980 -0.0000
vn -0.9952 0.0980 -0.0000
vn -0.9569 0.2903 -0.0000
vn -0.8819 0.4714 -0.0000
vn -0.7730 0.6344 -0.0000
vn -0.6344 0.7730 -0.0000
vn -0.4714 0.8819 -0.0000
vn -0.2903 0.9569 -0.0000
vn -0.0980 0.9952 -0.0000
vn 0.0980 0.9952 -0.0000
vn 0.2903 0.9569 -0.0000
vn 0.4714 0.8819 -0.0000
vn 0.6344 0.7730 -0.0000
vn 0.7730 0.6344 -0.0000
vn 0.8819 0.4714 -0.0000
vn -0.0000 -0.0000 1.0000
vn 0.9569 0.2903 -0.0000
vn 0.9952 0.0980 -0.0000
vn -0.0000 -0.0000 -1.0000
vn 0.6900 0.2177 0.6904
vn 0.6899 -0.2177 0.6904
vn -0.4157 -0.8088 0.4160
vn -0.4157 0.8088 0.4159
vn -0.6899 -0.2177 -0.6904
vn -0.4157 0.8088 -0.4159
vn -0.4157 -0.8088 -0.4160
vn -0.6900 0.2177 -0.6904
vt 0.033519 0.286273
vt 0.014351 0.279642
vt 0.031576 0.269740
vt 0.294830 0.258456
vt 0.333835 0.212604
vt 0.337957 0.253865
vt 0.057247 0.283748
vt 0.054396 0.259660
vt 0.374227 0.212779
vt 0.377806 0.249623
vt 0.086947 0.280586
vt 0.083302 0.249632
vt 0.410100 0.214843
vt 0.413054 0.245870
vt 0.122194 0.276834
vt 0.117936 0.240062
vt 0.440469 0.218560
vt 0.442753 0.242709
vt 0.162043 0.272592
vt 0.157386 0.231388
vt 0.464900 0.223611
vt 0.466481 0.240183
vt 0.205170 0.268000
vt 0.200338 0.224010
vt 0.483824 0.229664
vt 0.484652 0.238248
vt 0.250000 0.263228
vt 0.245213 0.218258
vt 0.015348 0.288208
vt 0.000143 0.289827
vt 0.499857 0.236630
vt 0.290292 0.214434
vt 0.195356 0.181300
vt 0.240564 0.174588
vt 0.013134 0.271417
vt 0.483281 0.221367
vt 0.286172 0.171632
vt 0.029186 0.253780
vt 0.330368 0.172441
vt 0.050914 0.236338
vt 0.371467 0.176883
vt 0.078973 0.219624
vt 0.408014 0.184596
vt 0.113077 0.204390
vt 0.438963 0.195029
vt 0.152320 0.191395
vt 0.463876 0.207505
vt 0.406858 0.156068
vt 0.074098 0.191492
vt 0.107810 0.170884
vt 0.438351 0.172862
vt 0.147053 0.153795
vt 0.463582 0.192385
vt 0.190411 0.141124
vt 0.483183 0.213663
vt 0.236189 0.133488
vt 0.011608 0.263864
vt 0.282548 0.131316
vt 0.026290 0.238937
vt 0.327602 0.134575
vt 0.046846 0.214540
vt 0.369562 0.143019
vt 0.483581 0.206803
vt 0.279495 0.094740
vt 0.009775 0.257242
vt 0.022922 0.225734
vt 0.325560 0.100187
vt 0.042318 0.194997
vt 0.368512 0.112257
vt 0.068870 0.166139
vt 0.406631 0.130183
vt 0.102361 0.140590
vt 0.438663 0.152804
vt 0.141809 0.119748
vt 0.464095 0.178769
vt 0.185696 0.104725
vt 0.232222 0.096231
vt 0.439943 0.135531
vt 0.096887 0.114453
vt 0.136756 0.090304
vt 0.465449 0.167146
vt 0.181368 0.073225
vt 0.484484 0.201003
vt 0.228788 0.063967
vt 0.007672 0.251761
vt 0.277094 0.063034
vt 0.019152 0.214657
vt 0.324301 0.070339
vt 0.037430 0.178380
vt 0.368361 0.085554
vt 0.063422 0.144379
vt 0.407377 0.107764
vt 0.005341 0.247613
vt 0.015013 0.206100
vt 0.323984 0.045776
vt 0.032162 0.165236
vt 0.369293 0.063610
vt 0.057709 0.126867
vt 0.409274 0.089441
vt 0.091357 0.093198
vt 0.442326 0.121572
vt 0.131895 0.066225
vt 0.467694 0.157910
vt 0.177478 0.047411
vt 0.485889 0.196457
vt 0.225970 0.037499
vt 0.275462 0.036980
vt 0.085360 0.077079
vt 0.126881 0.047646
vt 0.470940 0.151333
vt 0.173835 0.027317
vt 0.487796 0.193341
vt 0.223769 0.016823
vt 0.002821 0.244969
vt 0.274793 0.016569
vt 0.010455 0.200354
vt 0.324974 0.026558
vt 0.026286 0.155925
vt 0.371761 0.046590
vt 0.051367 0.113951
vt 0.412755 0.075479
vt 0.446111 0.111233
vt 0.328094 0.011364
vt 0.005336 0.197643
vt 0.019285 0.150628
vt 0.376759 0.033683
vt 0.043480 0.105526
vt 0.418692 0.065583
vt 0.077758 0.065513
vt 0.451840 0.104581
vt 0.120633 0.033449
vt 0.475373 0.147606
vt 0.169696 0.011405
vt 0.490201 0.191792
vt 0.222022 0.000410
vt 0.000143 0.243961
vt 0.275489 0.000143
vt 0.994664 0.328813
vt 0.973714 0.370531
vt 0.989545 0.326103
vt 0.671906 0.515092
vt 0.725207 0.509887
vt 0.724511 0.526313
vt 0.999857 0.282496
vt 0.997179 0.281488
vt 0.776231 0.509633
vt 0.777978 0.526046
vt 0.509799 0.334665
vt 0.500143 0.289826
vt 0.512204 0.333115
vt 0.999857 0.236630
vt 0.830303 0.515051
vt 0.826165 0.499139
vt 0.529060 0.375123
vt 0.524627 0.378851
vt 0.879367 0.493007
vt 0.873119 0.478811
vt 0.553889 0.415223
vt 0.548160 0.421875
vt 0.922242 0.460943
vt 0.914640 0.449377
vt 0.587245 0.450977
vt 0.581308 0.460873
vt 0.956520 0.420930
vt 0.948633 0.412506
vt 0.628239 0.479866
vt 0.623241 0.492773
vt 0.980715 0.375828
vt 0.675026 0.499898
vt 0.557674 0.404884
vt 0.868105 0.460231
vt 0.908643 0.433258
vt 0.590726 0.437015
vt 0.942291 0.399589
vt 0.630707 0.462846
vt 0.967838 0.361220
vt 0.676016 0.480680
vt 0.984987 0.320356
vt 0.724538 0.489476
vt 0.994659 0.278843
vt 0.774030 0.488957
vt 0.514111 0.329999
vt 0.822522 0.479045
vt 0.532306 0.368546
vt 0.722906 0.463422
vt 0.980848 0.311800
vt 0.992328 0.274695
vt 0.771212 0.462489
vt 0.515516 0.325454
vt 0.818632 0.453231
vt 0.534551 0.359310
vt 0.863244 0.436153
vt 0.560057 0.390926
vt 0.903113 0.412003
vt 0.592623 0.418692
vt 0.936579 0.382077
vt 0.631639 0.440902
vt 0.962570 0.348076
vt 0.675699 0.456118
vt 0.858191 0.406709
vt 0.897639 0.385867
vt 0.593369 0.396274
vt 0.931130 0.360317
vt 0.631488 0.414200
vt 0.957682 0.331459
vt 0.674440 0.426270
vt 0.977078 0.300722
vt 0.720505 0.431716
vt 0.990225 0.269214
vt 0.767778 0.430225
vt 0.516419 0.319653
vt 0.814304 0.421731
vt 0.535905 0.347687
vt 0.561337 0.373652
vt 0.973710 0.287519
vt 0.988392 0.262592
vt 0.763811 0.392968
vt 0.516817 0.312793
vt 0.809589 0.385332
vt 0.536418 0.334071
vt 0.852947 0.372661
vt 0.561649 0.353594
vt 0.892190 0.355573
vt 0.593142 0.370388
vt 0.925902 0.334964
vt 0.630438 0.383437
vt 0.953154 0.311916
vt 0.672398 0.391882
vt 0.717452 0.395140
vt 0.886923 0.322067
vt 0.921027 0.306832
vt 0.628533 0.349573
vt 0.949086 0.290118
vt 0.669632 0.354015
vt 0.970814 0.272677
vt 0.713828 0.354824
vt 0.986866 0.255039
vt 0.759436 0.351868
vt 0.516719 0.305089
vt 0.804644 0.345156
vt 0.536124 0.318951
vt 0.847680 0.335061
vt 0.561037 0.331427
vt 0.591986 0.341860
vt 0.516176 0.296792
vt 0.985649 0.246814
vt 0.754787 0.308198
vt 0.799662 0.302446
vt 0.535100 0.302845
vt 0.842614 0.295069
vt 0.559531 0.307896
vt 0.882064 0.286394
vt 0.589900 0.311613
vt 0.916698 0.276824
vt 0.625773 0.313677
vt 0.945604 0.266796
vt 0.666165 0.313852
vt 0.968424 0.256716
vt 0.709708 0.312022
vt 0.622194 0.276834
vt 0.913053 0.245870
vt 0.942753 0.242709
vt 0.662043 0.272591
vt 0.966481 0.240183
vt 0.705170 0.268000
vt 0.984652 0.238248
vt 0.750000 0.263228
vt 0.515348 0.288208
vt 0.794830 0.258456
vt 0.533519 0.286273
vt 0.837957 0.253865
vt 0.557247 0.283747
vt 0.877806 0.249622
vt 0.586946 0.280586
vt 0.790292 0.214434
vt 0.514351 0.279642
vt 0.531576 0.269740
vt 0.833835 0.212604
vt 0.554396 0.259660
vt 0.874227 0.212779
vt 0.583302 0.249632
vt 0.910100 0.214843
vt 0.617936 0.240062
vt 0.940469 0.218560
vt 0.657386 0.231387
vt 0.964900 0.223611
vt 0.700338 0.224010
vt 0.983823 0.229664
vt 0.745213 0.218258
vt 0.938963 0.195029
vt 0.613077 0.204389
vt 0.652320 0.191395
vt 0.963876 0.207505
vt 0.695356 0.181300
vt 0.983281 0.221367
vt 0.740564 0.174588
vt 0.513134 0.271417
vt 0.786172 0.171632
vt 0.529186 0.253779
vt 0.830368 0.172441
vt 0.550914 0.236338
vt 0.871467 0.176883
vt 0.578973 0.219624
vt 0.908014 0.184596
vt 0.511608 0.263864
vt 0.526290 0.238937
vt 0.827602 0.134575
vt 0.546846 0.214540
vt 0.869562 0.143019
vt 0.574098 0.191492
vt 0.906858 0.156068
vt 0.607810 0.170884
vt 0.938351 0.172862
vt 0.647053 0.153795
vt 0.963582 0.192385
vt 0.690411 0.141124
vt 0.983183 0.213663
vt 0.736189 0.133488
vt 0.782548 0.131316
vt 0.602361 0.140589
vt 0.641809 0.119748
vt 0.964095 0.178769
vt 0.685696 0.104725
vt 0.983581 0.206803
vt 0.732222 0.096231
vt 0.509775 0.257242
vt 0.779495 0.094740
vt 0.522922 0.225734
vt 0.825560 0.100187
vt 0.542318 0.194997
vt 0.868512 0.112256
vt 0.568870 0.166139
vt 0.906631 0.130182
vt 0.938663 0.152804
vt 0.824301 0.070338
vt 0.519152 0.214656
vt 0.537430 0.178380
vt 0.868361 0.085554
vt 0.563421 0.144379
vt 0.907377 0.107764
vt 0.596887 0.114453
vt 0.939943 0.135531
vt 0.636756 0.090303
vt 0.965449 0.167146
vt 0.681368 0.073225
vt 0.984484 0.201002
vt 0.728788 0.063967
vt 0.507671 0.251761
vt 0.777094 0.063034
vt 0.967694 0.157910
vt 0.631895 0.066225
vt 0.677478 0.047411
vt 0.985889 0.196457
vt 0.725970 0.037499
vt 0.505341 0.247613
vt 0.775462 0.036980
vt 0.515013 0.206100
vt 0.823984 0.045776
vt 0.532162 0.165236
vt 0.869293 0.063610
vt 0.557709 0.126867
vt 0.909274 0.089441
vt 0.591357 0.093198
vt 0.942326 0.121572
vt 0.871761 0.046590
vt 0.526286 0.155925
vt 0.551367 0.113950
vt 0.912755 0.075479
vt 0.585360 0.077079
vt 0.946111 0.111233
vt 0.626881 0.047646
vt 0.970940 0.151333
vt 0.673835 0.027317
vt 0.987796 0.193341
vt 0.723769 0.016823
vt 0.502821 0.244969
vt 0.774793 0.016569
vt 0.510455 0.200353
vt 0.824974 0.026558
vt 0.990201 0.191791
vt 0.669697 0.011405
vt 0.722022 0.000410
vt 0.500143 0.243960
vt 0.775489 0.000143
vt 0.505336 0.197643
vt 0.828094 0.011364
vt 0.519285 0.150628
vt 0.876759 0.033683
vt 0.543480 0.105526
vt 0.918692 0.065583
vt 0.577758 0.065513
vt 0.951840 0.104581
vt 0.620633 0.033449
vt 0.975373 0.147605
vt 0.048160 0.421876
vt 0.087245 0.450977
vt 0.081308 0.460874
vt 0.456520 0.420930
vt 0.414640 0.449377
vt 0.448633 0.412506
vt 0.128239 0.479866
vt 0.123242 0.492773
vt 0.480715 0.375828
vt 0.473714 0.370531
vt 0.175026 0.499898
vt 0.171906 0.515092
vt 0.494664 0.328813
vt 0.489545 0.326103
vt 0.225207 0.509887
vt 0.224511 0.526313
vt 0.499857 0.282496
vt 0.497179 0.281488
vt 0.276231 0.509633
vt 0.277978 0.526046
vt 0.009799 0.334665
vt 0.012204 0.333115
vt 0.330304 0.515051
vt 0.326165 0.499139
vt 0.029060 0.375124
vt 0.024627 0.378851
vt 0.379367 0.493007
vt 0.373119 0.478811
vt 0.053889 0.415223
vt 0.422242 0.460943
vt 0.274030 0.488957
vt 0.014111 0.329999
vt 0.494659 0.278843
vt 0.322522 0.479045
vt 0.032306 0.368547
vt 0.368105 0.460231
vt 0.057674 0.404884
vt 0.408643 0.433258
vt 0.090726 0.437015
vt 0.442291 0.399589
vt 0.130707 0.462846
vt 0.467838 0.361220
vt 0.176016 0.480680
vt 0.484987 0.320356
vt 0.224538 0.489476
vt 0.403113 0.412003
vt 0.436579 0.382077
vt 0.131639 0.440902
vt 0.462570 0.348076
vt 0.175699 0.456118
vt 0.480848 0.311800
vt 0.222906 0.463422
vt 0.492328 0.274695
vt 0.271212 0.462489
vt 0.015516 0.325454
vt 0.318632 0.453231
vt 0.034551 0.359310
vt 0.363244 0.436153
vt 0.060057 0.390926
vt 0.092623 0.418692
vt 0.016419 0.319653
vt 0.490225 0.269214
vt 0.267778 0.430225
vt 0.314304 0.421731
vt 0.035905 0.347687
vt 0.358191 0.406709
vt 0.061337 0.373652
vt 0.397639 0.385867
vt 0.093369 0.396274
vt 0.431130 0.360317
vt 0.131488 0.414200
vt 0.457682 0.331459
vt 0.174440 0.426270
vt 0.477078 0.300722
vt 0.220505 0.431716
vt 0.130438 0.383437
vt 0.425902 0.334964
vt 0.453154 0.311916
vt 0.172398 0.391882
vt 0.473710 0.287519
vt 0.217452 0.395140
vt 0.488392 0.262592
vt 0.263811 0.392968
vt 0.016817 0.312793
vt 0.309589 0.385332
vt 0.036418 0.334071
vt 0.352947 0.372661
vt 0.061649 0.353594
vt 0.392190 0.355573
vt 0.093142 0.370388
vt 0.259436 0.351868
vt 0.304644 0.345156
vt 0.036124 0.318951
vt 0.347680 0.335061
vt 0.061037 0.331427
vt 0.386923 0.322067
vt 0.091986 0.341860
vt 0.421027 0.306832
vt 0.128533 0.349573
vt 0.449086 0.290118
vt 0.169632 0.354015
vt 0.470814 0.272677
vt 0.213828 0.354824
vt 0.486866 0.255039
vt 0.016719 0.305089
vt 0.416698 0.276824
vt 0.445604 0.266797
vt 0.166165 0.313853
vt 0.468424 0.256716
vt 0.209708 0.312022
vt 0.485649 0.246814
vt 0.254787 0.308198
vt 0.016176 0.296792
vt 0.299662 0.302446
vt 0.035100 0.302846
vt 0.342614 0.295069
vt 0.059531 0.307896
vt 0.382064 0.286394
vt 0.089900 0.311614
vt 0.125773 0.313677
vt 0.070221 0.892491
vt 0.063850 0.526599
vt 0.070221 0.526599
vt 0.063850 0.892491
vt 0.057479 0.526599
vt 0.057479 0.892491
vt 0.051109 0.526599
vt 0.051109 0.892491
vt 0.044738 0.526599
vt 0.044738 0.892491
vt 0.038367 0.526599
vt 0.038367 0.892491
vt 0.031996 0.526599
vt 0.031996 0.892491
vt 0.025626 0.526599
vt 0.025626 0.892491
vt 0.019255 0.526599
vt 0.019255 0.892491
vt 0.012884 0.526599
vt 0.012884 0.892491
vt 0.006514 0.526599
vt 0.006514 0.892491
vt 0.000143 0.526599
vt 0.204006 0.892491
vt 0.197635 0.526599
vt 0.204006 0.526599
vt 0.197635 0.892491
vt 0.191264 0.526599
vt 0.191264 0.892491
vt 0.184893 0.526599
vt 0.184893 0.892491
vt 0.178523 0.526599
vt 0.178523 0.892491
vt 0.172152 0.526599
vt 0.172152 0.892491
vt 0.165781 0.526599
vt 0.165781 0.892491
vt 0.159411 0.526599
vt 0.159411 0.892491
vt 0.153040 0.526599
vt 0.153040 0.892491
vt 0.146669 0.526599
vt 0.146669 0.892491
vt 0.140299 0.526599
vt 0.140299 0.892491
vt 0.133928 0.526599
vt 0.133928 0.892491
vt 0.127557 0.526599
vt 0.127557 0.892491
vt 0.121186 0.526599
vt 0.121186 0.892491
vt 0.114816 0.526599
vt 0.114816 0.892491
vt 0.108445 0.526599
vt 0.108445 0.892491
vt 0.102074 0.526599
vt 0.102074 0.892491
vt 0.095704 0.526599
vt 0.095704 0.892491
vt 0.089333 0.526599
vt 0.089333 0.892491
vt 0.082962 0.526599
vt 0.216016 0.584062
vt 0.211511 0.538324
vt 0.257249 0.533819
vt 0.082962 0.892491
vt 0.076591 0.526599
vt 0.076591 0.892491
vt 0.316921 0.530280
vt 0.330262 0.574260
vt 0.286282 0.587601
vt 0.000143 0.892491
vt 0.261754 0.538324
vt 0.268974 0.555755
vt 0.265293 0.543621
vt 0.267731 0.549507
vt 0.268974 0.562126
vt 0.267731 0.568374
vt 0.265293 0.574260
vt 0.261754 0.579557
vt 0.257249 0.584062
vt 0.251952 0.587601
vt 0.246066 0.590039
vt 0.239818 0.591282
vt 0.233447 0.591282
vt 0.227199 0.590039
vt 0.221313 0.587601
vt 0.211511 0.579557
vt 0.207972 0.574260
vt 0.205534 0.568374
vt 0.204291 0.562126
vt 0.204291 0.555755
vt 0.205534 0.549507
vt 0.207972 0.543621
vt 0.216016 0.533819
vt 0.221313 0.530280
vt 0.227199 0.527842
vt 0.233447 0.526599
vt 0.239818 0.526599
vt 0.246066 0.527842
vt 0.251952 0.530280
vt 0.322218 0.533819
vt 0.326723 0.538324
vt 0.330262 0.543621
vt 0.332700 0.549507
vt 0.333943 0.555755
vt 0.333943 0.562126
vt 0.332700 0.568374
vt 0.326723 0.579557
vt 0.322218 0.584062
vt 0.316921 0.587601
vt 0.311035 0.590039
vt 0.304787 0.591282
vt 0.298416 0.591282
vt 0.292168 0.590039
vt 0.280985 0.584062
vt 0.270503 0.568374
vt 0.276480 0.579557
vt 0.272941 0.574260
vt 0.269260 0.562126
vt 0.269260 0.555755
vt 0.270503 0.549507
vt 0.272941 0.543621
vt 0.276480 0.538324
vt 0.280985 0.533819
vt 0.286282 0.530280
vt 0.292168 0.527842
vt 0.298416 0.526599
vt 0.304787 0.526599
vt 0.311035 0.527842
s 0
usemtl マテリアル.002
f 475/1/1 9/2/1 10/3/1
f 6/4/2 18/5/2 478/6/2
f 2/7/3 10/3/3 11/8/3
f 478/6/4 19/9/4 7/10/4
f 476/11/5 11/8/5 12/12/5
f 7/10/6 20/13/6 479/14/6
f 3/15/7 12/12/7 13/16/7
f 479/14/8 21/17/8 480/18/8
f 477/19/9 13/16/9 14/20/9
f 480/18/10 22/21/10 481/22/10
f 4/23/11 14/20/11 15/24/11
f 481/22/12 23/25/12 482/26/12
f 5/27/13 15/24/13 16/28/13
f 474/29/14 1/30/14 9/2/14
f 8/31/15 482/26/15 23/25/15
f 5/27/16 17/32/16 6/4/16
f 16/28/17 30/33/17 31/34/17
f 9/2/18 1/30/18 24/35/18
f 8/31/19 23/25/19 38/36/19
f 16/28/20 32/37/20 17/32/20
f 10/3/21 24/35/21 25/38/21
f 17/32/22 33/39/22 18/5/22
f 11/8/23 25/38/23 26/40/23
f 18/5/24 34/41/24 19/9/24
f 12/12/25 26/40/25 27/42/25
f 19/9/26 35/43/26 20/13/26
f 13/16/27 27/42/27 28/44/27
f 20/13/28 36/45/28 21/17/28
f 14/20/29 28/44/29 29/46/29
f 21/17/30 37/47/30 22/21/30
f 15/24/31 29/46/31 30/33/31
f 22/21/32 38/36/32 23/25/32
f 34/41/33 50/48/33 35/43/33
f 28/44/34 42/49/34 43/50/34
f 35/43/35 51/51/35 36/45/35
f 29/46/36 43/50/36 44/52/36
f 36/45/37 52/53/37 37/47/37
f 30/33/38 44/52/38 45/54/38
f 37/47/39 53/55/39 38/36/39
f 31/34/40 45/54/40 46/56/40
f 24/35/41 1/30/41 39/57/41
f 8/31/42 38/36/42 53/55/42
f 31/34/43 47/58/43 32/37/43
f 25/38/44 39/57/44 40/59/44
f 32/37/45 48/60/45 33/39/45
f 26/40/46 40/59/46 41/61/46
f 33/39/47 49/62/47 34/41/47
f 27/42/48 41/61/48 42/49/48
f 8/31/49 53/55/49 68/63/49
f 46/56/50 62/64/50 47/58/50
f 40/59/51 54/65/51 55/66/51
f 47/58/52 63/67/52 48/60/52
f 41/61/53 55/66/53 56/68/53
f 48/60/54 64/69/54 49/62/54
f 42/49/55 56/68/55 57/70/55
f 49/62/56 65/71/56 50/48/56
f 43/50/57 57/70/57 58/72/57
f 50/48/58 66/73/58 51/51/58
f 44/52/59 58/72/59 59/74/59
f 51/51/60 67/75/60 52/53/60
f 45/54/61 59/74/61 60/76/61
f 52/53/62 68/63/62 53/55/62
f 46/56/63 60/76/63 61/77/63
f 39/57/64 1/30/64 54/65/64
f 65/71/65 81/78/65 66/73/65
f 59/74/66 73/79/66 74/80/66
f 66/73/67 82/81/67 67/75/67
f 60/76/68 74/80/68 75/82/68
f 67/75/69 83/83/69 68/63/69
f 61/77/70 75/82/70 76/84/70
f 54/65/71 1/30/71 69/85/71
f 8/31/72 68/63/72 83/83/72
f 61/77/73 77/86/73 62/64/73
f 55/66/74 69/85/74 70/87/74
f 62/64/75 78/88/75 63/67/75
f 56/68/76 70/87/76 71/89/76
f 63/67/77 79/90/77 64/69/77
f 57/70/78 71/89/78 72/91/78
f 64/69/79 80/92/79 65/71/79
f 58/72/80 72/91/80 73/79/80
f 70/87/81 84/93/81 85/94/81
f 77/86/82 93/95/82 78/88/82
f 71/89/83 85/94/83 86/96/83
f 78/88/84 94/97/84 79/90/84
f 72/91/85 86/96/85 87/98/85
f 79/90/86 95/99/86 80/92/86
f 73/79/87 87/98/87 88/100/87
f 80/92/88 96/101/88 81/78/88
f 74/80/89 88/100/89 89/102/89
f 81/78/90 97/103/90 82/81/90
f 75/82/91 89/102/91 90/104/91
f 82/81/92 98/105/92 83/83/92
f 76/84/93 90/104/93 91/106/93
f 69/85/94 1/30/94 84/93/94
f 8/31/95 83/83/95 98/105/95
f 76/84/96 92/107/96 77/86/96
f 89/102/97 103/108/97 104/109/97
f 96/101/98 112/110/98 97/103/98
f 90/104/99 104/109/99 105/111/99
f 97/103/100 113/112/100 98/105/100
f 91/106/101 105/111/101 106/113/101
f 84/93/102 1/30/102 99/114/102
f 8/31/103 98/105/103 113/112/103
f 91/106/104 107/115/104 92/107/104
f 85/94/105 99/114/105 100/116/105
f 92/107/106 108/117/106 93/95/106
f 86/96/107 100/116/107 101/118/107
f 93/95/108 109/119/108 94/97/108
f 87/98/109 101/118/109 102/120/109
f 94/97/110 110/121/110 95/99/110
f 88/100/111 102/120/111 103/108/111
f 95/99/112 111/122/112 96/101/112
f 107/115/113 123/123/113 108/117/113
f 101/118/114 115/124/114 116/125/114
f 108/117/115 124/126/115 109/119/115
f 102/120/116 116/125/116 117/127/116
f 109/119/117 125/128/117 110/121/117
f 103/108/118 117/127/118 118/129/118
f 110/121/119 126/130/119 111/122/119
f 104/109/120 118/129/120 119/131/120
f 111/122/121 127/132/121 112/110/121
f 105/111/122 119/131/122 120/133/122
f 112/110/123 128/134/123 113/112/123
f 106/113/124 120/133/124 121/135/124
f 99/114/125 1/30/125 114/136/125
f 8/31/126 113/112/126 128/134/126
f 106/113/127 122/137/127 107/115/127
f 100/116/128 114/136/128 115/124/128
f 127/138/129 141/139/129 142/140/129
f 119/141/130 135/142/130 120/143/130
f 128/144/131 142/140/131 143/145/131
f 120/143/132 136/146/132 121/147/132
f 114/148/133 1/149/133 129/150/133
f 8/151/134 128/144/134 143/145/134
f 122/152/135 136/146/135 137/153/135
f 114/148/136 130/154/136 115/155/136
f 123/156/137 137/153/137 138/157/137
f 115/155/138 131/158/138 116/159/138
f 124/160/139 138/157/139 139/161/139
f 116/159/140 132/162/140 117/163/140
f 125/164/141 139/161/141 140/165/141
f 117/163/142 133/166/142 118/167/142
f 126/168/143 140/165/143 141/139/143
f 118/167/144 134/169/144 119/141/144
f 130/154/145 146/170/145 131/158/145
f 139/161/146 153/171/146 154/172/146
f 131/158/147 147/173/147 132/162/147
f 140/165/148 154/172/148 155/174/148
f 132/162/149 148/175/149 133/166/149
f 141/139/150 155/174/150 156/176/150
f 133/166/151 149/177/151 134/169/151
f 142/140/152 156/176/152 157/178/152
f 134/169/153 150/179/153 135/142/153
f 143/145/154 157/178/154 158/180/154
f 135/142/155 151/181/155 136/146/155
f 129/150/156 1/149/156 144/182/156
f 8/151/157 143/145/157 158/180/157
f 137/153/158 151/181/158 152/183/158
f 129/150/159 145/184/159 130/154/159
f 138/157/160 152/183/160 153/171/160
f 149/177/161 165/185/161 150/179/161
f 158/180/162 172/186/162 173/187/162
f 150/179/163 166/188/163 151/181/163
f 144/182/164 1/149/164 159/189/164
f 8/151/165 158/180/165 173/187/165
f 152/183/166 166/188/166 167/190/166
f 144/182/167 160/191/167 145/184/167
f 153/171/168 167/190/168 168/192/168
f 145/184/169 161/193/169 146/170/169
f 154/172/170 168/192/170 169/194/170
f 146/170/171 162/195/171 147/173/171
f 155/174/172 169/194/172 170/196/172
f 147/173/173 163/197/173 148/175/173
f 156/176/174 170/196/174 171/198/174
f 148/175/175 164/199/175 149/177/175
f 157/178/176 171/198/176 172/186/176
f 169/194/177 183/200/177 184/201/177
f 161/193/178 177/202/178 162/195/178
f 170/196/179 184/201/179 185/203/179
f 162/195/180 178/204/180 163/197/180
f 171/198/181 185/203/181 186/205/181
f 163/197/182 179/206/182 164/199/182
f 172/186/183 186/205/183 187/207/183
f 164/199/184 180/208/184 165/185/184
f 173/187/185 187/207/185 188/209/185
f 165/185/186 181/210/186 166/188/186
f 159/189/187 1/149/187 174/211/187
f 8/151/188 173/187/188 188/209/188
f 167/190/189 181/210/189 182/212/189
f 159/189/190 175/213/190 160/191/190
f 168/192/191 182/212/191 183/200/191
f 160/191/192 176/214/192 161/193/192
f 188/209/193 202/215/193 203/216/193
f 180/208/194 196/217/194 181/210/194
f 174/211/195 1/149/195 189/218/195
f 8/151/196 188/209/196 203/216/196
f 182/212/197 196/217/197 197/219/197
f 174/211/198 190/220/198 175/213/198
f 183/200/199 197/219/199 198/221/199
f 175/213/200 191/222/200 176/214/200
f 184/201/201 198/221/201 199/223/201
f 176/214/202 192/224/202 177/202/202
f 185/203/203 199/223/203 200/225/203
f 177/202/204 193/226/204 178/204/204
f 186/205/205 200/225/205 201/227/205
f 178/204/206 194/228/206 179/206/206
f 187/207/207 201/227/207 202/215/207
f 179/206/208 195/229/208 180/208/208
f 200/225/209 214/230/209 215/231/209
f 192/224/210 208/232/210 193/226/210
f 201/227/211 215/231/211 216/233/211
f 193/226/212 209/234/212 194/228/212
f 202/215/213 216/233/213 217/235/213
f 194/228/214 210/236/214 195/229/214
f 203/216/215 217/235/215 218/237/215
f 195/229/216 211/238/216 196/217/216
f 189/218/217 1/149/217 204/239/217
f 8/151/218 203/216/218 218/237/218
f 197/219/219 211/238/219 212/240/219
f 189/218/220 205/241/220 190/220/220
f 198/221/221 212/240/221 213/242/221
f 190/220/222 206/243/222 191/222/222
f 199/223/223 213/242/223 214/230/223
f 191/222/224 207/244/224 192/224/224
f 204/239/225 1/149/225 219/245/225
f 8/151/226 218/237/226 233/246/226
f 212/240/227 226/247/227 227/248/227
f 204/239/228 220/249/228 205/241/228
f 213/242/229 227/248/229 228/250/229
f 205/241/230 221/251/230 206/243/230
f 214/230/231 228/250/231 229/252/231
f 206/243/232 222/253/232 207/244/232
f 215/231/233 229/252/233 230/254/233
f 207/244/234 223/255/234 208/232/234
f 216/233/235 230/254/235 231/256/235
f 208/232/236 224/257/236 209/234/236
f 217/235/237 231/256/237 232/258/237
f 209/234/238 225/259/238 210/236/238
f 218/237/239 232/258/239 233/246/239
f 210/236/240 226/247/240 211/238/240
f 222/253/241 238/260/241 223/255/241
f 231/256/242 245/261/242 246/262/242
f 223/255/243 239/263/243 224/257/243
f 232/258/244 246/262/244 247/264/244
f 224/257/245 240/265/245 225/259/245
f 233/246/246 247/264/246 248/266/246
f 225/259/247 241/267/247 226/247/247
f 219/245/248 1/149/248 234/268/248
f 8/151/249 233/246/249 248/266/249
f 227/248/250 241/267/250 242/269/250
f 219/245/251 235/270/251 220/249/251
f 228/250/252 242/269/252 243/271/252
f 220/249/253 236/272/253 221/251/253
f 229/252/254 243/271/254 244/273/254
f 221/251/255 237/274/255 222/253/255
f 230/254/256 244/273/256 245/261/256
f 241/267/257 257/275/257 242/269/257
f 235/270/258 249/276/258 250/277/258
f 242/269/259 258/278/259 243/271/259
f 236/272/260 250/277/260 251/279/260
f 243/271/261 259/280/261 244/273/261
f 237/274/262 251/279/262 252/281/262
f 244/273/263 260/282/263 245/261/263
f 238/260/264 252/281/264 253/283/264
f 245/261/265 261/284/265 246/262/265
f 239/263/266 253/283/266 254/285/266
f 246/262/267 262/286/267 247/264/267
f 240/265/268 254/285/268 255/287/268
f 247/264/269 263/288/269 248/266/269
f 241/267/270 255/287/270 256/289/270
f 234/268/271 1/149/271 249/276/271
f 8/151/272 248/266/272 263/288/272
f 260/282/273 276/290/273 261/284/273
f 254/285/274 268/291/274 269/292/274
f 261/284/275 277/293/275 262/286/275
f 255/287/276 269/292/276 270/294/276
f 262/286/277 278/295/277 263/288/277
f 256/289/278 270/294/278 271/296/278
f 249/276/279 1/149/279 264/297/279
f 8/151/280 263/288/280 278/295/280
f 256/289/281 272/298/281 257/275/281
f 250/277/282 264/297/282 265/299/282
f 257/275/283 273/300/283 258/278/283
f 251/279/284 265/299/284 266/301/284
f 258/278/285 274/302/285 259/280/285
f 252/281/286 266/301/286 267/303/286
f 259/280/287 275/304/287 260/282/287
f 253/283/288 267/303/288 268/291/288
f 265/299/289 279/305/289 280/306/289
f 272/298/290 288/307/290 273/300/290
f 266/301/291 280/306/291 281/308/291
f 273/300/292 289/309/292 274/302/292
f 267/303/293 281/308/293 282/310/293
f 274/302/294 290/311/294 275/304/294
f 268/291/295 282/310/295 283/312/295
f 275/304/296 291/313/296 276/290/296
f 269/292/297 283/312/297 284/314/297
f 276/290/298 292/315/298 277/293/298
f 270/294/299 284/314/299 285/316/299
f 277/293/300 293/317/300 278/295/300
f 271/296/301 285/316/301 286/318/301
f 264/297/302 1/149/302 279/305/302
f 8/151/303 278/295/303 293/317/303
f 271/296/304 287/319/304 272/298/304
f 284/314/305 298/320/305 299/321/305
f 291/313/306 307/322/306 292/315/306
f 285/316/307 299/321/307 300/323/307
f 292/315/308 308/324/308 293/317/308
f 286/318/309 300/323/309 301/325/309
f 279/305/310 1/149/310 294/326/310
f 8/151/311 293/317/311 308/324/311
f 286/318/312 302/327/312 287/319/312
f 280/306/313 294/326/313 295/328/313
f 287/319/314 303/329/314 288/307/314
f 281/308/315 295/328/315 296/330/315
f 288/307/316 304/331/316 289/309/316
f 282/310/317 296/330/317 297/332/317
f 289/309/318 305/333/318 290/311/318
f 283/312/319 297/332/319 298/320/319
f 290/311/320 306/334/320 291/313/320
f 302/327/321 318/335/321 303/329/321
f 296/330/322 310/336/322 311/337/322
f 303/329/323 319/338/323 304/331/323
f 297/332/324 311/337/324 312/339/324
f 304/331/325 320/340/325 305/333/325
f 298/320/326 312/339/326 313/341/326
f 305/333/327 321/342/327 306/334/327
f 299/321/328 313/341/328 314/343/328
f 306/334/329 322/344/329 307/322/329
f 300/323/330 314/343/330 315/345/330
f 307/322/331 323/346/331 308/324/331
f 301/325/332 315/345/332 316/347/332
f 294/326/333 1/149/333 309/348/333
f 8/151/334 308/324/334 323/346/334
f 301/325/335 317/349/335 302/327/335
f 295/328/336 309/348/336 310/336/336
f 321/342/337 337/350/337 322/344/337
f 315/345/338 329/351/338 330/352/338
f 322/344/339 338/353/339 323/346/339
f 316/347/340 330/352/340 331/354/340
f 309/348/341 1/149/341 324/355/341
f 8/151/342 323/346/342 338/353/342
f 316/347/343 332/356/343 317/349/343
f 310/336/344 324/355/344 325/357/344
f 317/349/345 333/358/345 318/335/345
f 311/337/346 325/357/346 326/359/346
f 318/335/347 334/360/347 319/338/347
f 312/339/348 326/359/348 327/361/348
f 319/338/349 335/362/349 320/340/349
f 313/341/350 327/361/350 328/363/350
f 320/340/351 336/364/351 321/342/351
f 314/343/352 328/363/352 329/351/352
f 333/358/353 349/365/353 334/360/353
f 327/361/354 341/366/354 342/367/354
f 334/360/355 350/368/355 335/362/355
f 328/363/356 342/367/356 343/369/356
f 335/362/357 351/370/357 336/364/357
f 329/351/358 343/369/358 344/371/358
f 336/364/359 352/372/359 337/350/359
f 330/352/360 344/371/360 345/373/360
f 337/350/361 353/374/361 338/353/361
f 331/354/362 345/373/362 346/375/362
f 324/355/363 1/149/363 339/376/363
f 8/151/364 338/353/364 353/374/364
f 331/354/365 347/377/365 332/356/365
f 325/357/366 339/376/366 340/378/366
f 332/356/367 348/379/367 333/358/367
f 326/359/368 340/378/368 341/366/368
f 352/372/369 368/380/369 353/374/369
f 346/375/370 360/381/370 361/382/370
f 339/376/371 1/149/371 354/383/371
f 8/151/372 353/374/372 368/380/372
f 346/375/373 362/384/373 347/377/373
f 340/378/374 354/383/374 355/385/374
f 347/377/375 363/386/375 348/379/375
f 341/366/376 355/385/376 356/387/376
f 348/379/377 364/388/377 349/365/377
f 342/367/378 356/387/378 357/389/378
f 349/365/379 365/390/379 350/368/379
f 343/369/380 357/389/380 358/391/380
f 350/368/381 366/392/381 351/370/381
f 344/371/382 358/391/382 359/393/382
f 351/370/383 367/394/383 352/372/383
f 345/373/384 359/393/384 360/381/384
f 356/395/385 372/396/385 357/397/385
f 365/398/386 379/399/386 380/400/386
f 357/397/387 373/401/387 358/402/387
f 366/403/388 380/400/388 381/404/388
f 358/402/389 374/405/389 359/406/389
f 367/407/390 381/404/390 382/408/390
f 359/406/391 375/409/391 360/410/391
f 368/411/392 382/408/392 383/412/392
f 360/410/393 376/413/393 361/414/393
f 354/415/394 1/30/394 369/416/394
f 8/31/395 368/411/395 383/412/395
f 362/417/396 376/413/396 377/418/396
f 354/415/397 370/419/397 355/420/397
f 363/421/398 377/418/398 378/422/398
f 355/420/399 371/423/399 356/395/399
f 364/424/400 378/422/400 379/399/400
f 375/409/401 391/425/401 376/413/401
f 369/416/402 1/30/402 384/426/402
f 8/31/403 383/412/403 398/427/403
f 377/418/404 391/425/404 392/428/404
f 369/416/405 385/429/405 370/419/405
f 378/422/406 392/428/406 393/430/406
f 370/419/407 386/431/407 371/423/407
f 379/399/408 393/430/408 394/432/408
f 371/423/409 387/433/409 372/396/409
f 380/400/410 394/432/410 395/434/410
f 372/396/411 388/435/411 373/401/411
f 381/404/412 395/434/412 396/436/412
f 373/401/413 389/437/413 374/405/413
f 382/408/414 396/436/414 397/438/414
f 374/405/415 390/439/415 375/409/415
f 383/412/416 397/438/416 398/427/416
f 395/434/417 409/440/417 410/441/417
f 387/433/418 403/442/418 388/435/418
f 396/436/419 410/441/419 411/443/419
f 388/435/420 404/444/420 389/437/420
f 397/438/421 411/443/421 412/445/421
f 389/437/422 405/446/422 390/439/422
f 398/427/423 412/445/423 413/447/423
f 390/439/424 406/448/424 391/425/424
f 384/426/425 1/30/425 399/449/425
f 8/31/426 398/427/426 413/447/426
f 392/428/427 406/448/427 407/450/427
f 384/426/428 400/451/428 385/429/428
f 393/430/429 407/450/429 408/452/429
f 385/429/430 401/453/430 386/431/430
f 394/432/431 408/452/431 409/440/431
f 386/431/432 402/454/432 387/433/432
f 399/449/433 1/30/433 414/455/433
f 8/31/434 413/447/434 428/456/434
f 407/450/435 421/457/435 422/458/435
f 399/449/436 415/459/436 400/451/436
f 408/452/437 422/458/437 423/460/437
f 400/451/438 416/461/438 401/453/438
f 409/440/439 423/460/439 424/462/439
f 401/453/440 417/463/440 402/454/440
f 410/441/441 424/462/441 425/464/441
f 402/454/442 418/465/442 403/442/442
f 411/443/443 425/464/443 426/466/443
f 403/442/444 419/467/444 404/444/444
f 412/445/445 426/466/445 427/468/445
f 404/444/446 420/469/446 405/446/446
f 413/447/447 427/468/447 428/456/447
f 405/446/448 421/457/448 406/448/448
f 417/463/449 433/470/449 418/465/449
f 426/466/450 440/471/450 441/472/450
f 418/465/451 434/473/451 419/467/451
f 427/468/452 441/472/452 442/474/452
f 419/467/453 435/475/453 420/469/453
f 428/456/454 442/474/454 443/476/454
f 420/469/455 436/477/455 421/457/455
f 414/455/456 1/30/456 429/478/456
f 8/31/457 428/456/457 443/476/457
f 422/458/458 436/477/458 437/479/458
f 414/455/459 430/480/459 415/459/459
f 423/460/460 437/479/460 438/481/460
f 415/459/461 431/482/461 416/461/461
f 424/462/462 438/481/462 439/483/462
f 416/461/463 432/484/463 417/463/463
f 425/464/464 439/483/464 440/471/464
f 437/479/465 451/485/465 452/486/465
f 429/478/466 445/487/466 430/480/466
f 438/481/467 452/486/467 453/488/467
f 430/480/468 446/489/468 431/482/468
f 439/483/469 453/488/469 454/490/469
f 431/482/470 447/491/470 432/484/470
f 440/471/471 454/490/471 455/492/471
f 432/484/472 448/493/472 433/470/472
f 441/472/473 455/492/473 456/494/473
f 433/470/474 449/495/474 434/473/474
f 442/474/475 456/494/475 457/496/475
f 434/473/476 450/497/476 435/475/476
f 443/476/477 457/496/477 458/498/477
f 435/475/478 451/485/478 436/477/478
f 429/478/479 1/30/479 444/499/479
f 8/31/480 443/476/480 458/498/480
f 456/494/481 470/500/481 471/501/481
f 448/493/482 464/502/482 449/495/482
f 457/496/483 471/501/483 472/503/483
f 449/495/484 465/504/484 450/497/484
f 458/498/485 472/503/485 473/505/485
f 450/497/486 466/506/486 451/485/486
f 444/499/487 1/30/487 459/507/487
f 8/31/488 458/498/488 473/505/488
f 452/486/489 466/506/489 467/508/489
f 444/499/490 460/509/490 445/487/490
f 453/488/491 467/508/491 468/510/491
f 445/487/492 461/511/492 446/489/492
f 454/490/493 468/510/493 469/512/493
f 446/489/494 462/513/494 447/491/494
f 455/492/495 469/512/495 470/500/495
f 447/491/496 463/514/496 448/493/496
f 468/510/497 6/4/497 478/6/497
f 460/509/498 2/7/498 461/511/498
f 469/512/499 478/6/499 7/10/499
f 461/511/500 476/11/500 462/513/500
f 470/500/501 7/10/501 479/14/501
f 462/513/502 3/15/502 463/514/502
f 471/501/503 479/14/503 480/18/503
f 463/514/504 477/19/504 464/502/504
f 472/503/505 480/18/505 481/22/505
f 464/502/506 4/23/506 465/504/506
f 473/505/507 481/22/507 482/26/507
f 465/504/508 5/27/508 466/506/508
f 459/507/509 1/30/509 474/29/509
f 8/31/510 473/505/510 482/26/510
f 467/508/511 5/27/511 6/4/511
f 459/507/512 475/1/512 460/509/512
f 484/515/513 485/516/513 483/517/513
f 486/518/514 487/519/514 485/516/514
f 488/520/515 489/521/515 487/519/515
f 490/522/516 491/523/516 489/521/516
f 492/524/517 493/525/517 491/523/517
f 494/526/518 495/527/518 493/525/518
f 496/528/519 497/529/519 495/527/519
f 498/530/520 499/531/520 497/529/520
f 500/532/521 501/533/521 499/531/521
f 502/534/522 503/535/522 501/533/522
f 504/536/523 505/537/523 503/535/523
f 506/538/524 507/539/524 505/540/524
f 508/541/525 509/542/525 507/539/525
f 510/543/526 511/544/526 509/542/526
f 512/545/527 513/546/527 511/544/527
f 514/547/528 515/548/528 513/546/528
f 516/549/529 517/550/529 515/548/529
f 518/551/530 519/552/530 517/550/530
f 520/553/531 521/554/531 519/552/531
f 522/555/532 523/556/532 521/554/532
f 524/557/533 525/558/533 523/556/533
f 526/559/534 527/560/534 525/558/534
f 528/561/535 529/562/535 527/560/535
f 530/563/536 531/564/536 529/562/536
f 532/565/537 533/566/537 531/564/537
f 534/567/538 535/568/538 533/566/538
f 536/569/539 537/570/539 535/568/539
f 538/571/540 539/572/540 537/570/540
f 540/573/541 541/574/541 539/572/541
f 542/575/542 543/576/542 541/574/542
f 520/577/543 504/578/543 488/579/543
f 544/580/544 545/581/544 543/576/544
f 546/582/545 483/517/545 545/581/545
f 545/583/546 497/584/546 513/585/546
f 475/1/1 474/29/1 9/2/1
f 6/4/2 17/32/2 18/5/2
f 2/7/3 475/1/3 10/3/3
f 478/6/4 18/5/4 19/9/4
f 476/11/5 2/7/5 11/8/5
f 7/10/6 19/9/6 20/13/6
f 3/15/7 476/11/7 12/12/7
f 479/14/8 20/13/8 21/17/8
f 477/19/9 3/15/9 13/16/9
f 480/18/10 21/17/10 22/21/10
f 4/23/11 477/19/11 14/20/11
f 481/22/12 22/21/12 23/25/12
f 5/27/13 4/23/13 15/24/13
f 5/27/16 16/28/16 17/32/16
f 16/28/17 15/24/17 30/33/17
f 16/28/20 31/34/20 32/37/20
f 10/3/21 9/2/21 24/35/21
f 17/32/22 32/37/22 33/39/22
f 11/8/23 10/3/23 25/38/23
f 18/5/24 33/39/24 34/41/24
f 12/12/25 11/8/25 26/40/25
f 19/9/26 34/41/26 35/43/26
f 13/16/27 12/12/27 27/42/27
f 20/13/28 35/43/28 36/45/28
f 14/20/29 13/16/29 28/44/29
f 21/17/30 36/45/30 37/47/30
f 15/24/31 14/20/31 29/46/31
f 22/21/32 37/47/32 38/36/32
f 34/41/33 49/62/33 50/48/33
f 28/44/34 27/42/34 42/49/34
f 35/43/35 50/48/35 51/51/35
f 29/46/36 28/44/36 43/50/36
f 36/45/37 51/51/37 52/53/37
f 30/33/38 29/46/38 44/52/38
f 37/47/39 52/53/39 53/55/39
f 31/34/40 30/33/40 45/54/40
f 31/34/43 46/56/43 47/58/43
f 25/38/44 24/35/44 39/57/44
f 32/37/45 47/58/45 48/60/45
f 26/40/46 25/38/46 40/59/46
f 33/39/47 48/60/47 49/62/47
f 27/42/48 26/40/48 41/61/48
f 46/56/50 61/77/50 62/64/50
f 40/59/51 39/57/51 54/65/51
f 47/58/52 62/64/52 63/67/52
f 41/61/53 40/59/53 55/66/53
f 48/60/54 63/67/54 64/69/54
f 42/49/55 41/61/55 56/68/55
f 49/62/56 64/69/56 65/71/56
f 43/50/57 42/49/57 57/70/57
f 50/48/58 65/71/58 66/73/58
f 44/52/59 43/50/59 58/72/59
f 51/51/60 66/73/60 67/75/60
f 45/54/61 44/52/61 59/74/61
f 52/53/62 67/75/62 68/63/62
f 46/56/63 45/54/63 60/76/63
f 65/71/65 80/92/65 81/78/65
f 59/74/66 58/72/66 73/79/66
f 66/73/67 81/78/67 82/81/67
f 60/76/68 59/74/68 74/80/68
f 67/75/69 82/81/69 83/83/69
f 61/77/70 60/76/70 75/82/70
f 61/77/73 76/84/73 77/86/73
f 55/66/74 54/65/74 69/85/74
f 62/64/75 77/86/75 78/88/75
f 56/68/76 55/66/76 70/87/76
f 63/67/77 78/88/77 79/90/77
f 57/70/78 56/68/78 71/89/78
f 64/69/79 79/90/79 80/92/79
f 58/72/80 57/70/80 72/91/80
f 70/87/81 69/85/81 84/93/81
f 77/86/82 92/107/82 93/95/82
f 71/89/83 70/87/83 85/94/83
f 78/88/84 93/95/84 94/97/84
f 72/91/85 71/89/85 86/96/85
f 79/90/86 94/97/86 95/99/86
f 73/79/87 72/91/87 87/98/87
f 80/92/88 95/99/88 96/101/88
f 74/80/89 73/79/89 88/100/89
f 81/78/90 96/101/90 97/103/90
f 75/82/91 74/80/91 89/102/91
f 82/81/92 97/103/92 98/105/92
f 76/84/93 75/82/93 90/104/93
f 76/84/96 91/106/96 92/107/96
f 89/102/97 88/100/97 103/108/97
f 96/101/98 111/122/98 112/110/98
f 90/104/99 89/102/99 104/109/99
f 97/103/100 112/110/100 113/112/100
f 91/106/101 90/104/101 105/111/101
f 91/106/104 106/113/104 107/115/104
f 85/94/105 84/93/105 99/114/105
f 92/107/106 107/115/106 108/117/106
f 86/96/107 85/94/107 100/116/107
f 93/95/108 108/117/108 109/119/108
f 87/98/109 86/96/109 101/118/109
f 94/97/110 109/119/110 110/121/110
f 88/100/111 87/98/111 102/120/111
f 95/99/112 110/121/112 111/122/112
f 107/115/113 122/137/113 123/123/113
f 101/118/114 100/116/114 115/124/114
f 108/117/115 123/123/115 124/126/115
f 102/120/116 101/118/116 116/125/116
f 109/119/117 124/126/117 125/128/117
f 103/108/118 102/120/118 117/127/118
f 110/121/119 125/128/119 126/130/119
f 104/109/120 103/108/120 118/129/120
f 111/122/121 126/130/121 127/132/121
f 105/111/122 104/109/122 119/131/122
f 112/110/123 127/132/123 128/134/123
f 106/113/124 105/111/124 120/133/124
f 106/113/127 121/135/127 122/137/127
f 100/116/128 99/114/128 114/136/128
f 127/138/129 126/168/129 141/139/129
f 119/141/130 134/169/130 135/142/130
f 128/144/131 127/138/131 142/140/131
f 120/143/132 135/142/132 136/146/132
f 122/152/135 121/147/135 136/146/135
f 114/148/136 129/150/136 130/154/136
f 123/156/137 122/152/137 137/153/137
f 115/155/138 130/154/138 131/158/138
f 124/160/139 123/156/139 138/157/139
f 116/159/140 131/158/140 132/162/140
f 125/164/141 124/160/141 139/161/141
f 117/163/142 132/162/142 133/166/142
f 126/168/143 125/164/143 140/165/143
f 118/167/144 133/166/144 134/169/144
f 130/154/145 145/184/145 146/170/145
f 139/161/146 138/157/146 153/171/146
f 131/158/147 146/170/147 147/173/147
f 140/165/148 139/161/148 154/172/148
f 132/162/149 147/173/149 148/175/149
f 141/139/150 140/165/150 155/174/150
f 133/166/151 148/175/151 149/177/151
f 142/140/152 141/139/152 156/176/152
f 134/169/547 149/177/547 150/179/547
f 143/145/154 142/140/154 157/178/154
f 135/142/155 150/179/155 151/181/155
f 137/153/158 136/146/158 151/181/158
f 129/150/159 144/182/159 145/184/159
f 138/157/548 137/153/548 152/183/548
f 149/177/161 164/199/161 165/185/161
f 158/180/162 157/178/162 172/186/162
f 150/179/163 165/185/163 166/188/163
f 152/183/166 151/181/166 166/188/166
f 144/182/167 159/189/167 160/191/167
f 153/171/168 152/183/168 167/190/168
f 145/184/169 160/191/169 161/193/169
f 154/172/170 153/171/170 168/192/170
f 146/170/171 161/193/171 162/195/171
f 155/174/172 154/172/172 169/194/172
f 147/173/173 162/195/173 163/197/173
f 156/176/174 155/174/174 170/196/174
f 148/175/175 163/197/175 164/199/175
f 157/178/176 156/176/176 171/198/176
f 169/194/177 168/192/177 183/200/177
f 161/193/178 176/214/178 177/202/178
f 170/196/179 169/194/179 184/201/179
f 162/195/180 177/202/180 178/204/180
f 171/198/181 170/196/181 185/203/181
f 163/197/182 178/204/182 179/206/182
f 172/186/183 171/198/183 186/205/183
f 164/199/184 179/206/184 180/208/184
f 173/187/185 172/186/185 187/207/185
f 165/185/186 180/208/186 181/210/186
f 167/190/189 166/188/189 181/210/189
f 159/189/190 174/211/190 175/213/190
f 168/192/191 167/190/191 182/212/191
f 160/191/192 175/213/192 176/214/192
f 188/209/193 187/207/193 202/215/193
f 180/208/194 195/229/194 196/217/194
f 182/212/197 181/210/197 196/217/197
f 174/211/198 189/218/198 190/220/198
f 183/200/199 182/212/199 197/219/199
f 175/213/200 190/220/200 191/222/200
f 184/201/201 183/200/201 198/221/201
f 176/214/202 191/222/202 192/224/202
f 185/203/203 184/201/203 199/223/203
f 177/202/204 192/224/204 193/226/204
f 186/205/205 185/203/205 200/225/205
f 178/204/206 193/226/206 194/228/206
f 187/207/207 186/205/207 201/227/207
f 179/206/208 194/228/208 195/229/208
f 200/225/209 199/223/209 214/230/209
f 192/224/210 207/244/210 208/232/210
f 201/227/211 200/225/211 215/231/211
f 193/226/212 208/232/212 209/234/212
f 202/215/213 201/227/213 216/233/213
f 194/228/214 209/234/214 210/236/214
f 203/216/215 202/215/215 217/235/215
f 195/229/216 210/236/216 211/238/216
f 197/219/219 196/217/219 211/238/219
f 189/218/220 204/239/220 205/241/220
f 198/221/221 197/219/221 212/240/221
f 190/220/222 205/241/222 206/243/222
f 199/223/223 198/221/223 213/242/223
f 191/222/224 206/243/224 207/244/224
f 212/240/227 211/238/227 226/247/227
f 204/239/228 219/245/228 220/249/228
f 213/242/229 212/240/229 227/248/229
f 205/241/230 220/249/230 221/251/230
f 214/230/231 213/242/231 228/250/231
f 206/243/232 221/251/232 222/253/232
f 215/231/233 214/230/233 229/252/233
f 207/244/234 222/253/234 223/255/234
f 216/233/235 215/231/235 230/254/235
f 208/232/236 223/255/236 224/257/236
f 217/235/237 216/233/237 231/256/237
f 209/234/238 224/257/238 225/259/238
f 218/237/239 217/235/239 232/258/239
f 210/236/240 225/259/240 226/247/240
f 222/253/241 237/274/241 238/260/241
f 231/256/242 230/254/242 245/261/242
f 223/255/243 238/260/243 239/263/243
f 232/258/244 231/256/244 246/262/244
f 224/257/245 239/263/245 240/265/245
f 233/246/246 232/258/246 247/264/246
f 225/259/247 240/265/247 241/267/247
f 227/248/250 226/247/250 241/267/250
f 219/245/251 234/268/251 235/270/251
f 228/250/252 227/248/252 242/269/252
f 220/249/253 235/270/253 236/272/253
f 229/252/254 228/250/254 243/271/254
f 221/251/255 236/272/255 237/274/255
f 230/254/256 229/252/256 244/273/256
f 241/267/257 256/289/257 257/275/257
f 235/270/258 234/268/258 249/276/258
f 242/269/259 257/275/259 258/278/259
f 236/272/260 235/270/260 250/277/260
f 243/271/261 258/278/261 259/280/261
f 237/274/262 236/272/262 251/279/262
f 244/273/263 259/280/263 260/282/263
f 238/260/264 237/274/264 252/281/264
f 245/261/265 260/282/265 261/284/265
f 239/263/266 238/260/266 253/283/266
f 246/262/267 261/284/267 262/286/267
f 240/265/268 239/263/268 254/285/268
f 247/264/269 262/286/269 263/288/269
f 241/267/270 240/265/270 255/287/270
f 260/282/273 275/304/273 276/290/273
f 254/285/274 253/283/274 268/291/274
f 261/284/275 276/290/275 277/293/275
f 255/287/276 254/285/276 269/292/276
f 262/286/277 277/293/277 278/295/277
f 256/289/278 255/287/278 270/294/278
f 256/289/281 271/296/281 272/298/281
f 250/277/282 249/276/282 264/297/282
f 257/275/283 272/298/283 273/300/283
f 251/279/284 250/277/284 265/299/284
f 258/278/285 273/300/285 274/302/285
f 252/281/286 251/279/286 266/301/286
f 259/280/287 274/302/287 275/304/287
f 253/283/288 252/281/288 267/303/288
f 265/299/289 264/297/289 279/305/289
f 272/298/290 287/319/290 288/307/290
f 266/301/291 265/299/291 280/306/291
f 273/300/292 288/307/292 289/309/292
f 267/303/293 266/301/293 281/308/293
f 274/302/294 289/309/294 290/311/294
f 268/291/295 267/303/295 282/310/295
f 275/304/296 290/311/296 291/313/296
f 269/292/297 268/291/297 283/312/297
f 276/290/298 291/313/298 292/315/298
f 270/294/299 269/292/299 284/314/299
f 277/293/300 292/315/300 293/317/300
f 271/296/301 270/294/301 285/316/301
f 271/296/304 286/318/304 287/319/304
f 284/314/305 283/312/305 298/320/305
f 291/313/306 306/334/306 307/322/306
f 285/316/307 284/314/307 299/321/307
f 292/315/308 307/322/308 308/324/308
f 286/318/309 285/316/309 300/323/309
f 286/318/312 301/325/312 302/327/312
f 280/306/313 279/305/313 294/326/313
f 287/319/314 302/327/314 303/329/314
f 281/308/315 280/306/315 295/328/315
f 288/307/316 303/329/316 304/331/316
f 282/310/317 281/308/317 296/330/317
f 289/309/318 304/331/318 305/333/318
f 283/312/319 282/310/319 297/332/319
f 290/311/320 305/333/320 306/334/320
f 302/327/321 317/349/321 318/335/321
f 296/330/322 295/328/322 310/336/322
f 303/329/323 318/335/323 319/338/323
f 297/332/324 296/330/324 311/337/324
f 304/331/325 319/338/325 320/340/325
f 298/320/326 297/332/326 312/339/326
f 305/333/327 320/340/327 321/342/327
f 299/321/328 298/320/328 313/341/328
f 306/334/329 321/342/329 322/344/329
f 300/323/330 299/321/330 314/343/330
f 307/322/331 322/344/331 323/346/331
f 301/325/332 300/323/332 315/345/332
f 301/325/335 316/347/335 317/349/335
f 295/328/336 294/326/336 309/348/336
f 321/342/337 336/364/337 337/350/337
f 315/345/338 314/343/338 329/351/338
f 322/344/339 337/350/339 338/353/339
f 316/347/340 315/345/340 330/352/340
f 316/347/343 331/354/343 332/356/343
f 310/336/344 309/348/344 324/355/344
f 317/349/345 332/356/345 333/358/345
f 311/337/346 310/336/346 325/357/346
f 318/335/347 333/358/347 334/360/347
f 312/339/348 311/337/348 326/359/348
f 319/338/349 334/360/349 335/362/349
f 313/341/350 312/339/350 327/361/350
f 320/340/351 335/362/351 336/364/351
f 314/343/352 313/341/352 328/363/352
f 333/358/353 348/379/353 349/365/353
f 327/361/354 326/359/354 341/366/354
f 334/360/355 349/365/355 350/368/355
f 328/363/356 327/361/356 342/367/356
f 335/362/357 350/368/357 351/370/357
f 329/351/358 328/363/358 343/369/358
f 336/364/549 351/370/549 352/372/549
f 330/352/360 329/351/360 344/371/360
f 337/350/361 352/372/361 353/374/361
f 331/354/362 330/352/362 345/373/362
f 331/354/365 346/375/365 347/377/365
f 325/357/366 324/355/366 339/376/366
f 332/356/367 347/377/367 348/379/367
f 326/359/550 325/357/550 340/378/550
f 352/372/369 367/394/369 368/380/369
f 346/375/370 345/373/370 360/381/370
f 346/375/373 361/382/373 362/384/373
f 340/378/374 339/376/374 354/383/374
f 347/377/375 362/384/375 363/386/375
f 341/366/376 340/378/376 355/385/376
f 348/379/377 363/386/377 364/388/377
f 342/367/378 341/366/378 356/387/378
f 349/365/379 364/388/379 365/390/379
f 343/369/380 342/367/380 357/389/380
f 350/368/381 365/390/381 366/392/381
f 344/371/382 343/369/382 358/391/382
f 351/370/383 366/392/383 367/394/383
f 345/373/384 344/371/384 359/393/384
f 356/395/385 371/423/385 372/396/385
f 365/398/386 364/424/386 379/399/386
f 357/397/387 372/396/387 373/401/387
f 366/403/388 365/398/388 380/400/388
f 358/402/389 373/401/389 374/405/389
f 367/407/390 366/403/390 381/404/390
f 359/406/391 374/405/391 375/409/391
f 368/411/392 367/407/392 382/408/392
f 360/410/393 375/409/393 376/413/393
f 362/417/396 361/414/396 376/413/396
f 354/415/397 369/416/397 370/419/397
f 363/421/398 362/417/398 377/418/398
f 355/420/399 370/419/399 371/423/399
f 364/424/400 363/421/400 378/422/400
f 375/409/401 390/439/401 391/425/401
f 377/418/404 376/413/404 391/425/404
f 369/416/405 384/426/405 385/429/405
f 378/422/551 377/418/551 392/428/551
f 370/419/552 385/429/552 386/431/552
f 379/399/408 378/422/408 393/430/408
f 371/423/409 386/431/409 387/433/409
f 380/400/410 379/399/410 394/432/410
f 372/396/411 387/433/411 388/435/411
f 381/404/412 380/400/412 395/434/412
f 373/401/413 388/435/413 389/437/413
f 382/408/553 381/404/553 396/436/553
f 374/405/554 389/437/554 390/439/554
f 383/412/416 382/408/416 397/438/416
f 395/434/417 394/432/417 409/440/417
f 387/433/418 402/454/418 403/442/418
f 396/436/419 395/434/419 410/441/419
f 388/435/420 403/442/420 404/444/420
f 397/438/421 396/436/421 411/443/421
f 389/437/422 404/444/422 405/446/422
f 398/427/423 397/438/423 412/445/423
f 390/439/424 405/446/424 406/448/424
f 392/428/427 391/425/427 406/448/427
f 384/426/428 399/449/428 400/451/428
f 393/430/429 392/428/429 407/450/429
f 385/429/430 400/451/430 401/453/430
f 394/432/431 393/430/431 408/452/431
f 386/431/432 401/453/432 402/454/432
f 407/450/435 406/448/435 421/457/435
f 399/449/436 414/455/436 415/459/436
f 408/452/437 407/450/437 422/458/437
f 400/451/438 415/459/438 416/461/438
f 409/440/439 408/452/439 423/460/439
f 401/453/440 416/461/440 417/463/440
f 410/441/441 409/440/441 424/462/441
f 402/454/442 417/463/442 418/465/442
f 411/443/443 410/441/443 425/464/443
f 403/442/444 418/465/444 419/467/444
f 412/445/445 411/443/445 426/466/445
f 404/444/446 419/467/446 420/469/446
f 413/447/447 412/445/447 427/468/447
f 405/446/448 420/469/448 421/457/448
f 417/463/449 432/484/449 433/470/449
f 426/466/450 425/464/450 440/471/450
f 418/465/451 433/470/451 434/473/451
f 427/468/452 426/466/452 441/472/452
f 419/467/453 434/473/453 435/475/453
f 428/456/454 427/468/454 442/474/454
f 420/469/455 435/475/455 436/477/455
f 422/458/458 421/457/458 436/477/458
f 414/455/459 429/478/459 430/480/459
f 423/460/460 422/458/460 437/479/460
f 415/459/461 430/480/461 431/482/461
f 424/462/462 423/460/462 438/481/462
f 416/461/463 431/482/463 432/484/463
f 425/464/464 424/462/464 439/483/464
f 437/479/465 436/477/465 451/485/465
f 429/478/466 444/499/466 445/487/466
f 438/481/467 437/479/467 452/486/467
f 430/480/468 445/487/468 446/489/468
f 439/483/469 438/481/469 453/488/469
f 431/482/470 446/489/470 447/491/470
f 440/471/471 439/483/471 454/490/471
f 432/484/472 447/491/472 448/493/472
f 441/472/473 440/471/473 455/492/473
f 433/470/474 448/493/474 449/495/474
f 442/474/475 441/472/475 456/494/475
f 434/473/476 449/495/476 450/497/476
f 443/476/477 442/474/477 457/496/477
f 435/475/478 450/497/478 451/485/478
f 456/494/481 455/492/481 470/500/481
f 448/493/482 463/514/482 464/502/482
f 457/496/483 456/494/483 471/501/483
f 449/495/484 464/502/484 465/504/484
f 458/498/485 457/496/485 472/503/485
f 450/497/486 465/504/486 466/506/486
f 452/486/489 451/485/489 466/506/489
f 444/499/490 459/507/490 460/509/490
f 453/488/491 452/486/491 467/508/491
f 445/487/492 460/509/492 461/511/492
f 454/490/493 453/488/493 468/510/493
f 446/489/494 461/511/494 462/513/494
f 455/492/495 454/490/495 469/512/495
f 447/491/496 462/513/496 463/514/496
f 468/510/497 467/508/497 6/4/497
f 460/509/498 475/1/498 2/7/498
f 469/512/499 468/510/499 478/6/499
f 461/511/500 2/7/500 476/11/500
f 470/500/501 469/512/501 7/10/501
f 462/513/502 476/11/502 3/15/502
f 471/501/503 470/500/503 479/14/503
f 463/514/504 3/15/504 477/19/504
f 472/503/505 471/501/505 480/18/505
f 464/502/506 477/19/506 4/23/506
f 473/505/507 472/503/507 481/22/507
f 465/504/508 4/23/508 5/27/508
f 467/508/511 466/506/511 5/27/511
f 459/507/512 474/29/512 475/1/512
f 484/515/513 486/518/513 485/516/513
f 486/518/514 488/520/514 487/519/514
f 488/520/515 490/522/515 489/521/515
f 490/522/516 492/524/516 491/523/516
f 492/524/517 494/526/517 493/525/517
f 494/526/518 496/528/518 495/527/518
f 496/528/519 498/530/519 497/529/519
f 498/530/520 500/532/520 499/531/520
f 500/532/521 502/534/521 501/533/521
f 502/534/522 504/536/522 503/535/522
f 504/536/523 506/586/523 505/537/523
f 506/538/524 508/541/524 507/539/524
f 508/541/525 510/543/525 509/542/525
f 510/543/526 512/545/526 511/544/526
f 512/545/527 514/547/527 513/546/527
f 514/547/528 516/549/528 515/548/528
f 516/549/529 518/551/529 517/550/529
f 518/551/530 520/553/530 519/552/530
f 520/553/531 522/555/531 521/554/531
f 522/555/532 524/557/532 523/556/532
f 524/557/533 526/559/533 525/558/533
f 526/559/534 528/561/534 527/560/534
f 528/561/535 530/563/535 529/562/535
f 530/563/536 532/565/536 531/564/536
f 532/565/537 534/567/537 533/566/537
f 534/567/538 536/569/538 535/568/538
f 536/569/539 538/571/539 537/570/539
f 538/571/540 540/573/540 539/572/540
f 540/573/541 542/575/541 541/574/541
f 542/575/542 544/580/542 543/576/542
f 488/579/543 486/587/543 544/588/543
f 486/587/543 484/589/543 544/588/543
f 484/589/543 546/590/543 544/588/543
f 544/588/543 542/591/543 540/592/543
f 540/592/543 538/593/543 544/588/543
f 538/593/543 536/594/543 544/588/543
f 536/594/543 534/595/543 532/596/543
f 532/596/543 530/597/543 536/594/543
f 530/597/543 528/598/543 536/594/543
f 528/598/543 526/599/543 520/577/543
f 526/599/543 524/600/543 520/577/543
f 524/600/543 522/601/543 520/577/543
f 520/577/543 518/602/543 516/603/543
f 516/603/543 514/604/543 520/577/543
f 514/604/543 512/605/543 520/577/543
f 512/605/543 510/606/543 508/607/543
f 508/607/543 506/608/543 504/578/543
f 504/578/543 502/609/543 500/610/543
f 500/610/543 498/611/543 504/578/543
f 498/611/543 496/612/543 504/578/543
f 496/612/543 494/613/543 492/614/543
f 492/614/543 490/615/543 488/579/543
f 512/605/543 508/607/543 520/577/543
f 508/607/543 504/578/543 520/577/543
f 496/612/543 492/614/543 504/578/543
f 492/614/543 488/579/543 504/578/543
f 488/579/543 544/588/543 520/577/543
f 544/588/543 536/594/543 520/577/543
f 536/594/543 528/598/543 520/577/543
f 544/580/544 546/582/544 545/581/544
f 546/582/545 484/515/545 483/517/545
f 545/583/546 483/616/546 485/617/546
f 485/617/546 487/618/546 489/619/546
f 489/619/546 491/620/546 493/621/546
f 493/621/546 495/622/546 497/584/546
f 497/584/546 499/623/546 501/624/546
f 501/624/546 503/625/546 505/626/546
f 505/626/546 507/627/546 509/628/546
f 509/628/546 511/629/546 513/585/546
f 513/585/546 515/630/546 521/631/546
f 515/630/546 517/632/546 521/631/546
f 517/632/546 519/633/546 521/631/546
f 521/631/546 523/634/546 525/635/546
f 525/635/546 527/636/546 529/637/546
f 529/637/546 531/638/546 533/639/546
f 533/639/546 535/640/546 537/641/546
f 537/641/546 539/642/546 545/583/546
f 539/642/546 541/643/546 545/583/546
f 541/643/546 543/644/546 545/583/546
f 545/583/546 485/617/546 489/619/546
f 489/619/546 493/621/546 545/583/546
f 493/621/546 497/584/546 545/583/546
f 497/584/546 501/624/546 505/626/546
f 505/626/546 509/628/546 497/584/546
f 509/628/546 513/585/546 497/584/546
f 521/631/546 525/635/546 529/637/546
f 529/637/546 533/639/546 545/583/546
f 533/639/546 537/641/546 545/583/546
f 513/585/546 521/631/546 545/583/546
f 521/631/546 529/637/546 545/583/546
