# Blender 5.1.1
# www.blender.org
mtllib enemyMini.mtl
o 立方体
v -0.328696 0.568620 0.328696
v -0.001952 0.805838 0.328696
v -0.328696 0.568620 -0.328696
v -0.001952 0.805838 -0.328696
v 0.328696 0.568620 0.328696
v 0.001952 0.805838 0.328696
v 0.328696 0.568620 -0.328696
v 0.001952 0.805838 -0.328696
vn -0.5875 0.8092 -0.0000
vn -0.0000 -0.0000 -1.0000
vn 0.5875 0.8092 -0.0000
vn -0.0000 -0.0000 1.0000
vn -0.0000 -1.0000 -0.0000
vn -0.0000 1.0000 -0.0000
vt 0.013225 0.423758
vt 0.013225 0.310905
vt 0.196962 0.310905
vt 0.196962 0.423758
vt 0.013225 0.450208
vt 0.079526 0.541531
vt 0.079526 0.542622
vt 0.013225 0.633945
vt 0.196962 0.196962
vt 0.196962 0.309814
vt 0.013225 0.309814
vt 0.013225 0.196962
vt 0.105977 0.450208
vt 0.172278 0.541531
vt 0.172278 0.542622
vt 0.105977 0.633945
vt 0.196962 0.013225
vt 0.013225 0.013225
s 0
usemtl マテリアル.007
f 1/1/1 2/2/1 4/3/1 3/4/1
f 3/5/2 4/6/2 8/7/2 7/8/2
f 7/9/3 8/10/3 6/11/3 5/12/3
f 5/13/4 6/14/4 2/15/4 1/16/4
f 3/17/5 7/9/5 5/12/5 1/18/5
f 8/10/6 4/3/6 2/2/6 6/11/6
o 球.001
v -0.331766 0.568396 -0.331766
v -0.331766 -0.272834 -0.331766
v -0.199060 0.568396 -0.331766
v -0.331766 0.568396 -0.199060
v -0.199060 0.568396 -0.199060
v -0.331766 0.568396 -0.066353
v -0.331766 -0.272834 -0.199060
v -0.331766 -0.272834 -0.066353
v -0.199060 -0.272834 -0.199060
v -0.066353 -0.272834 -0.199060
v -0.199060 -0.272834 -0.331766
v -0.199060 -0.272834 -0.066353
v -0.199060 -0.272834 0.066353
v -0.199060 -0.272834 0.199060
v -0.331766 -0.272834 0.066353
v -0.331766 0.568396 0.066353
v -0.331766 -0.272834 0.199060
v -0.331766 0.568396 0.199060
v -0.331766 -0.272834 0.331766
v -0.331766 0.568396 0.331766
v -0.199060 -0.272834 0.331766
v -0.066353 -0.272834 0.331766
v -0.199060 0.568396 0.331766
v -0.066353 0.568396 0.331766
v -0.199060 0.568396 0.199060
v -0.199060 0.568396 0.066353
v -0.066353 0.568396 0.199060
v -0.066353 0.568396 0.066353
v 0.066353 0.568396 0.199060
v 0.066353 0.568396 0.331766
v 0.066353 0.568396 0.066353
v 0.199060 0.568396 0.199060
v 0.199060 0.568396 0.066353
v 0.199060 0.568396 0.331766
v 0.331766 0.568396 0.199060
v 0.331766 0.568396 0.331766
v 0.331766 0.568396 0.066353
v 0.331766 -0.272834 0.199060
v 0.331766 -0.272834 0.331766
v 0.331766 -0.272834 0.066353
v 0.199060 -0.272834 0.199060
v 0.199060 -0.272834 0.331766
v 0.199060 -0.272834 0.066353
v 0.066353 -0.272834 0.199060
v 0.066353 -0.272834 0.066353
v -0.066353 -0.272834 0.199060
v 0.066353 -0.272834 0.331766
v -0.066353 -0.272834 0.066353
v -0.066353 -0.272834 -0.066353
v 0.066353 -0.272834 -0.066353
v 0.066353 -0.272834 -0.199060
v 0.199060 -0.272834 -0.199060
v 0.066353 -0.272834 -0.331766
v -0.066353 -0.272834 -0.331766
v 0.199060 -0.272834 -0.331766
v 0.066353 0.568396 -0.331766
v 0.199060 0.568396 -0.331766
v -0.066353 0.568396 -0.331766
v 0.066353 0.568396 -0.199060
v 0.199060 0.568396 -0.199060
v 0.066353 0.568396 -0.066353
v -0.066353 0.568396 -0.199060
v -0.066353 0.568396 -0.066353
v -0.199060 0.568396 -0.066353
v 0.199060 0.568396 -0.066353
v 0.331766 0.568396 -0.066353
v 0.331766 -0.272834 -0.066353
v 0.331766 0.568396 -0.199060
v 0.331766 -0.272834 -0.199060
v 0.331766 0.568396 -0.331766
v 0.331766 -0.272834 -0.331766
v 0.199060 -0.272834 -0.066353
vn -0.5774 -0.5774 -0.5774
vn -0.7071 -0.7071 -0.0000
vn -0.7071 0.7071 -0.0000
vn -0.5774 0.5774 -0.5774
vn -0.0000 -0.7071 -0.7071
vn -0.0000 0.7071 -0.7071
vn -0.0000 1.0000 -0.0000
vn -0.0000 -1.0000 -0.0000
vn -0.5774 -0.5774 0.5774
vn -0.5774 0.5774 0.5774
vn -0.0000 -0.7071 0.7071
vn -0.0000 0.7071 0.7071
vn 0.7071 0.7071 -0.0000
vn 0.5774 0.5774 0.5774
vn 0.5774 -0.5774 0.5774
vn 0.7071 -0.7071 -0.0000
vn 0.5774 -0.5774 -0.5774
vn 0.5774 0.5774 -0.5774
vt 0.223413 0.339918
vt 0.270777 0.339918
vt 0.270777 0.640160
vt 0.223413 0.640160
vt 0.676140 0.013225
vt 0.723504 0.013225
vt 0.723504 0.313467
vt 0.676140 0.313467
vt 0.986775 0.339918
vt 0.986775 0.387282
vt 0.939411 0.387282
vt 0.939411 0.339918
vt 0.986775 0.434646
vt 0.939411 0.434646
vt 0.318141 0.339918
vt 0.318141 0.640160
vt 0.797318 0.060589
vt 0.797318 0.107954
vt 0.749954 0.107954
vt 0.749954 0.060589
vt 0.797318 0.013225
vt 0.749954 0.013225
vt 0.844683 0.013225
vt 0.844683 0.060589
vt 0.797318 0.155317
vt 0.749954 0.155317
vt 0.797318 0.202682
vt 0.749954 0.202682
vt 0.365505 0.339918
vt 0.412869 0.339918
vt 0.412869 0.640160
vt 0.365505 0.640160
vt 0.460233 0.339918
vt 0.460233 0.640160
vt 0.797318 0.250046
vt 0.749954 0.250046
vt 0.486684 0.339918
vt 0.534047 0.339918
vt 0.534047 0.640160
vt 0.486684 0.640160
vt 0.581412 0.339918
vt 0.581412 0.640160
vt 0.844683 0.202682
vt 0.844683 0.250046
vt 0.986775 0.529374
vt 0.986775 0.576738
vt 0.939411 0.576738
vt 0.939411 0.529374
vt 0.892046 0.576738
vt 0.892046 0.529374
vt 0.986775 0.482010
vt 0.939411 0.482010
vt 0.892046 0.482010
vt 0.844683 0.529374
vt 0.844683 0.482010
vt 0.844683 0.576738
vt 0.797318 0.576738
vt 0.797318 0.529374
vt 0.797318 0.482010
vt 0.749954 0.529374
vt 0.749954 0.482010
vt 0.749954 0.576738
vt 0.223413 0.013225
vt 0.270777 0.013225
vt 0.270777 0.313467
vt 0.223413 0.313467
vt 0.318141 0.013225
vt 0.318141 0.313467
vt 0.986775 0.202682
vt 0.986775 0.250046
vt 0.939411 0.250046
vt 0.939411 0.202682
vt 0.986775 0.155317
vt 0.939411 0.155317
vt 0.892046 0.250046
vt 0.892046 0.202682
vt 0.892046 0.155317
vt 0.844683 0.155317
vt 0.628776 0.339918
vt 0.676140 0.339918
vt 0.676140 0.640160
vt 0.628776 0.640160
vt 0.892046 0.107954
vt 0.844683 0.107954
vt 0.892046 0.060589
vt 0.939411 0.013225
vt 0.939411 0.060589
vt 0.892046 0.013225
vt 0.581412 0.013225
vt 0.628776 0.013225
vt 0.628776 0.313467
vt 0.581412 0.313467
vt 0.534047 0.013225
vt 0.534047 0.313467
vt 0.844683 0.339918
vt 0.844683 0.387282
vt 0.797318 0.387282
vt 0.797318 0.339918
vt 0.892046 0.339918
vt 0.892046 0.387282
vt 0.844683 0.434646
vt 0.797318 0.434646
vt 0.892046 0.434646
vt 0.749954 0.434646
vt 0.749954 0.387282
vt 0.365505 0.013225
vt 0.412869 0.013225
vt 0.412869 0.313467
vt 0.365505 0.313467
vt 0.460233 0.013225
vt 0.460233 0.313467
vt 0.749954 0.339918
vt 0.486684 0.013225
vt 0.486684 0.313467
vt 0.986775 0.013225
vt 0.986775 0.060589
vt 0.986775 0.107954
vt 0.939411 0.107954
vt 0.723504 0.339918
vt 0.723504 0.640160
s 1
usemtl マテリアル.007
f 10/19/7 15/20/8 12/21/9 9/22/10
f 19/23/11 10/24/7 9/25/10 11/26/12
f 9/27/10 12/28/9 13/29/13 11/30/12
f 12/28/9 14/31/9 72/32/13 13/29/13
f 15/20/8 16/33/8 14/34/9 12/21/9
f 17/35/14 20/36/14 16/37/8 15/38/8
f 19/39/11 17/35/14 15/38/8 10/40/7
f 62/41/11 18/42/14 17/35/14 19/39/11
f 20/36/14 21/43/14 23/44/8 16/37/8
f 21/43/14 22/45/14 25/46/8 23/44/8
f 23/47/8 25/48/8 26/49/9 24/50/9
f 16/33/8 23/47/8 24/50/9 14/34/9
f 25/48/8 27/51/15 28/52/16 26/49/9
f 22/45/14 29/53/17 27/54/15 25/46/8
f 27/55/15 29/56/17 31/57/18 28/58/16
f 29/56/17 30/59/17 32/60/18 31/57/18
f 54/61/14 30/62/17 29/53/17 22/45/14
f 26/63/9 28/64/16 31/65/18 33/66/13
f 33/66/13 31/65/18 32/67/18 35/68/13
f 24/69/9 26/63/9 33/66/13 34/70/13
f 34/70/13 33/66/13 35/68/13 36/71/13
f 36/71/13 35/68/13 37/72/13 39/73/13
f 35/68/13 32/67/18 38/74/18 37/72/13
f 37/72/13 38/74/18 42/75/18 40/76/13
f 39/73/13 37/72/13 40/76/13 41/77/13
f 41/77/13 40/76/13 43/78/19 45/79/19
f 40/76/13 42/75/18 44/80/20 43/78/19
f 47/81/21 46/82/22 43/83/19 44/84/20
f 46/82/22 48/85/22 45/86/19 43/83/19
f 46/87/22 47/88/21 50/89/17 49/90/14
f 48/91/22 46/87/22 49/90/14 51/92/14
f 49/90/14 50/89/17 55/93/17 52/94/14
f 53/95/14 52/94/14 54/61/14 56/96/14
f 52/94/14 55/93/17 30/62/17 54/61/14
f 55/97/17 50/98/17 42/99/18 38/100/18
f 30/59/17 55/97/17 38/100/18 32/60/18
f 58/101/14 53/95/14 56/96/14 57/102/14
f 59/103/14 58/101/14 57/102/14 18/42/14
f 63/104/11 60/105/14 59/103/14 61/106/11
f 61/106/11 59/103/14 18/42/14 62/41/11
f 61/107/11 62/108/11 66/109/12 64/110/12
f 63/111/11 61/107/11 64/110/12 65/112/12
f 64/113/12 67/114/13 68/115/13 65/116/12
f 66/117/12 70/118/13 67/114/13 64/113/12
f 67/114/13 69/119/13 73/120/13 68/115/13
f 70/118/13 71/121/13 69/119/13 67/114/13
f 11/30/12 13/29/13 70/118/13 66/117/12
f 13/29/13 72/32/13 71/121/13 70/118/13
f 72/32/13 34/70/13 36/71/13 71/121/13
f 71/121/13 36/71/13 39/73/13 69/119/13
f 14/31/9 24/69/9 34/70/13 72/32/13
f 69/119/13 39/73/13 41/77/13 73/120/13
f 73/120/13 41/77/13 45/79/19 74/122/19
f 68/115/13 73/120/13 74/122/19 76/123/19
f 75/124/22 77/125/22 76/126/19 74/127/19
f 48/85/22 75/124/22 74/127/19 45/86/19
f 77/125/22 79/128/23 78/129/24 76/126/19
f 65/116/12 68/115/13 76/123/19 78/130/24
f 79/131/23 63/111/11 65/112/12 78/132/24
f 79/133/23 77/134/22 60/105/14 63/104/11
f 77/134/22 75/135/22 80/136/14 60/105/14
f 75/135/22 48/91/22 51/92/14 80/136/14
f 62/108/11 19/23/11 11/26/12 66/109/12
f 50/98/17 47/137/21 44/138/20 42/99/18
o 立方体.001
v 0.073364 -0.419435 0.154883
v 0.073364 -0.222700 0.154883
v 0.073364 -0.419435 -0.154883
v 0.073364 -0.222700 -0.154883
v 0.186636 -0.419435 0.154883
v 0.186636 -0.222700 0.154883
v 0.186636 -0.419435 -0.154883
v 0.186636 -0.222700 -0.154883
vn -1.0000 -0.0000 -0.0000
vn -0.0000 -0.0000 -1.0000
vn 1.0000 -0.0000 -0.0000
vn -0.0000 -0.0000 1.0000
vn -0.0000 -1.0000 -0.0000
vn -0.0000 1.0000 -0.0000
vt 0.385668 0.777361
vt 0.334163 0.828866
vt 0.253067 0.747770
vt 0.304572 0.696266
vt 0.223413 0.718116
vt 0.274917 0.666611
vt 0.496418 0.888112
vt 0.444913 0.939616
vt 0.363818 0.858521
vt 0.415322 0.807016
vt 0.466764 0.696266
vt 0.496418 0.725920
vt 0.282722 0.939616
vt 0.253067 0.909962
s 0
usemtl マテリアル.007
f 81/139/25 82/140/25 84/141/25 83/142/25
f 83/142/26 84/141/26 88/143/26 87/144/26
f 87/145/27 88/146/27 86/147/27 85/148/27
f 85/148/28 86/147/28 82/140/28 81/139/28
f 83/149/29 87/150/29 85/148/29 81/139/29
f 88/151/30 84/152/30 82/140/30 86/147/30
o 立方体.002
v -0.186636 -0.419435 0.154883
v -0.186636 -0.222700 0.154883
v -0.186636 -0.419435 -0.154883
v -0.186636 -0.222700 -0.154883
v -0.073364 -0.419435 0.154883
v -0.073364 -0.222700 0.154883
v -0.073364 -0.419435 -0.154883
v -0.073364 -0.222700 -0.154883
vn -1.0000 -0.0000 -0.0000
vn -0.0000 -0.0000 -1.0000
vn 1.0000 -0.0000 -0.0000
vn -0.0000 -0.0000 1.0000
vn -0.0000 -1.0000 -0.0000
vn -0.0000 1.0000 -0.0000
vt 0.685124 0.777361
vt 0.633619 0.828866
vt 0.552523 0.747770
vt 0.604028 0.696266
vt 0.522869 0.718116
vt 0.574374 0.666611
vt 0.795874 0.888112
vt 0.744370 0.939616
vt 0.663274 0.858521
vt 0.714779 0.807016
vt 0.766220 0.696266
vt 0.795874 0.725920
vt 0.582178 0.939616
vt 0.552523 0.909962
s 0
usemtl マテリアル.007
f 89/153/31 90/154/31 92/155/31 91/156/31
f 91/156/32 92/155/32 96/157/32 95/158/32
f 95/159/33 96/160/33 94/161/33 93/162/33
f 93/162/34 94/161/34 90/154/34 89/153/34
f 91/163/35 95/164/35 93/162/35 89/153/35
f 96/165/36 92/166/36 90/154/36 94/161/36
