# Blender 5.1.1
# www.blender.org
mtllib playerArm.mtl
o 立方体.001
v -0.019267 -0.248731 0.061602
v -0.019267 0.248731 0.061602
v -0.019267 -0.248731 -0.062630
v -0.019267 0.248731 -0.062630
v 0.020295 -0.248731 0.061602
v 0.020295 0.248731 0.061602
v 0.020295 -0.248731 -0.062630
v 0.020295 0.248731 -0.062630
vn -1.0000 -0.0000 -0.0000
vn -0.0000 -0.0000 -1.0000
vn 1.0000 -0.0000 -0.0000
vn -0.0000 -0.0000 1.0000
vn -0.0000 -1.0000 -0.0000
vn -0.0000 1.0000 -0.0000
vt 0.250000 0.000304
vt 0.125152 0.125152
vt 0.125152 0.000304
vt 0.250000 0.125152
vt 0.125152 0.250000
vt 0.250000 0.250000
vt 0.125152 0.374848
vt 0.250000 0.374848
vt 0.125152 0.499696
vt 0.000304 0.374848
vt 0.000304 0.250000
vt 0.374848 0.250000
vt 0.250000 0.499696
vt 0.374848 0.374848
s 0
usemtl マテリアル.001
f 2/1/1 3/2/1 1/3/1
f 4/4/2 7/5/2 3/2/2
f 8/6/3 5/7/3 7/5/3
f 6/8/4 1/9/4 5/7/4
f 7/5/5 1/10/5 3/11/5
f 4/12/6 6/8/6 8/6/6
f 2/1/1 4/4/1 3/2/1
f 4/4/2 8/6/2 7/5/2
f 8/6/3 6/8/3 5/7/3
f 6/8/4 2/13/4 1/9/4
f 7/5/5 5/7/5 1/10/5
f 4/12/6 2/14/6 6/8/6
o 立方体.002
v -0.038899 0.236877 0.135099
v 0.011794 0.258362 0.035179
v -0.038899 0.508103 0.135099
v 0.011794 0.364984 0.035179
v -0.038899 0.236877 -0.136128
v -0.009163 0.258362 0.050934
v 0.011794 0.258362 -0.062160
v -0.009163 0.364984 0.050934
v 0.011794 0.364984 -0.062160
v -0.009163 0.258362 -0.046856
v -0.038899 0.508103 -0.136128
v -0.009163 0.364984 -0.046856
v 0.039928 0.236877 0.135099
v 0.039928 0.508103 0.135099
v 0.039928 0.236877 -0.136128
v 0.039928 0.508103 -0.136128
v -0.038899 0.387954 0.107170
v -0.038899 0.494575 0.107170
v -0.038899 0.494575 -0.108199
v -0.038899 0.387954 -0.108199
v 0.039928 0.494575 0.107170
v 0.039928 0.387954 -0.108199
v 0.039928 0.494575 -0.108199
v 0.039928 0.387954 0.107170
v -0.038899 0.258362 0.107170
v -0.038899 0.364984 0.107170
v -0.038899 0.364984 0.009380
v -0.038899 0.258362 0.009380
v 0.039928 0.364984 0.009380
v 0.039928 0.258362 0.107170
v 0.039928 0.364984 0.107170
v 0.039928 0.258362 0.009380
v -0.038899 0.258362 -0.010860
v -0.038899 0.258362 -0.108199
v -0.038899 0.364984 -0.010860
v -0.038899 0.364984 -0.108199
v 0.039928 0.258362 -0.010860
v 0.039928 0.258362 -0.108199
v 0.039928 0.364984 -0.010860
v 0.039928 0.364984 -0.108199
v 0.039928 0.258362 0.035179
v 0.039928 0.364984 0.035179
v 0.039928 0.258362 -0.062160
v 0.039928 0.364984 -0.062160
v 0.011794 0.258362 0.009380
v 0.011794 0.364984 0.009380
v 0.011794 0.258362 -0.010860
v 0.011794 0.364984 -0.010860
v -0.038899 0.364984 0.050934
v -0.038899 0.258362 0.050934
v -0.038899 0.364984 -0.046856
v -0.038899 0.258362 -0.046856
v -0.009163 0.258362 0.009380
v -0.009163 0.364984 0.009380
v -0.009163 0.258362 -0.010860
v -0.009163 0.364984 -0.010860
v -0.009749 0.364984 -0.046856
v -0.010947 0.364984 -0.045377
vn -1.0000 -0.0000 -0.0000
vn -0.0000 -0.0000 -1.0000
vn 1.0000 -0.0000 -0.0000
vn -0.0000 -0.0000 1.0000
vn -0.0000 -1.0000 -0.0000
vn -0.0000 1.0000 -0.0000
vt 0.569846 0.013160
vt 0.559273 0.013160
vt 0.625152 0.000304
vt 0.500304 0.125152
vt 0.510194 0.112296
vt 0.559273 0.112296
vt 0.625152 0.125152
vt 0.618925 0.013160
vt 0.500304 0.250000
vt 0.559273 0.361992
vt 0.569846 0.361992
vt 0.625152 0.374848
vt 0.559273 0.262856
vt 0.510194 0.262856
vt 0.625152 0.250000
vt 0.618925 0.361992
vt 0.618925 0.262856
vt 0.500304 0.499696
vt 0.500304 0.374848
vt 0.375456 0.374848
vt 0.375456 0.250000
vt 0.750000 0.250000
vt 0.918134 0.439032
vt 0.834674 0.314183
vt 0.834674 0.439032
vt 0.777056 0.000304
vt 0.860515 0.125152
vt 0.860515 0.000304
vt 0.834674 0.313576
vt 0.918134 0.188728
vt 0.834674 0.188728
vt 0.750608 0.188728
vt 0.834067 0.313576
vt 0.834067 0.188728
vt 0.861123 0.000304
vt 0.883311 0.125152
vt 0.883311 0.000304
vt 0.750608 0.314183
vt 0.834067 0.439032
vt 0.834067 0.314183
vt 0.888347 0.472576
vt 0.866159 0.439639
vt 0.866159 0.492690
vt 0.834674 0.439639
vt 0.918134 0.439639
vt 0.888347 0.439639
vt 0.750608 0.625152
vt 0.834067 0.625152
vt 0.802583 0.553355
vt 0.802583 0.500304
vt 0.834067 0.553355
vt 0.834067 0.500304
vt 0.780394 0.533241
vt 0.750608 0.500304
vt 0.750608 0.533241
vt 0.834067 0.751215
vt 0.750608 0.876063
vt 0.834067 0.876063
vt 0.883431 0.690551
vt 0.861242 0.815399
vt 0.883431 0.815399
vt 0.888347 0.624145
vt 0.834674 0.565095
vt 0.866159 0.643773
vt 0.834674 0.643773
vt 0.866159 0.689943
vt 0.918134 0.689943
vt 0.888347 0.689943
vt 0.780394 0.684809
vt 0.802583 0.704438
vt 0.834067 0.625760
vt 0.804472 0.706336
vt 0.803203 0.704438
vt 0.834067 0.750608
vt 0.834067 0.704438
vt 0.750608 0.684809
vt 0.780394 0.750608
vt 0.860635 0.690551
vt 0.834674 0.815399
vt 0.860635 0.815399
vt 0.776568 0.499696
vt 0.750608 0.469910
vt 0.750608 0.499696
vt 0.803016 0.158334
vt 0.777056 0.188120
vt 0.803016 0.188120
vt 0.776448 0.156636
vt 0.750608 0.031788
vt 0.750608 0.156636
vt 0.776448 0.188120
vt 0.776448 0.000304
vt 0.750608 0.000304
vt 0.510194 0.013160
vt 0.500304 0.000304
vt 0.559273 0.039046
vt 0.569846 0.112296
vt 0.559273 0.058173
vt 0.618925 0.112296
vt 0.510194 0.058173
vt 0.510194 0.039046
vt 0.510194 0.067490
vt 0.559273 0.067490
vt 0.559273 0.084059
vt 0.510194 0.084059
vt 0.510194 0.361992
vt 0.510194 0.328854
vt 0.569846 0.262856
vt 0.559273 0.316979
vt 0.559273 0.328854
vt 0.510194 0.316979
vt 0.510194 0.307662
vt 0.510194 0.284048
vt 0.559273 0.307662
vt 0.559273 0.284048
vt 0.625152 0.499696
vt 0.750000 0.374848
vt 0.918134 0.314183
vt 0.777056 0.125152
vt 0.918134 0.313576
vt 0.750608 0.313576
vt 0.861123 0.125152
vt 0.750608 0.439032
vt 0.834674 0.492690
vt 0.834674 0.564487
vt 0.918134 0.564487
vt 0.918134 0.472576
vt 0.780394 0.500304
vt 0.750608 0.751215
vt 0.861242 0.690551
vt 0.918134 0.624145
vt 0.918134 0.565095
vt 0.834674 0.689943
vt 0.750608 0.625760
vt 0.802583 0.750608
vt 0.750608 0.750608
vt 0.834674 0.690551
vt 0.776568 0.469910
vt 0.777056 0.158334
vt 0.776448 0.031788
vt 0.750608 0.188120
s 0
usemtl マテリアル.001
f 25/15/7 34/16/7 11/17/7
f 13/18/7 42/19/7 44/20/7
f 19/21/7 26/22/7 11/17/7
f 19/21/8 23/23/8 13/18/8
f 39/24/9 32/25/9 22/26/9
f 48/27/9 46/28/9 23/23/9
f 24/29/9 29/30/9 31/31/9
f 22/26/10 9/32/10 21/33/10
f 23/23/11 9/34/11 13/35/11
f 19/36/12 22/26/12 24/29/12
f 27/37/10 30/38/10 31/39/10
f 25/40/8 29/41/8 32/42/8
f 25/43/12 30/44/12 28/45/12
f 31/46/11 26/47/11 27/48/11
f 53/49/10 62/50/10 61/51/10
f 33/52/8 39/53/8 38/54/8
f 10/55/12 61/56/12 14/57/12
f 36/58/12 14/57/12 61/56/12
f 10/55/12 40/59/12 53/60/12
f 39/61/11 34/62/11 16/63/11
f 62/64/11 57/65/11 35/66/11
f 12/67/11 37/68/11 50/69/11
f 42/70/10 48/71/10 44/72/10
f 55/73/8 64/74/8 56/75/8
f 15/76/12 42/77/12 18/78/12
f 60/79/12 63/80/12 18/78/12
f 45/81/12 15/76/12 55/82/12
f 17/83/11 20/84/11 44/85/11
f 20/84/11 66/86/11 65/87/11
f 43/88/11 59/89/11 66/86/11
f 52/90/11 56/91/11 17/83/11
f 53/92/9 56/93/9 54/94/9
f 53/95/12 45/96/12 55/97/12
f 54/98/11 47/99/11 37/100/11
f 61/101/7 64/102/7 63/103/7
f 63/103/12 36/104/12 61/101/12
f 64/102/11 35/105/11 43/106/11
f 34/16/7 33/107/7 9/108/7
f 9/108/7 11/17/7 34/16/7
f 11/17/7 26/22/7 25/15/7
f 34/16/7 25/15/7 57/109/7
f 25/15/7 28/110/7 35/111/7
f 57/109/7 25/15/7 35/111/7
f 28/110/7 27/112/7 19/21/7
f 13/18/7 9/108/7 36/113/7
f 9/108/7 33/107/7 58/114/7
f 9/108/7 58/114/7 36/113/7
f 28/110/7 19/21/7 44/20/7
f 19/21/7 13/18/7 44/20/7
f 13/18/7 36/113/7 41/115/7
f 43/116/7 35/111/7 28/110/7
f 59/117/7 43/116/7 28/110/7
f 13/18/7 41/115/7 60/118/7
f 13/18/7 60/118/7 42/19/7
f 44/20/7 59/117/7 28/110/7
f 19/21/7 27/112/7 26/22/7
f 19/21/8 24/29/8 23/23/8
f 32/25/9 29/30/9 22/26/9
f 22/26/9 21/33/9 39/24/9
f 21/33/9 38/119/9 39/24/9
f 49/120/9 38/119/9 21/33/9
f 23/23/9 24/29/9 48/27/9
f 24/29/9 31/31/9 30/121/9
f 30/121/9 32/25/9 37/122/9
f 32/25/9 39/24/9 50/123/9
f 24/29/9 30/121/9 48/27/9
f 49/120/9 21/33/9 40/124/9
f 21/33/9 23/23/9 40/124/9
f 32/25/9 50/123/9 37/122/9
f 45/125/9 40/124/9 23/23/9
f 51/126/9 45/125/9 23/23/9
f 30/121/9 37/122/9 47/127/9
f 30/121/9 47/127/9 52/128/9
f 46/28/9 51/126/9 23/23/9
f 30/121/9 52/128/9 48/27/9
f 24/29/9 22/26/9 29/30/9
f 22/26/10 11/129/10 9/32/10
f 23/23/11 21/33/11 9/34/11
f 19/36/12 11/130/12 22/26/12
f 27/37/10 28/131/10 30/38/10
f 25/40/8 26/132/8 29/41/8
f 25/43/12 32/133/12 30/44/12
f 31/46/11 29/134/11 26/47/11
f 53/49/10 54/135/10 62/50/10
f 33/52/8 34/136/8 39/53/8
f 14/57/12 58/137/12 33/138/12
f 33/138/12 38/139/12 14/57/12
f 38/139/12 49/140/12 10/55/12
f 10/55/12 53/60/12 61/56/12
f 38/139/12 10/55/12 14/57/12
f 36/58/12 58/137/12 14/57/12
f 10/55/12 49/140/12 40/59/12
f 16/63/11 62/64/11 12/67/11
f 62/64/11 54/141/11 12/67/11
f 12/67/11 50/69/11 39/61/11
f 34/62/11 57/65/11 16/63/11
f 12/67/11 39/61/11 16/63/11
f 62/64/11 16/63/11 57/65/11
f 12/67/11 54/141/11 37/68/11
f 42/70/10 46/142/10 48/71/10
f 55/73/8 63/143/8 64/74/8
f 18/78/12 63/80/12 55/82/12
f 15/76/12 51/144/12 46/145/12
f 18/78/12 55/82/12 15/76/12
f 42/77/12 60/79/12 18/78/12
f 15/76/12 46/145/12 42/77/12
f 60/79/12 41/146/12 63/80/12
f 45/81/12 51/144/12 15/76/12
f 44/85/11 48/147/11 17/83/11
f 48/147/11 52/90/11 17/83/11
f 17/83/11 56/91/11 20/84/11
f 56/91/11 64/148/11 20/84/11
f 65/87/11 59/89/11 44/85/11
f 20/84/11 65/87/11 44/85/11
f 20/84/11 64/148/11 66/86/11
f 64/148/11 43/88/11 66/86/11
f 59/89/11 65/87/11 66/86/11
f 52/90/11 47/149/11 56/91/11
f 53/92/9 55/150/9 56/93/9
f 53/95/12 40/151/12 45/96/12
f 54/98/11 56/152/11 47/99/11
f 61/101/7 62/153/7 64/102/7
f 63/103/12 41/154/12 36/104/12
f 64/102/11 62/153/11 35/105/11
o 立方体.003
v -0.091484 -0.288800 -0.115242
v -0.091484 -0.058133 -0.115242
v 0.092512 -0.288800 -0.115242
v 0.092512 -0.058133 -0.115242
v -0.091484 -0.288800 0.116271
v -0.091484 -0.058133 0.116271
v 0.092512 -0.288800 0.116271
v 0.092512 -0.058133 0.116271
vn -0.0000 -0.0000 -1.0000
vn 1.0000 -0.0000 -0.0000
vn -0.0000 -0.0000 1.0000
vn -1.0000 -0.0000 -0.0000
vn -0.0000 -1.0000 -0.0000
vn -0.0000 1.0000 -0.0000
vt 0.625152 0.500304
vt 0.500304 0.625152
vt 0.500304 0.500304
vt 0.625152 0.625152
vt 0.500304 0.750000
vt 0.625152 0.750000
vt 0.500304 0.874848
vt 0.625152 0.874848
vt 0.500304 0.999696
vt 0.375456 0.874848
vt 0.375456 0.750000
vt 0.750000 0.750000
vt 0.625152 0.999696
vt 0.750000 0.874848
s 0
usemtl マテリアル.001
f 68/155/13 69/156/13 67/157/13
f 70/158/14 73/159/14 69/156/14
f 74/160/15 71/161/15 73/159/15
f 72/162/16 67/163/16 71/161/16
f 73/159/17 67/164/17 69/165/17
f 70/166/18 72/162/18 74/160/18
f 68/155/13 70/158/13 69/156/13
f 70/158/14 74/160/14 73/159/14
f 74/160/15 72/162/15 71/161/15
f 72/162/16 68/167/16 67/163/16
f 73/159/17 71/161/17 67/164/17
f 70/166/18 68/168/18 72/162/18
o 立方体.006
v -0.046090 -0.203661 0.111750
v -0.046090 -0.058133 0.111750
v 0.037944 -0.203661 0.111750
v 0.037944 -0.058133 0.111750
v -0.046090 -0.203661 0.177471
v -0.046090 -0.058133 0.177471
v 0.037944 -0.203661 0.177471
v 0.037944 -0.058133 0.177471
vn -0.0000 -0.0000 -1.0000
vn 1.0000 -0.0000 -0.0000
vn -0.0000 -0.0000 1.0000
vn -1.0000 -0.0000 -0.0000
vn -0.0000 -1.0000 -0.0000
vn -0.0000 1.0000 -0.0000
vt 0.250000 0.500304
vt 0.125152 0.625152
vt 0.125152 0.500304
vt 0.250000 0.625152
vt 0.125152 0.750000
vt 0.250000 0.750000
vt 0.125152 0.874848
vt 0.250000 0.874848
vt 0.125152 0.999696
vt 0.000304 0.874848
vt 0.000304 0.750000
vt 0.374848 0.750000
vt 0.250000 0.999696
vt 0.374848 0.874848
s 0
usemtl マテリアル.001
f 76/169/19 77/170/19 75/171/19
f 78/172/20 81/173/20 77/170/20
f 82/174/21 79/175/21 81/173/21
f 80/176/22 75/177/22 79/175/22
f 81/173/23 75/178/23 77/179/23
f 78/180/24 80/176/24 82/174/24
f 76/169/19 78/172/19 77/170/19
f 78/172/20 82/174/20 81/173/20
f 82/174/21 80/176/21 79/175/21
f 80/176/22 76/181/22 75/177/22
f 81/173/23 79/175/23 75/178/23
f 78/180/24 76/182/24 80/176/24
